<svg viewBox="0 0 960 960" xmlns="http://www.w3.org/2000/svg" xmlns:xlink="http://www.w3.org/1999/xlink" id="80ff8474-27e6-418d-81b8-3f63181497ac" overflow="hidden"><style>
.MsftOfcThm_Accent4_Fill_v2 {
 fill:#A22547; 
}
</style>
<g><path d="M766.908 772.902 815.824 723.986C818.989 719.291 821.908 714.481 824.582 709.572L752.494 781.66C757.403 778.986 762.213 776.067 766.908 772.902Z" class="st0" fill="#D2D2D2"/><path d="M728.398 792.556 835.478 685.476C836.512 682.65 837.472 679.803 838.36 676.938L719.86 795.438C722.725 794.55 725.572 793.59 728.398 792.556Z" class="st0" fill="#D2D2D2"/><path d="M702.143 799.955 842.876 659.222C843.338 656.926 843.756 654.623 844.128 652.314L695.235 801.206C697.544 800.834 699.847 800.417 702.143 799.955Z" class="st0" fill="#D2D2D2"/><path d="M680.254 802.986 845.908 637.333C846.061 635.329 846.181 633.324 846.268 631.317L674.238 803.346C676.245 803.26 678.251 803.139 680.254 802.986Z" class="st0" fill="#D2D2D2"/><path d="M660.956 803.429 846.35 618.034C846.295 616.23 846.211 614.427 846.102 612.625L655.548 803.181C657.349 803.289 659.152 803.374 660.956 803.429Z" class="st0" fill="#D2D2D2"/><path d="M643.48 802.048 844.97 600.559C844.759 598.906 844.523 597.255 844.265 595.607L638.529 801.344C640.177 801.601 641.827 801.837 643.48 802.048Z" class="st0" fill="#D2D2D2"/><path d="M627.414 799.258 842.18 584.493C841.842 582.963 841.48 581.437 841.102 579.915L622.836 798.18C624.358 798.558 625.884 798.92 627.414 799.258Z" class="st0" fill="#D2D2D2"/><path d="M612.532 795.284 838.206 569.61C837.76 568.184 837.296 566.763 836.813 565.346L608.268 793.892C609.685 794.374 611.106 794.838 612.532 795.284Z" class="st0" fill="#D2D2D2"/><path d="M598.645 790.315 833.237 555.724C832.696 554.391 832.139 553.063 831.564 551.74L594.662 788.642C595.984 789.216 597.312 789.773 598.645 790.315Z" class="st0" fill="#D2D2D2"/><path d="M585.676 784.427 827.349 542.754C826.722 541.505 826.081 540.261 825.422 539.024L581.947 782.501C583.184 783.159 584.427 783.8 585.676 784.427Z" class="st0" fill="#D2D2D2"/><path d="M570.033 775.557C571.191 776.293 572.356 777.013 573.527 777.72L820.642 530.605C819.935 529.434 819.215 528.269 818.479 527.111L570.033 775.557Z" class="st0" fill="#D2D2D2"/><path d="M558.876 767.859C559.959 768.668 561.05 769.462 562.147 770.244L813.166 519.225C812.384 518.128 811.59 517.037 810.781 515.954L558.876 767.859Z" class="st0" fill="#D2D2D2"/><path d="M551.497 762.038 804.502 509.033 801.674 506.205 548.439 759.44C549.451 760.32 550.471 761.184 551.497 762.038Z" class="st0" fill="#D2D2D2"/><path d="M538.699 750.324C538.856 750.482 539.007 750.644 539.165 750.801 539.953 751.589 540.753 752.358 541.551 753.128L795.047 499.632 792.219 496.804 538.699 750.324Z" class="st0" fill="#D2D2D2"/><path d="M532.292 743.531 785.592 490.23 782.764 487.402 529.646 740.521C530.513 741.533 531.399 742.534 532.292 743.531Z" class="st0" fill="#D2D2D2"/><path d="M521.296 730.015C522.092 731.097 522.905 732.171 523.728 733.239L776.138 480.83 775.973 480.665C774.966 479.891 773.956 479.124 772.937 478.375L521.296 730.015Z" class="st0" fill="#D2D2D2"/><path d="M513.671 718.783C514.393 719.938 515.133 721.085 515.883 722.227L765.15 472.961C764.008 472.211 762.861 471.471 761.706 470.749L513.671 718.783Z" class="st0" fill="#D2D2D2"/><path d="M508.79 710.465 753.387 465.867C752.167 465.193 750.941 464.533 749.708 463.889L506.812 706.787C507.455 708.019 508.116 709.245 508.79 710.465Z" class="st0" fill="#D2D2D2"/><path d="M502.492 697.906 740.828 459.57C739.523 458.978 738.213 458.403 736.898 457.844L500.766 693.976C501.325 695.292 501.901 696.602 502.492 697.906Z" class="st0" fill="#D2D2D2"/><path d="M497.051 684.491 727.412 454.13C726.015 453.628 724.614 453.144 723.208 452.678L495.599 680.286C496.066 681.693 496.55 683.094 497.051 684.491Z" class="st0" fill="#D2D2D2"/><path d="M492.557 670.129 713.051 449.634C711.55 449.233 710.044 448.855 708.535 448.493L491.416 665.613C491.777 667.123 492.156 668.628 492.557 670.129Z" class="st0" fill="#D2D2D2"/><path d="M489.154 654.675 697.597 446.232C695.977 445.949 694.354 445.683 692.728 445.444L488.367 649.807C488.605 651.433 488.871 653.055 489.154 654.675Z" class="st0" fill="#D2D2D2"/><path d="M487.03 637.943 680.865 444.108C679.098 443.967 677.33 443.845 675.561 443.756L486.678 632.639C486.768 634.409 486.889 636.176 487.03 637.943Z" class="st0" fill="#D2D2D2"/><path d="M486.49 619.628 662.549 443.569C660.587 443.611 658.625 443.691 656.665 443.797L486.718 613.743C486.612 615.704 486.532 617.665 486.49 619.628Z" class="st0" fill="#D2D2D2"/><path d="M488.102 599.159 642.081 445.18C639.846 445.484 637.615 445.826 635.391 446.214L489.136 592.469C488.748 594.693 488.406 596.924 488.102 599.159Z" class="st0" fill="#D2D2D2"/><path d="M492.96 575.445 618.366 450.039C615.652 450.788 612.952 451.601 610.269 452.48L495.401 567.348C494.522 570.031 493.71 572.731 492.96 575.445Z" class="st0" fill="#D2D2D2"/><path d="M504.325 545.224 588.146 461.403C584.064 463.374 580.041 465.508 576.087 467.806L510.727 533.166C508.429 537.12 506.296 541.142 504.325 545.224Z" class="st0" fill="#D2D2D2"/></g><path d="M267.54 349.541 267.54 349.541C320.261 296.82 405.738 296.82 458.459 349.541L458.459 349.541C511.18 402.262 511.18 487.739 458.459 540.46L458.459 540.46C405.738 593.181 320.261 593.181 267.54 540.46L267.54 540.46C214.82 487.739 214.82 402.261 267.54 349.541Z" class="st1" fill="#E6E6E6"/><path d="M541.097 680.688 541.097 680.688C500.092 639.683 500.092 573.201 541.097 532.196L541.097 532.196C582.102 491.191 648.584 491.191 689.589 532.196L689.589 532.196C730.594 573.201 730.594 639.683 689.589 680.688L689.589 680.688C648.584 721.693 582.102 721.693 541.097 680.688Z" class="MsftOfcThm_Accent4_Fill_v2" fill="#A22547"/><path d="M504.969 840 503.031 840C486.998 840 474 827.002 474 810.969L474 809.031C474 792.998 486.998 780 503.031 780L504.969 780C521.002 780 534 792.998 534 809.031L534 810.969C534 827.002 521.002 840 504.969 840Z" class="st1" fill="#E6E6E6"/><g><circle cx="294" cy="539.5" r="11.25" class="st0" fill="#D2D2D2"/><circle cx="294" cy="483.25" r="11.25" class="st0" fill="#D2D2D2"/><circle cx="250.324" cy="489" r="11.25" class="st0" fill="#D2D2D2"/><circle cx="209.625" cy="505.858" r="11.25" class="st0" fill="#D2D2D2"/><circle cx="174.676" cy="532.676" r="11.25" class="st0" fill="#D2D2D2"/><circle cx="147.858" cy="567.625" r="11.25" class="st0" fill="#D2D2D2"/><circle cx="131" cy="608.324" r="11.25" class="st0" fill="#D2D2D2"/><circle cx="125.25" cy="652" r="11.25" class="st0" fill="#D2D2D2"/><circle cx="131" cy="695.676" r="11.25" class="st0" fill="#D2D2D2"/><circle cx="147.858" cy="736.375" r="11.25" class="st0" fill="#D2D2D2"/><circle cx="174.676" cy="771.324" r="11.25" class="st0" fill="#D2D2D2"/><circle cx="209.625" cy="798.142" r="11.25" class="st0" fill="#D2D2D2"/><circle cx="250.324" cy="815" r="11.25" class="st0" fill="#D2D2D2"/><circle cx="294" cy="820.75" r="11.25" class="st0" fill="#D2D2D2"/><circle cx="337.676" cy="815" r="11.25" class="st0" fill="#D2D2D2"/><circle cx="378.375" cy="798.142" r="11.25" class="st0" fill="#D2D2D2"/><circle cx="413.324" cy="771.324" r="11.25" class="st0" fill="#D2D2D2"/><circle cx="440.142" cy="736.375" r="11.25" class="st0" fill="#D2D2D2"/><circle cx="457" cy="695.676" r="11.25" class="st0" fill="#D2D2D2"/><circle cx="462.75" cy="652" r="11.25" class="st0" fill="#D2D2D2"/><circle cx="457" cy="608.324" r="11.25" class="st0" fill="#D2D2D2"/><circle cx="440.142" cy="567.625" r="11.25" class="st0" fill="#D2D2D2"/><circle cx="413.324" cy="532.676" r="11.25" class="st0" fill="#D2D2D2"/><circle cx="378.375" cy="505.858" r="11.25" class="st0" fill="#D2D2D2"/><circle cx="337.676" cy="489" r="11.25" class="st0" fill="#D2D2D2"/><circle cx="237.75" cy="554.572" r="11.25" class="st0" fill="#D2D2D2"/><circle cx="196.572" cy="595.75" r="11.25" class="st0" fill="#D2D2D2"/><circle cx="181.5" cy="652" r="11.25" class="st0" fill="#D2D2D2"/><circle cx="196.572" cy="708.25" r="11.25" class="st0" fill="#D2D2D2"/><circle cx="237.75" cy="749.428" r="11.25" class="st0" fill="#D2D2D2"/><circle cx="294" cy="764.5" r="11.25" class="st0" fill="#D2D2D2"/><circle cx="350.25" cy="749.428" r="11.25" class="st0" fill="#D2D2D2"/><circle cx="391.428" cy="708.25" r="11.25" class="st0" fill="#D2D2D2"/><circle cx="406.5" cy="652" r="11.25" class="st0" fill="#D2D2D2"/><circle cx="391.428" cy="595.75" r="11.25" class="st0" fill="#D2D2D2"/><circle cx="350.25" cy="554.572" r="11.25" class="st0" fill="#D2D2D2"/><circle cx="294" cy="595.75" r="11.25" class="st0" fill="#D2D2D2"/><circle cx="245.286" cy="623.875" r="11.25" class="st0" fill="#D2D2D2"/><circle cx="245.286" cy="680.125" r="11.25" class="st0" fill="#D2D2D2"/><circle cx="294" cy="708.25" r="11.25" class="st0" fill="#D2D2D2"/><circle cx="342.714" cy="680.125" r="11.25" class="st0" fill="#D2D2D2"/><circle cx="293.998" cy="651.998" r="11.25" class="st0" fill="#D2D2D2"/><circle cx="342.714" cy="623.875" r="11.25" class="st0" fill="#D2D2D2"/></g><g><path d="M466 481C366.196 481 285 399.804 285 300 285 200.196 366.196 119 466 119 565.804 119 647 200.196 647 300 647 399.804 565.804 481 466 481ZM466 121C367.299 121 287 201.299 287 300 287 398.701 367.299 479 466 479 564.701 479 645 398.701 645 300 645 201.299 564.701 121 466 121Z" class="st0" fill="#D2D2D2"/><path d="M466 468.539C373.067 468.539 297.461 392.933 297.461 300 297.461 207.067 373.067 131.461 466 131.461 558.933 131.461 634.538 207.067 634.538 300 634.538 392.933 558.933 468.539 466 468.539ZM466 133.461C374.17 133.461 299.461 208.17 299.461 300 299.461 391.83 374.17 466.539 466 466.539 557.829 466.539 632.538 391.83 632.538 300 632.538 208.17 557.829 133.461 466 133.461Z" class="st0" fill="#D2D2D2"/><path d="M466 456.077C379.939 456.077 309.923 386.061 309.923 300 309.923 213.939 379.939 143.923 466 143.923 552.062 143.923 622.077 213.939 622.077 300 622.077 386.061 552.062 456.077 466 456.077ZM466 145.923C381.042 145.923 311.923 215.042 311.923 300 311.923 384.958 381.042 454.077 466 454.077 550.958 454.077 620.077 384.958 620.077 300 620.077 215.042 550.958 145.923 466 145.923Z" class="st0" fill="#D2D2D2"/><path d="M466 443.615C386.811 443.615 322.385 379.189 322.385 300 322.385 220.811 386.811 156.385 466 156.385 545.189 156.385 609.615 220.811 609.615 300 609.615 379.189 545.189 443.615 466 443.615ZM466 158.385C387.913 158.385 324.385 221.913 324.385 300 324.385 378.087 387.913 441.615 466 441.615 544.087 441.615 607.615 378.087 607.615 300 607.615 221.913 544.087 158.385 466 158.385Z" class="st0" fill="#D2D2D2"/><path d="M466 431.154C393.682 431.154 334.846 372.319 334.846 300 334.846 227.681 393.682 168.846 466 168.846 538.318 168.846 597.154 227.682 597.154 300 597.154 372.318 538.318 431.154 466 431.154ZM466 170.846C394.784 170.846 336.846 228.784 336.846 300 336.846 371.216 394.784 429.154 466 429.154 537.216 429.154 595.154 371.216 595.154 300 595.154 228.784 537.216 170.846 466 170.846Z" class="st0" fill="#D2D2D2"/><path d="M466 418.692C400.553 418.692 347.308 365.447 347.308 300 347.308 234.553 400.553 181.308 466 181.308 531.447 181.308 584.692 234.553 584.692 300 584.692 365.447 531.447 418.692 466 418.692ZM466 183.308C401.656 183.308 349.308 235.656 349.308 300 349.308 364.344 401.656 416.692 466 416.692 530.345 416.692 582.692 364.344 582.692 300 582.692 235.656 530.345 183.308 466 183.308Z" class="st0" fill="#D2D2D2"/><path d="M466 406.231C407.424 406.231 359.769 358.576 359.769 300 359.769 241.424 407.424 193.769 466 193.769 524.575 193.769 572.23 241.424 572.23 300 572.23 358.576 524.575 406.231 466 406.231ZM466 195.769C408.527 195.769 361.769 242.527 361.769 300 361.769 357.473 408.527 404.231 466 404.231 523.473 404.231 570.23 357.473 570.23 300 570.23 242.527 523.473 195.769 466 195.769Z" class="st0" fill="#D2D2D2"/><path d="M466 393.769C414.295 393.769 372.231 351.705 372.231 300 372.231 248.295 414.295 206.231 466 206.231 517.705 206.231 559.77 248.295 559.77 300 559.77 351.705 517.705 393.769 466 393.769ZM466 208.231C415.398 208.231 374.231 249.398 374.231 300 374.231 350.602 415.398 391.769 466 391.769 516.602 391.769 557.77 350.602 557.77 300 557.77 249.398 516.602 208.231 466 208.231Z" class="st0" fill="#D2D2D2"/><path d="M466 381.308C421.167 381.308 384.692 344.833 384.692 300 384.692 255.167 421.167 218.692 466 218.692 510.833 218.692 547.308 255.167 547.308 300 547.308 344.833 510.833 381.308 466 381.308ZM466 220.692C422.27 220.692 386.692 256.269 386.692 300 386.692 343.731 422.27 379.308 466 379.308 509.73 379.308 545.308 343.73 545.308 300 545.308 256.27 509.73 220.692 466 220.692Z" class="st0" fill="#D2D2D2"/><path d="M466 368.846C428.038 368.846 397.154 337.962 397.154 300 397.154 262.038 428.038 231.154 466 231.154 503.962 231.154 534.846 262.038 534.846 300 534.846 337.962 503.962 368.846 466 368.846ZM466 233.154C429.141 233.154 399.154 263.141 399.154 300 399.154 336.859 429.141 366.846 466 366.846 502.858 366.846 532.846 336.859 532.846 300 532.846 263.141 502.858 233.154 466 233.154Z" class="st0" fill="#D2D2D2"/><path d="M466 356.385C434.909 356.385 409.615 331.091 409.615 300 409.615 268.909 434.909 243.615 466 243.615 497.091 243.615 522.385 268.909 522.385 300 522.385 331.091 497.091 356.385 466 356.385ZM466 245.615C436.012 245.615 411.615 270.012 411.615 300 411.615 329.988 436.012 354.385 466 354.385 495.988 354.385 520.385 329.988 520.385 300 520.385 270.012 495.988 245.615 466 245.615Z" class="st0" fill="#D2D2D2"/><path d="M466 343.923C441.781 343.923 422.077 324.219 422.077 300 422.077 275.781 441.781 256.077 466 256.077 490.219 256.077 509.923 275.781 509.923 300 509.923 324.219 490.219 343.923 466 343.923ZM466 258.077C442.884 258.077 424.077 276.884 424.077 300 424.077 323.116 442.884 341.923 466 341.923 489.116 341.923 507.923 323.116 507.923 300 507.923 276.884 489.116 258.077 466 258.077Z" class="st0" fill="#D2D2D2"/><path d="M466 331.461C448.652 331.461 434.539 317.347 434.539 300 434.539 282.653 448.653 268.539 466 268.539 483.349 268.539 497.462 282.653 497.462 300 497.462 317.347 483.349 331.461 466 331.461ZM466 270.539C449.755 270.539 436.539 283.755 436.539 300 436.539 316.245 449.755 329.461 466 329.461 482.245 329.461 495.462 316.245 495.462 300 495.462 283.755 482.245 270.539 466 270.539Z" class="st0" fill="#D2D2D2"/><path d="M466 319C455.523 319 447 310.477 447 300 447 289.523 455.523 281 466 281 476.477 281 485 289.523 485 300 485 310.477 476.477 319 466 319ZM466 283C456.626 283 449 290.626 449 300 449 309.374 456.626 317 466 317 475.374 317 483 309.374 483 300 483 290.626 475.374 283 466 283Z" class="st0" fill="#D2D2D2"/></g><path d="M633.464 392 632.535 392C591.371 392 558 358.629 558 317.464L558 316.535C558 275.371 591.371 242 632.536 242L633.465 242C674.629 242 708 275.371 708 316.536L708 317.465C708 358.629 674.629 392 633.464 392Z" class="st0" fill="#D2D2D2"/></svg>