<svg viewBox="0 0 96 96" xmlns="http://www.w3.org/2000/svg" xmlns:xlink="http://www.w3.org/1999/xlink" id="Icons_Badge1_M" overflow="hidden"><style>
.MsftOfcThm_Accent1_Fill_v2 {
 fill:#8A4091; 
}
</style>
<g id="Icons"><path d="M48.0209 12C67.8917 12 84.0001 28.1084 84.0001 47.9792 84.0001 67.85 67.8917 83.9584 48.0209 83.9584 28.1501 83.9584 12.0417 67.85 12.0417 47.9792 12.0643 28.1178 28.1595 12.0227 48.0209 12.0002M48.0209 10C27.0456 9.99994 10.0417 27.0038 10.0416 47.9791 10.0415 68.9544 27.0454 85.9583 48.0207 85.9584 68.996 85.9585 85.9999 68.9546 86 47.9793 86.0093 27.0134 69.0207 10.0096 48.0548 10.0003 48.0435 10.0003 48.0322 10.0003 48.0209 10.0003Z" class="MsftOfcThm_Accent1_Fill_v2" fill="#8A4091"/><path d="M48.3765 63.65 48.3765 33.2129C48.3765 33.2011 48.3691 33.1976 48.36 33.2052L47.799 33.691C47.2289 34.1735 46.6269 34.6171 45.9971 35.0186 45.3247 35.4512 44.6309 35.8604 43.9346 36.2354 43.2339 36.6123 42.5254 36.9541 41.8296 37.2529 41.3066 37.4766 40.8066 37.6748 40.3374 37.8438L40.3374 35.9414C42.1309 35.3398 43.8487 34.5327 45.4565 33.5361 47.1655 32.4725 48.7903 31.2793 50.3165 29.9668L50.6759 29.9854 50.6759 63.65Z" class="MsftOfcThm_Accent1_Fill_v2" fill="#8A4091"/></g></svg>