<svg viewBox="0 0 96 96" xmlns="http://www.w3.org/2000/svg" xmlns:xlink="http://www.w3.org/1999/xlink" id="Icons_Tag" overflow="hidden"><style>
.MsftOfcThm_Accent4_Fill {
 fill:#FF8100; 
}
</style>
<path d="M33 39C30.8 39 29 37.2 29 35 29 33.6 29.8 32.3 30.9 31.6 30.9 32.3 31 33.1 31 34 31 35.1 31.9 36 33 36 34.1 36 35 35.1 35 34 35 33.1 35 32.3 34.9 31.5 36.1 32.2 37 33.5 37 35 37 37.2 35.2 39 33 39ZM82.2 56.2 54.2 28.2C53.4 27.4 52.4 27 51.4 27L34.2 27C33.1 23.5 31 21.7 27.4 21 26.1 20.8 25 20.6 23.9 20.4 18.2 19.6 17 19.4 17 13 17 11.9 16.1 11 15 11 13.9 11 13 11.9 13 13 13 22.4 16.7 23.4 23.3 24.4 24.3 24.6 25.4 24.7 26.7 25 28 25.3 29.4 25.5 30.2 27.6 27.2 28.8 25.1 31.7 25.1 35.1L25.1 53.4C25.1 54.5 25.5 55.5 26.3 56.2L54.3 84.2C55 85 56 85.3 57 85.3 58 85.3 59 84.9 59.8 84.1L82.1 61.8C83.7 60.3 83.7 57.7 82.2 56.2Z" class="MsftOfcThm_Accent4_Fill" stroke="none" stroke-width="0.999974" stroke-linecap="butt" stroke-opacity="1" fill="#FF8100" fill-opacity="1"/></svg>