<svg viewBox="0 0 96 96" xmlns="http://www.w3.org/2000/svg" xmlns:xlink="http://www.w3.org/1999/xlink" id="Icons_RightPointingBackhandIndex" overflow="hidden"><style>
.MsftOfcThm_Background1_lumMod_75_Fill {
 fill:#BFBFBF; 
}
</style>
<path d="M85 34 35.5 34 54 29.9C56.7 29.3 58.4 26.6 57.8 23.9 57.2 21.2 54.5 19.5 51.8 20.1L24.8 26.1C23.8 26.4 22.8 27 22 28L13.5 39 6 39 6 68 11 68C18.1 68 18.6 76 32 76 35.2 76 45.8 76 50 76 53.3 76 56 73.3 56 70 56 68.4 55.4 67 54.4 66 54.6 66 54.8 66 55 66 58.3 66 61 63.3 61 60 61 58.4 60.4 56.9 59.3 55.8 62 55.2 64 52.8 64 50 64 46.7 61.3 44 58 44L85 44C87.8 44 90 41.8 90 39 90 36.2 87.8 34 85 34Z" class="MsftOfcThm_Background1_lumMod_75_Fill" stroke="none" stroke-width="1" stroke-linecap="butt" fill="#BFBFBF" fill-opacity="1"/></svg>