<svg version="1.1" viewBox="0 0 96 96" xmlns="http://www.w3.org/2000/svg" xmlns:xlink="http://www.w3.org/1999/xlink" id="Icons_OpenBook" overflow="hidden"><style>
.MsftOfcThm_Background1_Fill {
 fill:#FFFFFF; 
}
</style>
<path d=" M 86 22 L 86 71 L 10 71 L 10 22 L 4 22 L 4 78 L 39 78 C 39 79.7 40.3 81 42 81 L 54 81 C 55.7 81 57 79.7 57 78 L 92 78 L 92 22 L 86 22 Z" class="MsftOfcThm_Background1_Fill" stroke="none" stroke-width="1" stroke-linecap="butt" fill="#FFFFFF" fill-opacity="1"/><path d=" M 82 16 L 14 16 L 14 67 L 82 67 L 82 16 Z M 20 22 L 46 22 L 46 61 L 20 61 L 20 22 Z M 76 61 L 50 61 L 50 22 L 76 22 L 76 61 Z" class="MsftOfcThm_Background1_Fill" stroke="none" stroke-width="1" stroke-linecap="butt" fill="#FFFFFF" fill-opacity="1"/><rect x="56" y="32" width="14" height="3" class="MsftOfcThm_Background1_Fill" stroke="none" stroke-width="1" stroke-linecap="butt" fill="#FFFFFF" fill-opacity="1"/><rect x="56" y="38" width="14" height="3" class="MsftOfcThm_Background1_Fill" stroke="none" stroke-width="1" stroke-linecap="butt" fill="#FFFFFF" fill-opacity="1"/><rect x="56" y="44" width="9.7" height="3" class="MsftOfcThm_Background1_Fill" stroke="none" stroke-width="1" stroke-linecap="butt" fill="#FFFFFF" fill-opacity="1"/></svg>