<svg version="1.1" viewBox="0 0 96 96" xmlns="http://www.w3.org/2000/svg" xmlns:xlink="http://www.w3.org/1999/xlink" id="Icons_Meeting" overflow="hidden"><style>
.MsftOfcThm_Background1_Fill {
 fill:#FFFFFF; 
}
</style>
<path d=" M 55 26.9 C 55 30.8 51.9 33.9 48 33.9 C 44.1 33.9 41 30.8 41 26.9 C 41 23 44.1 19.9 48 19.9 C 51.9 19.9 55 23.1 55 26.9" class="MsftOfcThm_Background1_Fill" stroke="none" stroke-width="1" stroke-linecap="butt" fill="#FFFFFF" fill-opacity="1"/><path d=" M 83 30.9 C 83 34.8 79.9 37.9 76 37.9 C 72.1 37.9 69 34.8 69 30.9 C 69 27 72.1 23.9 76 23.9 C 79.9 23.9 83 27 83 30.9" class="MsftOfcThm_Background1_Fill" stroke="none" stroke-width="1" stroke-linecap="butt" fill="#FFFFFF" fill-opacity="1"/><path d=" M 27 30.9 C 27 34.8 23.9 37.9 20 37.9 C 16.1 37.9 13 34.8 13 30.9 C 13 27 16.1 23.9 20 23.9 C 23.9 23.9 27 27 27 30.9" class="MsftOfcThm_Background1_Fill" stroke="none" stroke-width="1" stroke-linecap="butt" fill="#FFFFFF" fill-opacity="1"/><path d=" M 8.6 76.1 C 8.6 61.5 26.2 49.7 48 49.7 C 69.7 49.7 87.4 61.5 87.4 76.1 L 8.6 76.1 Z" class="MsftOfcThm_Background1_Fill" stroke="none" stroke-width="1" stroke-linecap="butt" fill="#FFFFFF" fill-opacity="1"/><path d=" M 17.6 53.4 C 21.8 50.6 26.7 48.4 32 47 L 32 45.9 C 32 44.8 31.5 43.7 30.8 43 C 30.5 42.7 29.8 42.3 28.9 41.9 C 23.4 39.3 16.9 39.3 11.3 41.8 C 10.3 42.2 9.5 42.7 9.1 43 C 8.5 43.7 8 44.8 8 45.9 L 8 62.9 C 10.3 59.4 13.5 56.1 17.6 53.4" class="MsftOfcThm_Background1_Fill" stroke="none" stroke-width="1" stroke-linecap="butt" fill="#FFFFFF" fill-opacity="1"/><path d=" M 60 46 L 60 41.9 C 60 40.8 59.5 39.7 58.8 39 C 58.5 38.7 57.8 38.3 56.9 37.9 C 51.4 35.3 44.9 35.3 39.3 37.8 C 38.3 38.2 37.5 38.7 37.1 39 C 36.3 39.7 35.9 40.8 35.9 41.9 L 35.9 46 C 39.8 45.2 43.8 44.8 47.9 44.8 C 52 44.8 56.1 45.3 60 46" class="MsftOfcThm_Background1_Fill" stroke="none" stroke-width="1" stroke-linecap="butt" fill="#FFFFFF" fill-opacity="1"/><path d=" M 88 62.9 L 88 45.9 C 88 44.8 87.5 43.7 86.8 43 C 86.5 42.7 85.8 42.3 84.9 41.9 C 79.4 39.3 72.9 39.3 67.3 41.8 C 66.3 42.2 65.5 42.7 65.1 43 C 64.3 43.7 63.9 44.8 63.9 45.9 L 63.9 47 C 69.2 48.4 74.1 50.6 78.3 53.4 C 82.5 56.1 85.7 59.4 88 62.9" class="MsftOfcThm_Background1_Fill" stroke="none" stroke-width="1" stroke-linecap="butt" fill="#FFFFFF" fill-opacity="1"/></svg>