<svg viewBox="0 0 96 96" xmlns="http://www.w3.org/2000/svg" xmlns:xlink="http://www.w3.org/1999/xlink" id="Icons_OpenBook" overflow="hidden"><style>
.MsftOfcResponsive_Fill_285c4d {
 fill:#285C4D; 
}
</style>
<path d="M86 22 86 71 10 71 10 22 4 22 4 78 39 78C39 79.7 40.3 81 42 81L54 81C55.7 81 57 79.7 57 78L92 78 92 22 86 22Z" class="MsftOfcResponsive_Fill_285c4d" fill="#285C4D"/><path d="M82 16 14 16 14 67 82 67 82 16ZM20 22 46 22 46 61 20 61 20 22ZM76 61 50 61 50 22 76 22 76 61Z" class="MsftOfcResponsive_Fill_285c4d" fill="#285C4D"/><rect x="56" y="32" width="14" height="3" class="MsftOfcResponsive_Fill_285c4d" fill="#285C4D"/><rect x="56" y="38" width="14" height="3" class="MsftOfcResponsive_Fill_285c4d" fill="#285C4D"/><rect x="56" y="44" width="9.7" height="3" class="MsftOfcResponsive_Fill_285c4d" fill="#285C4D"/></svg>