<svg viewBox="0 0 480 480" xmlns="http://www.w3.org/2000/svg" xmlns:xlink="http://www.w3.org/1999/xlink" id="1ed91908-570c-4b23-8309-c0170449a507" overflow="hidden"><path d="M389.85 247.36C387.262 224.234 353.404 224.631 323.712 192.731 285.081 151.228 304.701 110.064 276.656 93.87 243.416 74.676 166.391 103.943 149.887 161.506 132.976 220.491 190.679 270.589 222.372 289.007 260.091 310.928 315.284 319.544 355.488 294.243 359.511 291.711 392.49 270.958 389.85 247.36Z" fill="#E4E4E4"/><path d="M195.43 138.904C174.677 149.429 186.916 181.004 167.447 219.991 142.116 270.714 96.686 266.756 91.349 298.698 85.023 336.557 139.431 398.453 199.128 393.747 260.299 388.924 286.995 317.326 293.137 281.188 300.447 238.179 289.171 183.463 251.383 154.667 247.603 151.785 216.606 128.164 195.43 138.904Z" fill="#D1D1D1"/></svg>