<svg width="569" height="561" xmlns="http://www.w3.org/2000/svg" xmlns:xlink="http://www.w3.org/1999/xlink" overflow="hidden"><style>
.MsftOfcThm_Accent2_Fill_v2 {
 fill:#235B4E; 
}
</style>
<defs><clipPath id="clip0"><rect x="692" y="135" width="569" height="561"/></clipPath></defs><g clip-path="url(#clip0)" transform="translate(-692 -135)"><path d="M572.541 577.015 609.059 540.497C611.422 536.992 613.601 533.401 615.597 529.736L561.78 583.554C565.445 581.557 569.036 579.378 572.541 577.015Z" class="MsftOfcThm_Accent2_Fill_v2" fill="#235B4E" fill-opacity="0.2" transform="matrix(1.00051 0 0 1 622.295 58.715)"/><path d="M543.791 591.688 623.732 511.747C624.504 509.637 625.221 507.512 625.884 505.373L537.417 593.84C539.555 593.177 541.681 592.46 543.791 591.688Z" class="MsftOfcThm_Accent2_Fill_v2" fill="#235B4E" fill-opacity="0.2" transform="matrix(1.00051 0 0 1 622.295 58.715)"/><path d="M524.19 597.212 629.255 492.147C629.6 490.433 629.912 488.713 630.19 486.99L519.033 598.146C520.756 597.868 522.476 597.557 524.19 597.212Z" class="MsftOfcThm_Accent2_Fill_v2" fill="#235B4E" fill-opacity="0.2" transform="matrix(1.00051 0 0 1 622.295 58.715)"/><path d="M507.848 599.475 631.519 475.805C631.633 474.309 631.722 472.812 631.787 471.314L503.357 599.744C504.855 599.679 506.353 599.589 507.848 599.475Z" class="MsftOfcThm_Accent2_Fill_v2" fill="#235B4E" fill-opacity="0.2" transform="matrix(1.00051 0 0 1 622.295 58.715)"/><path d="M493.441 599.806 631.849 461.398C631.807 460.051 631.745 458.705 631.663 457.36L489.404 599.62C490.749 599.701 492.095 599.765 493.441 599.806Z" class="MsftOfcThm_Accent2_Fill_v2" fill="#235B4E" fill-opacity="0.2" transform="matrix(1.00051 0 0 1 622.295 58.715)"/><path d="M480.395 598.775 630.818 448.352C630.661 447.117 630.485 445.885 630.292 444.655L476.698 598.249C477.929 598.441 479.16 598.617 480.395 598.775Z" class="MsftOfcThm_Accent2_Fill_v2" fill="#235B4E" fill-opacity="0.2" transform="matrix(1.00051 0 0 1 622.295 58.715)"/><path d="M468.4 596.692 628.735 436.357C628.483 435.215 628.213 434.076 627.931 432.94L464.983 595.887C466.119 596.169 467.258 596.439 468.4 596.692Z" class="MsftOfcThm_Accent2_Fill_v2" fill="#235B4E" fill-opacity="0.2" transform="matrix(1.00051 0 0 1 622.295 58.715)"/><path d="M457.29 593.725 625.769 425.246C625.436 424.182 625.089 423.121 624.729 422.063L454.107 592.686C455.165 593.046 456.226 593.392 457.29 593.725Z" class="MsftOfcThm_Accent2_Fill_v2" fill="#235B4E" fill-opacity="0.2" transform="matrix(1.00051 0 0 1 622.295 58.715)"/><path d="M446.923 590.015 622.059 414.88C621.655 413.885 621.239 412.893 620.81 411.905L443.949 588.766C444.936 589.195 445.927 589.611 446.923 590.015Z" class="MsftOfcThm_Accent2_Fill_v2" fill="#235B4E" fill-opacity="0.2" transform="matrix(1.00051 0 0 1 622.295 58.715)"/><path d="M437.241 585.62 617.663 405.197C617.195 404.264 616.717 403.336 616.225 402.412L434.457 584.182C435.38 584.673 436.308 585.151 437.241 585.62Z" class="MsftOfcThm_Accent2_Fill_v2" fill="#235B4E" fill-opacity="0.2" transform="matrix(1.00051 0 0 1 622.295 58.715)"/><path d="M425.562 578.998C426.427 579.547 427.296 580.085 428.171 580.612L612.656 396.127C612.128 395.253 611.591 394.383 611.041 393.518L425.562 578.998Z" class="MsftOfcThm_Accent2_Fill_v2" fill="#235B4E" fill-opacity="0.2" transform="matrix(1.00051 0 0 1 622.295 58.715)"/><path d="M417.233 573.251C418.041 573.855 418.856 574.447 419.675 575.031L607.075 387.631C606.491 386.812 605.898 385.998 605.294 385.189L417.233 573.251Z" class="MsftOfcThm_Accent2_Fill_v2" fill="#235B4E" fill-opacity="0.2" transform="matrix(1.00051 0 0 1 622.295 58.715)"/><path d="M411.724 568.905 600.607 380.022 598.495 377.911 409.441 566.965C410.197 567.622 410.958 568.267 411.724 568.905Z" class="MsftOfcThm_Accent2_Fill_v2" fill="#235B4E" fill-opacity="0.2" transform="matrix(1.00051 0 0 1 622.295 58.715)"/><path d="M402.17 560.16C402.287 560.278 402.4 560.399 402.517 560.516 403.106 561.104 403.703 561.678 404.299 562.253L593.548 373.004 591.437 370.893 402.17 560.16Z" class="MsftOfcThm_Accent2_Fill_v2" fill="#235B4E" fill-opacity="0.2" transform="matrix(1.00051 0 0 1 622.295 58.715)"/><path d="M397.386 555.088 586.489 365.985 584.378 363.873 395.411 552.841C396.058 553.597 396.72 554.344 397.386 555.088Z" class="MsftOfcThm_Accent2_Fill_v2" fill="#235B4E" fill-opacity="0.2" transform="matrix(1.00051 0 0 1 622.295 58.715)"/><path d="M389.177 544.998C389.771 545.806 390.378 546.607 390.993 547.405L579.431 358.967 579.308 358.844C578.556 358.266 577.802 357.693 577.042 357.134L389.177 544.998Z" class="MsftOfcThm_Accent2_Fill_v2" fill="#235B4E" fill-opacity="0.2" transform="matrix(1.00051 0 0 1 622.295 58.715)"/><path d="M383.485 536.613C384.024 537.475 384.576 538.331 385.136 539.184L571.228 353.092C570.376 352.532 569.519 351.98 568.657 351.441L383.485 536.613Z" class="MsftOfcThm_Accent2_Fill_v2" fill="#235B4E" fill-opacity="0.2" transform="matrix(1.00051 0 0 1 622.295 58.715)"/><path d="M379.841 530.403 562.446 347.796C561.536 347.293 560.62 346.8 559.7 346.32L378.364 527.657C378.844 528.577 379.338 529.492 379.841 530.403Z" class="MsftOfcThm_Accent2_Fill_v2" fill="#235B4E" fill-opacity="0.2" transform="matrix(1.00051 0 0 1 622.295 58.715)"/><path d="M375.139 521.027 553.07 343.095C552.096 342.653 551.118 342.224 550.136 341.807L373.85 518.093C374.268 519.075 374.698 520.053 375.139 521.027Z" class="MsftOfcThm_Accent2_Fill_v2" fill="#235B4E" fill-opacity="0.2" transform="matrix(1.00051 0 0 1 622.295 58.715)"/><path d="M371.077 511.012 543.055 339.034C542.012 338.659 540.966 338.298 539.916 337.95L369.993 507.872C370.342 508.923 370.703 509.969 371.077 511.012Z" class="MsftOfcThm_Accent2_Fill_v2" fill="#235B4E" fill-opacity="0.2" transform="matrix(1.00051 0 0 1 622.295 58.715)"/><path d="M367.722 500.29 532.333 335.677C531.213 335.378 530.088 335.096 528.962 334.826L366.87 496.918C367.14 498.045 367.423 499.169 367.722 500.29Z" class="MsftOfcThm_Accent2_Fill_v2" fill="#235B4E" fill-opacity="0.2" transform="matrix(1.00051 0 0 1 622.295 58.715)"/><path d="M365.181 488.752 520.796 333.138C519.587 332.926 518.375 332.728 517.161 332.549L364.594 485.118C364.772 486.332 364.97 487.543 365.181 488.752Z" class="MsftOfcThm_Accent2_Fill_v2" fill="#235B4E" fill-opacity="0.2" transform="matrix(1.00051 0 0 1 622.295 58.715)"/><path d="M363.596 476.261 508.305 331.552C506.985 331.447 505.665 331.356 504.345 331.289L363.333 472.301C363.4 473.623 363.49 474.942 363.596 476.261Z" class="MsftOfcThm_Accent2_Fill_v2" fill="#235B4E" fill-opacity="0.2" transform="matrix(1.00051 0 0 1 622.295 58.715)"/><path d="M363.193 462.588 494.631 331.15C493.166 331.181 491.701 331.241 490.238 331.32L363.363 458.194C363.284 459.658 363.224 461.122 363.193 462.588Z" class="MsftOfcThm_Accent2_Fill_v2" fill="#235B4E" fill-opacity="0.2" transform="matrix(1.00051 0 0 1 622.295 58.715)"/><path d="M364.396 447.306 479.35 332.352C477.682 332.579 476.016 332.835 474.356 333.124L365.168 442.312C364.878 443.972 364.623 445.638 364.396 447.306Z" class="MsftOfcThm_Accent2_Fill_v2" fill="#235B4E" fill-opacity="0.2" transform="matrix(1.00051 0 0 1 622.295 58.715)"/><path d="M368.023 429.603 461.646 335.98C459.619 336.539 457.604 337.146 455.601 337.802L369.845 423.558C369.189 425.561 368.583 427.576 368.023 429.603Z" class="MsftOfcThm_Accent2_Fill_v2" fill="#235B4E" fill-opacity="0.2" transform="matrix(1.00051 0 0 1 622.295 58.715)"/><path d="M376.507 407.041 439.085 344.464C436.037 345.935 433.034 347.528 430.082 349.244L381.287 398.039C379.571 400.991 377.979 403.993 376.507 407.041Z" class="MsftOfcThm_Accent2_Fill_v2" fill="#235B4E" fill-opacity="0.2" transform="matrix(1.00051 0 0 1 622.295 58.715)"/><path d="M199.734 260.952 199.734 260.952C239.093 221.593 302.907 221.593 342.266 260.952L342.266 260.952C381.625 300.312 381.625 364.125 342.266 403.484L342.266 403.484C302.907 442.843 239.093 442.843 199.734 403.484L199.734 403.484C160.375 364.125 160.375 300.311 199.734 260.952Z" class="MsftOfcThm_Accent2_Fill_v2" fill="#235B4E" fill-opacity="0.2" transform="matrix(1.00051 0 0 1 622.295 58.715)"/><path d="M403.96 508.172 403.96 508.172C373.347 477.56 373.347 427.927 403.96 397.315L403.96 397.315C434.572 366.702 484.205 366.702 514.818 397.315L514.818 397.315C545.43 427.927 545.43 477.56 514.818 508.172L514.818 508.172C484.205 538.785 434.572 538.785 403.96 508.172Z" class="MsftOfcThm_Accent2_Fill_v2" fill="#235B4E" fill-opacity="0.2" transform="matrix(1.00051 0 0 1 622.295 58.715)"/><path d="M376.988 627.108 375.541 627.108C363.572 627.108 353.868 617.404 353.868 605.435L353.868 603.988C353.868 592.018 363.572 582.315 375.541 582.315L376.988 582.315C388.958 582.315 398.661 592.018 398.661 603.988L398.661 605.435C398.661 617.404 388.958 627.108 376.988 627.108Z" class="MsftOfcThm_Accent2_Fill_v2" fill="#235B4E" fill-opacity="0.2" transform="matrix(1.00051 0 0 1 622.295 58.715)"/><path d="M227.887 402.768C227.887 407.406 224.126 411.166 219.488 411.166 214.849 411.166 211.089 407.406 211.089 402.768 211.089 398.129 214.849 394.369 219.488 394.369 224.126 394.369 227.887 398.129 227.887 402.768Z" class="MsftOfcThm_Accent2_Fill_v2" fill="#235B4E" fill-opacity="0.2" transform="matrix(1.00051 0 0 1 622.295 58.715)"/><path d="M227.887 360.774C227.887 365.412 224.126 369.172 219.488 369.172 214.849 369.172 211.089 365.412 211.089 360.774 211.089 356.135 214.849 352.375 219.488 352.375 224.126 352.375 227.887 356.135 227.887 360.774Z" class="MsftOfcThm_Accent2_Fill_v2" fill="#235B4E" fill-opacity="0.2" transform="matrix(1.00051 0 0 1 622.295 58.715)"/><path d="M195.28 365.066C195.28 369.705 191.52 373.465 186.881 373.465 182.243 373.465 178.482 369.705 178.482 365.066 178.482 360.428 182.243 356.668 186.881 356.668 191.52 356.668 195.28 360.428 195.28 365.066Z" class="MsftOfcThm_Accent2_Fill_v2" fill="#235B4E" fill-opacity="0.2" transform="matrix(1.00051 0 0 1 622.295 58.715)"/><path d="M164.896 377.652C164.896 382.29 161.136 386.051 156.497 386.051 151.859 386.051 148.098 382.29 148.098 377.652 148.098 373.013 151.859 369.253 156.497 369.253 161.136 369.253 164.896 373.013 164.896 377.652Z" class="MsftOfcThm_Accent2_Fill_v2" fill="#235B4E" fill-opacity="0.2" transform="matrix(1.00051 0 0 1 622.295 58.715)"/><path d="M138.804 397.673C138.804 402.312 135.044 406.072 130.406 406.072 125.767 406.072 122.007 402.312 122.007 397.673 122.007 393.035 125.767 389.274 130.406 389.274 135.044 389.274 138.804 393.035 138.804 397.673Z" class="MsftOfcThm_Accent2_Fill_v2" fill="#235B4E" fill-opacity="0.2" transform="matrix(1.00051 0 0 1 622.295 58.715)"/><path d="M118.783 423.764C118.783 428.403 115.023 432.163 110.384 432.163 105.746 432.163 101.986 428.403 101.986 423.764 101.986 419.126 105.746 415.366 110.384 415.366 115.023 415.366 118.783 419.126 118.783 423.764Z" class="MsftOfcThm_Accent2_Fill_v2" fill="#235B4E" fill-opacity="0.2" transform="matrix(1.00051 0 0 1 622.295 58.715)"/><path d="M106.198 454.149C106.198 458.787 102.437 462.547 97.799 462.547 93.1605 462.547 89.4002 458.787 89.4002 454.149 89.4002 449.51 93.1605 445.75 97.799 445.75 102.437 445.75 106.198 449.51 106.198 454.149Z" class="MsftOfcThm_Accent2_Fill_v2" fill="#235B4E" fill-opacity="0.2" transform="matrix(1.00051 0 0 1 622.295 58.715)"/><path d="M101.905 486.755C101.905 491.394 98.1448 495.154 93.5063 495.154 88.8678 495.154 85.1075 491.394 85.1075 486.755 85.1075 482.117 88.8678 478.356 93.5063 478.356 98.1448 478.356 101.905 482.117 101.905 486.755Z" class="MsftOfcThm_Accent2_Fill_v2" fill="#235B4E" fill-opacity="0.2" transform="matrix(1.00051 0 0 1 622.295 58.715)"/><path d="M106.198 519.362C106.198 524 102.437 527.761 97.799 527.761 93.1605 527.761 89.4002 524 89.4002 519.362 89.4002 514.723 93.1605 510.963 97.799 510.963 102.437 510.963 106.198 514.723 106.198 519.362Z" class="MsftOfcThm_Accent2_Fill_v2" fill="#235B4E" fill-opacity="0.2" transform="matrix(1.00051 0 0 1 622.295 58.715)"/><path d="M118.783 549.746C118.783 554.384 115.023 558.145 110.384 558.145 105.746 558.145 101.986 554.384 101.986 549.746 101.986 545.107 105.746 541.347 110.384 541.347 115.023 541.347 118.783 545.107 118.783 549.746Z" class="MsftOfcThm_Accent2_Fill_v2" fill="#235B4E" fill-opacity="0.2" transform="matrix(1.00051 0 0 1 622.295 58.715)"/><path d="M138.804 575.837C138.804 580.476 135.044 584.236 130.406 584.236 125.767 584.236 122.007 580.476 122.007 575.837 122.007 571.199 125.767 567.439 130.406 567.439 135.044 567.439 138.804 571.199 138.804 575.837Z" class="MsftOfcThm_Accent2_Fill_v2" fill="#235B4E" fill-opacity="0.2" transform="matrix(1.00051 0 0 1 622.295 58.715)"/><path d="M164.896 595.859C164.896 600.497 161.136 604.257 156.497 604.257 151.859 604.257 148.098 600.497 148.098 595.859 148.098 591.22 151.859 587.46 156.497 587.46 161.136 587.46 164.896 591.22 164.896 595.859Z" class="MsftOfcThm_Accent2_Fill_v2" fill="#235B4E" fill-opacity="0.2" transform="matrix(1.00051 0 0 1 622.295 58.715)"/><path d="M195.28 608.444C195.28 613.083 191.52 616.843 186.881 616.843 182.243 616.843 178.482 613.083 178.482 608.444 178.482 603.805 182.243 600.045 186.881 600.045 191.52 600.045 195.28 603.805 195.28 608.444Z" class="MsftOfcThm_Accent2_Fill_v2" fill="#235B4E" fill-opacity="0.2" transform="matrix(1.00051 0 0 1 622.295 58.715)"/><path d="M227.887 612.737C227.887 617.375 224.126 621.135 219.488 621.135 214.849 621.135 211.089 617.375 211.089 612.737 211.089 608.098 214.849 604.338 219.488 604.338 224.126 604.338 227.887 608.098 227.887 612.737Z" class="MsftOfcThm_Accent2_Fill_v2" fill="#235B4E" fill-opacity="0.2" transform="matrix(1.00051 0 0 1 622.295 58.715)"/><path d="M260.493 608.444C260.493 613.083 256.733 616.843 252.094 616.843 247.456 616.843 243.696 613.083 243.696 608.444 243.696 603.805 247.456 600.045 252.094 600.045 256.733 600.045 260.493 603.805 260.493 608.444Z" class="MsftOfcThm_Accent2_Fill_v2" fill="#235B4E" fill-opacity="0.2" transform="matrix(1.00051 0 0 1 622.295 58.715)"/><path d="M290.877 595.859C290.877 600.497 287.117 604.257 282.479 604.257 277.84 604.257 274.08 600.497 274.08 595.859 274.08 591.22 277.84 587.46 282.479 587.46 287.117 587.46 290.877 591.22 290.877 595.859Z" class="MsftOfcThm_Accent2_Fill_v2" fill="#235B4E" fill-opacity="0.2" transform="matrix(1.00051 0 0 1 622.295 58.715)"/><path d="M316.969 575.837C316.969 580.476 313.208 584.236 308.57 584.236 303.931 584.236 300.171 580.476 300.171 575.837 300.171 571.199 303.931 567.439 308.57 567.439 313.208 567.439 316.969 571.199 316.969 575.837Z" class="MsftOfcThm_Accent2_Fill_v2" fill="#235B4E" fill-opacity="0.2" transform="matrix(1.00051 0 0 1 622.295 58.715)"/><path d="M336.99 549.746C336.99 554.384 333.23 558.145 328.591 558.145 323.953 558.145 320.192 554.384 320.192 549.746 320.192 545.107 323.953 541.347 328.591 541.347 333.23 541.347 336.99 545.107 336.99 549.746Z" class="MsftOfcThm_Accent2_Fill_v2" fill="#235B4E" fill-opacity="0.2" transform="matrix(1.00051 0 0 1 622.295 58.715)"/><path d="M349.575 519.362C349.575 524 345.815 527.761 341.177 527.761 336.538 527.761 332.778 524 332.778 519.362 332.778 514.723 336.538 510.963 341.177 510.963 345.815 510.963 349.575 514.723 349.575 519.362Z" class="MsftOfcThm_Accent2_Fill_v2" fill="#235B4E" fill-opacity="0.2" transform="matrix(1.00051 0 0 1 622.295 58.715)"/><path d="M353.868 486.755C353.868 491.394 350.108 495.154 345.469 495.154 340.831 495.154 337.071 491.394 337.071 486.755 337.071 482.117 340.831 478.356 345.469 478.356 350.108 478.356 353.868 482.117 353.868 486.755Z" class="MsftOfcThm_Accent2_Fill_v2" fill="#235B4E" fill-opacity="0.2" transform="matrix(1.00051 0 0 1 622.295 58.715)"/><path d="M349.575 454.149C349.575 458.787 345.815 462.547 341.177 462.547 336.538 462.547 332.778 458.787 332.778 454.149 332.778 449.51 336.538 445.75 341.177 445.75 345.815 445.75 349.575 449.51 349.575 454.149Z" class="MsftOfcThm_Accent2_Fill_v2" fill="#235B4E" fill-opacity="0.2" transform="matrix(1.00051 0 0 1 622.295 58.715)"/><path d="M336.99 423.764C336.99 428.403 333.23 432.163 328.591 432.163 323.953 432.163 320.192 428.403 320.192 423.764 320.192 419.126 323.953 415.366 328.591 415.366 333.23 415.366 336.99 419.126 336.99 423.764Z" class="MsftOfcThm_Accent2_Fill_v2" fill="#235B4E" fill-opacity="0.2" transform="matrix(1.00051 0 0 1 622.295 58.715)"/><path d="M316.969 397.673C316.969 402.312 313.208 406.072 308.57 406.072 303.931 406.072 300.171 402.312 300.171 397.673 300.171 393.035 303.931 389.274 308.57 389.274 313.208 389.274 316.969 393.035 316.969 397.673Z" class="MsftOfcThm_Accent2_Fill_v2" fill="#235B4E" fill-opacity="0.2" transform="matrix(1.00051 0 0 1 622.295 58.715)"/><path d="M290.877 377.652C290.877 382.29 287.117 386.051 282.479 386.051 277.84 386.051 274.08 382.29 274.08 377.652 274.08 373.013 277.84 369.253 282.479 369.253 287.117 369.253 290.877 373.013 290.877 377.652Z" class="MsftOfcThm_Accent2_Fill_v2" fill="#235B4E" fill-opacity="0.2" transform="matrix(1.00051 0 0 1 622.295 58.715)"/><path d="M260.493 365.066C260.493 369.705 256.733 373.465 252.094 373.465 247.456 373.465 243.696 369.705 243.696 365.066 243.696 360.428 247.456 356.668 252.094 356.668 256.733 356.668 260.493 360.428 260.493 365.066Z" class="MsftOfcThm_Accent2_Fill_v2" fill="#235B4E" fill-opacity="0.2" transform="matrix(1.00051 0 0 1 622.295 58.715)"/><path d="M185.893 414.02C185.893 418.658 182.132 422.418 177.494 422.418 172.855 422.418 169.095 418.658 169.095 414.02 169.095 409.381 172.855 405.621 177.494 405.621 182.132 405.621 185.893 409.381 185.893 414.02Z" class="MsftOfcThm_Accent2_Fill_v2" fill="#235B4E" fill-opacity="0.2" transform="matrix(1.00051 0 0 1 622.295 58.715)"/><path d="M155.151 444.761C155.151 449.4 151.391 453.16 146.752 453.16 142.114 453.16 138.353 449.4 138.353 444.761 138.353 440.123 142.114 436.363 146.752 436.363 151.391 436.363 155.151 440.123 155.151 444.761Z" class="MsftOfcThm_Accent2_Fill_v2" fill="#235B4E" fill-opacity="0.2" transform="matrix(1.00051 0 0 1 622.295 58.715)"/><path d="M143.899 486.755C143.899 491.394 140.139 495.154 135.5 495.154 130.862 495.154 127.101 491.394 127.101 486.755 127.101 482.117 130.862 478.356 135.5 478.356 140.139 478.356 143.899 482.117 143.899 486.755Z" class="MsftOfcThm_Accent2_Fill_v2" fill="#235B4E" fill-opacity="0.2" transform="matrix(1.00051 0 0 1 622.295 58.715)"/><path d="M155.151 528.749C155.151 533.388 151.391 537.148 146.752 537.148 142.114 537.148 138.353 533.388 138.353 528.749 138.353 524.111 142.114 520.35 146.752 520.35 151.391 520.35 155.151 524.111 155.151 528.749Z" class="MsftOfcThm_Accent2_Fill_v2" fill="#235B4E" fill-opacity="0.2" transform="matrix(1.00051 0 0 1 622.295 58.715)"/><path d="M185.893 559.491C185.893 564.129 182.132 567.89 177.494 567.89 172.855 567.89 169.095 564.129 169.095 559.491 169.095 554.852 172.855 551.092 177.494 551.092 182.132 551.092 185.893 554.852 185.893 559.491Z" class="MsftOfcThm_Accent2_Fill_v2" fill="#235B4E" fill-opacity="0.2" transform="matrix(1.00051 0 0 1 622.295 58.715)"/><path d="M227.887 570.743C227.887 575.381 224.126 579.142 219.488 579.142 214.849 579.142 211.089 575.381 211.089 570.743 211.089 566.104 214.849 562.344 219.488 562.344 224.126 562.344 227.887 566.104 227.887 570.743Z" class="MsftOfcThm_Accent2_Fill_v2" fill="#235B4E" fill-opacity="0.2" transform="matrix(1.00051 0 0 1 622.295 58.715)"/><path d="M269.88 559.491C269.88 564.129 266.12 567.89 261.482 567.89 256.843 567.89 253.083 564.129 253.083 559.491 253.083 554.852 256.843 551.092 261.482 551.092 266.12 551.092 269.88 554.852 269.88 559.491Z" class="MsftOfcThm_Accent2_Fill_v2" fill="#235B4E" fill-opacity="0.2" transform="matrix(1.00051 0 0 1 622.295 58.715)"/><path d="M300.622 528.749C300.622 533.388 296.862 537.148 292.223 537.148 287.585 537.148 283.825 533.388 283.825 528.749 283.825 524.111 287.585 520.35 292.223 520.35 296.862 520.35 300.622 524.111 300.622 528.749Z" class="MsftOfcThm_Accent2_Fill_v2" fill="#235B4E" fill-opacity="0.2" transform="matrix(1.00051 0 0 1 622.295 58.715)"/><path d="M311.874 486.755C311.874 491.394 308.114 495.154 303.475 495.154 298.837 495.154 295.077 491.394 295.077 486.755 295.077 482.117 298.837 478.356 303.475 478.356 308.114 478.356 311.874 482.117 311.874 486.755Z" class="MsftOfcThm_Accent2_Fill_v2" fill="#235B4E" fill-opacity="0.2" transform="matrix(1.00051 0 0 1 622.295 58.715)"/><path d="M300.622 444.761C300.622 449.4 296.862 453.16 292.223 453.16 287.585 453.16 283.825 449.4 283.825 444.761 283.825 440.123 287.585 436.363 292.223 436.363 296.862 436.363 300.622 440.123 300.622 444.761Z" class="MsftOfcThm_Accent2_Fill_v2" fill="#235B4E" fill-opacity="0.2" transform="matrix(1.00051 0 0 1 622.295 58.715)"/><path d="M269.88 414.02C269.88 418.658 266.12 422.418 261.482 422.418 256.843 422.418 253.083 418.658 253.083 414.02 253.083 409.381 256.843 405.621 261.482 405.621 266.12 405.621 269.88 409.381 269.88 414.02Z" class="MsftOfcThm_Accent2_Fill_v2" fill="#235B4E" fill-opacity="0.2" transform="matrix(1.00051 0 0 1 622.295 58.715)"/><path d="M227.887 444.761C227.887 449.4 224.126 453.16 219.488 453.16 214.849 453.16 211.089 449.4 211.089 444.761 211.089 440.123 214.849 436.363 219.488 436.363 224.126 436.363 227.887 440.123 227.887 444.761Z" class="MsftOfcThm_Accent2_Fill_v2" fill="#235B4E" fill-opacity="0.2" transform="matrix(1.00051 0 0 1 622.295 58.715)"/><path d="M191.519 465.758C191.519 470.397 187.759 474.157 183.12 474.157 178.481 474.157 174.721 470.397 174.721 465.758 174.721 461.12 178.481 457.36 183.12 457.36 187.759 457.36 191.519 461.12 191.519 465.758Z" class="MsftOfcThm_Accent2_Fill_v2" fill="#235B4E" fill-opacity="0.2" transform="matrix(1.00051 0 0 1 622.295 58.715)"/><path d="M191.519 507.752C191.519 512.391 187.759 516.151 183.12 516.151 178.481 516.151 174.721 512.391 174.721 507.752 174.721 503.114 178.481 499.353 183.12 499.353 187.759 499.353 191.519 503.114 191.519 507.752Z" class="MsftOfcThm_Accent2_Fill_v2" fill="#235B4E" fill-opacity="0.2" transform="matrix(1.00051 0 0 1 622.295 58.715)"/><path d="M227.887 528.749C227.887 533.388 224.126 537.148 219.488 537.148 214.849 537.148 211.089 533.388 211.089 528.749 211.089 524.111 214.849 520.35 219.488 520.35 224.126 520.35 227.887 524.111 227.887 528.749Z" class="MsftOfcThm_Accent2_Fill_v2" fill="#235B4E" fill-opacity="0.2" transform="matrix(1.00051 0 0 1 622.295 58.715)"/><path d="M264.254 507.752C264.254 512.391 260.494 516.151 255.856 516.151 251.217 516.151 247.457 512.391 247.457 507.752 247.457 503.114 251.217 499.353 255.856 499.353 260.494 499.353 264.254 503.114 264.254 507.752Z" class="MsftOfcThm_Accent2_Fill_v2" fill="#235B4E" fill-opacity="0.2" transform="matrix(1.00051 0 0 1 622.295 58.715)"/><path d="M227.885 486.754C227.885 491.392 224.125 495.152 219.486 495.152 214.848 495.152 211.088 491.392 211.088 486.754 211.088 482.115 214.848 478.355 219.486 478.355 224.125 478.355 227.885 482.115 227.885 486.754Z" class="MsftOfcThm_Accent2_Fill_v2" fill="#235B4E" fill-opacity="0.2" transform="matrix(1.00051 0 0 1 622.295 58.715)"/><path d="M264.254 465.758C264.254 470.397 260.494 474.157 255.856 474.157 251.217 474.157 247.457 470.397 247.457 465.758 247.457 461.12 251.217 457.36 255.856 457.36 260.494 457.36 264.254 461.12 264.254 465.758Z" class="MsftOfcThm_Accent2_Fill_v2" fill="#235B4E" fill-opacity="0.2" transform="matrix(1.00051 0 0 1 622.295 58.715)"/><path d="M347.896 359.094C273.386 359.094 212.769 298.477 212.769 223.967 212.769 149.458 273.386 88.8403 347.896 88.8403 422.405 88.8403 483.022 149.458 483.022 223.967 483.022 298.477 422.405 359.094 347.896 359.094ZM347.896 90.3334C274.21 90.3334 214.262 150.281 214.262 223.967 214.262 297.653 274.21 357.601 347.896 357.601 421.582 357.601 481.529 297.653 481.529 223.967 481.529 150.281 421.582 90.3334 347.896 90.3334Z" class="MsftOfcThm_Accent2_Fill_v2" fill="#235B4E" fill-opacity="0.2" transform="matrix(1.00051 0 0 1 622.295 58.715)"/><path d="M347.896 349.791C278.516 349.791 222.072 293.347 222.072 223.967 222.072 154.587 278.516 98.1431 347.896 98.1431 417.275 98.1431 473.719 154.587 473.719 223.967 473.719 293.347 417.275 349.791 347.896 349.791ZM347.896 99.6363C279.339 99.6363 223.565 155.411 223.565 223.967 223.565 292.523 279.339 348.298 347.896 348.298 416.451 348.298 472.226 292.523 472.226 223.967 472.226 155.411 416.451 99.6363 347.896 99.6363Z" class="MsftOfcThm_Accent2_Fill_v2" fill="#235B4E" fill-opacity="0.2" transform="matrix(1.00051 0 0 1 622.295 58.715)"/><path d="M347.896 340.487C283.646 340.487 231.375 288.217 231.375 223.967 231.375 159.718 283.646 107.447 347.896 107.447 412.146 107.447 464.416 159.718 464.416 223.967 464.416 288.217 412.146 340.487 347.896 340.487ZM347.896 108.94C284.47 108.94 232.868 160.541 232.868 223.967 232.868 287.393 284.47 338.994 347.896 338.994 411.322 338.994 462.923 287.393 462.923 223.967 462.923 160.541 411.322 108.94 347.896 108.94Z" class="MsftOfcThm_Accent2_Fill_v2" fill="#235B4E" fill-opacity="0.2" transform="matrix(1.00051 0 0 1 622.295 58.715)"/><path d="M347.896 331.184C288.776 331.184 240.679 283.086 240.679 223.967 240.679 164.848 288.776 116.75 347.896 116.75 407.015 116.75 455.112 164.848 455.112 223.967 455.112 283.086 407.015 331.184 347.896 331.184ZM347.896 118.243C289.599 118.243 242.172 165.671 242.172 223.967 242.172 282.264 289.599 329.691 347.896 329.691 406.192 329.691 453.619 282.264 453.619 223.967 453.619 165.671 406.192 118.243 347.896 118.243Z" class="MsftOfcThm_Accent2_Fill_v2" fill="#235B4E" fill-opacity="0.2" transform="matrix(1.00051 0 0 1 622.295 58.715)"/><path d="M347.896 321.881C293.906 321.881 249.982 277.957 249.982 223.967 249.982 169.977 293.906 126.053 347.896 126.053 401.885 126.053 445.81 169.978 445.81 223.967 445.81 277.957 401.885 321.881 347.896 321.881ZM347.896 127.546C294.729 127.546 251.475 170.8 251.475 223.967 251.475 277.134 294.729 320.388 347.896 320.388 401.062 320.388 444.316 277.134 444.316 223.967 444.316 170.8 401.062 127.546 347.896 127.546Z" class="MsftOfcThm_Accent2_Fill_v2" fill="#235B4E" fill-opacity="0.2" transform="matrix(1.00051 0 0 1 622.295 58.715)"/><path d="M347.896 312.577C299.036 312.577 259.285 272.827 259.285 223.967 259.285 175.107 299.036 135.357 347.896 135.357 396.756 135.357 436.506 175.107 436.506 223.967 436.506 272.827 396.756 312.577 347.896 312.577ZM347.896 136.85C299.859 136.85 260.778 175.931 260.778 223.967 260.778 272.004 299.859 311.084 347.896 311.084 395.933 311.084 435.013 272.004 435.013 223.967 435.013 175.931 395.933 136.85 347.896 136.85Z" class="MsftOfcThm_Accent2_Fill_v2" fill="#235B4E" fill-opacity="0.2" transform="matrix(1.00051 0 0 1 622.295 58.715)"/><path d="M347.896 303.275C304.165 303.275 268.588 267.697 268.588 223.967 268.588 180.237 304.165 144.66 347.896 144.66 391.625 144.66 427.202 180.237 427.202 223.967 427.202 267.697 391.625 303.275 347.896 303.275ZM347.896 146.153C304.989 146.153 270.081 181.06 270.081 223.967 270.081 266.874 304.989 301.781 347.896 301.781 390.802 301.781 425.709 266.874 425.709 223.967 425.709 181.06 390.802 146.153 347.896 146.153Z" class="MsftOfcThm_Accent2_Fill_v2" fill="#235B4E" fill-opacity="0.2" transform="matrix(1.00051 0 0 1 622.295 58.715)"/><path d="M347.896 293.971C309.295 293.971 277.892 262.568 277.892 223.967 277.892 185.366 309.295 153.963 347.896 153.963 386.496 153.963 417.9 185.366 417.9 223.967 417.9 262.568 386.496 293.971 347.896 293.971ZM347.896 155.456C310.118 155.456 279.385 186.19 279.385 223.967 279.385 261.744 310.118 292.478 347.896 292.478 385.673 292.478 416.407 261.744 416.407 223.967 416.407 186.19 385.673 155.456 347.896 155.456Z" class="MsftOfcThm_Accent2_Fill_v2" fill="#235B4E" fill-opacity="0.2" transform="matrix(1.00051 0 0 1 622.295 58.715)"/><path d="M347.896 284.668C314.425 284.668 287.195 257.438 287.195 223.967 287.195 190.497 314.425 163.266 347.896 163.266 381.366 163.266 408.597 190.497 408.597 223.967 408.597 257.438 381.366 284.668 347.896 284.668ZM347.896 164.759C315.249 164.759 288.688 191.319 288.688 223.967 288.688 256.615 315.249 283.175 347.896 283.175 380.543 283.175 407.104 256.614 407.104 223.967 407.104 191.32 380.543 164.759 347.896 164.759Z" class="MsftOfcThm_Accent2_Fill_v2" fill="#235B4E" fill-opacity="0.2" transform="matrix(1.00051 0 0 1 622.295 58.715)"/><path d="M347.896 275.365C319.555 275.365 296.498 252.308 296.498 223.967 296.498 195.626 319.555 172.57 347.896 172.57 376.236 172.57 399.293 195.626 399.293 223.967 399.293 252.308 376.236 275.365 347.896 275.365ZM347.896 174.063C320.378 174.063 297.991 196.45 297.991 223.967 297.991 251.484 320.378 273.871 347.896 273.871 375.412 273.871 397.8 251.484 397.8 223.967 397.8 196.45 375.412 174.063 347.896 174.063Z" class="MsftOfcThm_Accent2_Fill_v2" fill="#235B4E" fill-opacity="0.2" transform="matrix(1.00051 0 0 1 622.295 58.715)"/><path d="M347.896 266.062C324.684 266.062 305.801 247.178 305.801 223.967 305.801 200.756 324.684 181.872 347.896 181.872 371.107 181.872 389.99 200.756 389.99 223.967 389.99 247.178 371.107 266.062 347.896 266.062ZM347.896 183.366C325.508 183.366 307.294 201.579 307.294 223.967 307.294 246.355 325.508 264.569 347.896 264.569 370.283 264.569 388.497 246.355 388.497 223.967 388.497 201.579 370.283 183.366 347.896 183.366Z" class="MsftOfcThm_Accent2_Fill_v2" fill="#235B4E" fill-opacity="0.2" transform="matrix(1.00051 0 0 1 622.295 58.715)"/><path d="M347.896 256.758C329.815 256.758 315.105 242.048 315.105 223.967 315.105 205.886 329.815 191.176 347.896 191.176 365.976 191.176 380.687 205.886 380.687 223.967 380.687 242.048 365.976 256.758 347.896 256.758ZM347.896 192.669C330.638 192.669 316.598 206.71 316.598 223.967 316.598 241.225 330.638 255.265 347.896 255.265 365.153 255.265 379.194 241.225 379.194 223.967 379.194 206.71 365.153 192.669 347.896 192.669Z" class="MsftOfcThm_Accent2_Fill_v2" fill="#235B4E" fill-opacity="0.2" transform="matrix(1.00051 0 0 1 622.295 58.715)"/><path d="M347.896 247.455C334.944 247.455 324.408 236.918 324.408 223.967 324.408 211.017 334.945 200.48 347.896 200.48 360.848 200.48 371.384 211.017 371.384 223.967 371.384 236.918 360.848 247.455 347.896 247.455ZM347.896 201.973C335.768 201.973 325.901 211.839 325.901 223.967 325.901 236.095 335.768 245.961 347.896 245.961 360.023 245.961 369.891 236.095 369.891 223.967 369.891 211.839 360.023 201.973 347.896 201.973Z" class="MsftOfcThm_Accent2_Fill_v2" fill="#235B4E" fill-opacity="0.2" transform="matrix(1.00051 0 0 1 622.295 58.715)"/><path d="M347.896 238.152C340.074 238.152 333.711 231.789 333.711 223.967 333.711 216.145 340.074 209.783 347.896 209.783 355.717 209.783 362.08 216.145 362.08 223.967 362.08 231.789 355.717 238.152 347.896 238.152ZM347.896 211.276C340.897 211.276 335.204 216.969 335.204 223.967 335.204 230.965 340.897 236.659 347.896 236.659 354.894 236.659 360.587 230.965 360.587 223.967 360.587 216.969 354.894 211.276 347.896 211.276Z" class="MsftOfcThm_Accent2_Fill_v2" fill="#235B4E" fill-opacity="0.2" transform="matrix(1.00051 0 0 1 622.295 58.715)"/><path d="M472.917 292.65 472.223 292.65C441.492 292.65 416.579 267.737 416.579 237.005L416.579 236.311C416.579 205.58 441.492 180.667 472.224 180.667L472.918 180.667C503.649 180.667 528.562 205.58 528.562 236.312L528.562 237.006C528.562 267.737 503.649 292.65 472.917 292.65Z" class="MsftOfcThm_Accent2_Fill_v2" fill="#235B4E" fill-opacity="0.2" transform="matrix(1.00051 0 0 1 622.295 58.715)"/></g></svg>