<svg viewBox="0 0 96 96" xmlns="http://www.w3.org/2000/svg" xmlns:xlink="http://www.w3.org/1999/xlink" id="Icons_DiplomaRoll_M" overflow="hidden"><style>
.MsftOfcThm_Accent6_lumMod_60_lumOff_40_Fill_v2 {
 fill:#FB786D; 
}
</style>
<g id="Icons"><path d="M85.1641 49.0425C87.5659 49.0425 89 46.5234 89 42.3042 89 35.7461 85.397 26.0425 77.6641 26.0425L62.2611 26.0425C61.6011 25.5985 60.8389 25.3296 60.0464 25.2612 59.4953 24.2674 58.6097 23.5011 57.5469 23.0986 56.5888 22.7244 55.5376 22.6601 54.541 22.9146 53.72 22.3211 52.733 22.0011 51.72 22 50.5842 21.9987 49.482 22.3855 48.596 23.0962 46.4503 22.4895 44.1648 23.4008 43.0252 25.3174 42.3742 25.4345 41.7533 25.6811 41.1993 26.0425L17.6641 26.0425C12.0566 26.0425 7.6641 33.0703 7.6641 42.0425 7.6641 50.9777 12.0215 57.9796 17.5958 58.0371L41.1641 58.0425 41.1641 74.0425 51.1641 66.2925 61.1641 74.0425 61.1641 58.0425 84.6641 58.0425C85.2164 58.0425 85.6641 57.5948 85.6641 57.0425 85.6641 56.4902 85.2164 56.0425 84.6641 56.0425 81.2158 56.171 78.3114 53.49 78.1641 50.0425L78.1641 49.0425ZM44.3641 27.2114 44.6041 26.6284C44.8931 25.9608 45.4291 25.4308 46.1 25.1494 46.8488 24.8235 47.7 24.8269 48.4462 25.1587L49.0893 25.4297 49.5653 24.9197C50.6782 23.7583 52.5157 23.7008 53.6991 24.7903L54.164 25.1888 54.7304 24.9559C55.4054 24.6915 56.156 24.6951 56.8285 24.9659 57.5856 25.2427 58.1831 25.8379 58.4628 26.5939L58.7162 27.2819 59.4491 27.2472C60.2658 27.189 61.066 27.4975 61.6322 28.089 62.1428 28.604 62.4432 29.2907 62.475 30.0152L62.5102 30.6442 63.0927 30.8842C63.7602 31.1732 64.2902 31.7091 64.5717 32.3798 64.8974 33.1287 64.8938 33.9799 64.5617 34.726L64.2917 35.3686 64.8017 35.8446C65.3961 36.4028 65.7292 37.1846 65.72 38 65.7198 38.7235 65.4463 39.4202 64.9544 39.9507L64.5218 40.4194 64.7644 41.0094C65.0283 41.6845 65.0247 42.4349 64.7544 43.1075 64.4783 43.8646 63.8833 44.462 63.1274 44.7413L62.439 44.9947 62.4736 45.7271C62.5269 46.5435 62.219 47.342 61.6313 47.9112 61.1152 48.4196 60.4296 48.7195 59.706 48.7535L59.0766 48.7882 58.8366 49.3712C58.5477 50.0388 58.0118 50.5688 57.341 50.8502 56.5923 51.1763 55.7409 51.173 54.9948 50.8409L54.3518 50.5699 53.8757 51.0799C52.7627 52.2415 50.9249 52.299 49.7414 51.2093L49.2766 50.8108 48.7101 51.0437C48.035 51.3081 47.2845 51.3045 46.612 51.0337 45.855 50.7569 45.2577 50.1617 44.9782 49.4057L44.7248 48.7178 43.9919 48.7524C43.1757 48.807 42.377 48.499 41.8088 47.9106 41.2982 47.3956 40.9978 46.7089 40.966 45.9844L40.9309 45.355 40.3483 45.115C39.6808 44.8259 39.1509 44.2901 38.8693 43.6194 38.5432 42.8708 38.5465 42.0197 38.8786 41.2737L39.1496 40.6306 38.6396 40.1546C38.045 39.5968 37.7115 38.8153 37.72 38 37.7329 37.2662 38.0141 36.5625 38.5105 36.022L38.909 35.5566 38.6761 34.9902C38.4122 34.3151 38.4158 33.5647 38.6861 32.8921 38.9622 32.135 39.5572 31.5376 40.3131 31.2583L41.0016 31.0049 40.9669 30.2725C40.9136 29.4561 41.2216 28.6576 41.8092 28.0884 42.3253 27.58 43.0109 27.2801 43.7345 27.2461ZM39.4226 28.0425C39.1787 28.5553 39.0293 29.1079 38.9817 29.6738 37.9878 30.2249 37.2216 31.1108 36.8196 32.1738 36.4457 33.1316 36.3813 34.1825 36.6356 35.1787 36.0418 35.9997 35.7215 36.9868 35.72 38 35.7187 39.136 36.1055 40.2383 36.8162 41.1245 36.4973 42.2208 36.5779 43.3946 37.0437 44.437 37.4532 45.3814 38.1513 46.1718 39.0379 46.6948 39.0586 46.8135 39.097 46.9263 39.126 47.0425L25.3 47.0425C26.5326 45.2862 27.1845 43.1881 27.1642 41.0425 27.1642 35.2015 25.4483 30.5396 22.6728 28.0425ZM17.6644 56.0425C13.3279 56.0425 9.6644 49.6313 9.6644 42.0425 9.6644 34.4537 13.3279 28.0425 17.6644 28.0425 22.0804 28.0425 25.1644 33.3882 25.1644 41.041 25.1634 41.2861 25.1004 47.0425 21.1644 47.0425 18.9959 47.0425 17.1644 44.0659 17.1644 40.5425 17.1629 39.8151 17.2411 39.0897 17.3978 38.3794 17.5181 37.8403 17.1786 37.3058 16.6395 37.1855 16.1004 37.0652 15.5659 37.4047 15.4456 37.9438 15.2572 38.7972 15.1629 39.6686 15.1644 40.5425 15.1644 45.3091 17.8001 49.0425 21.1644 49.0425L40.1529 49.0425C40.2337 49.1369 40.3067 49.2374 40.395 49.3257 40.6304 49.5579 40.888 49.7665 41.1641 49.9483L41.1641 56.0425ZM52.3895 64.7119 51.1644 63.7619 49.9393 64.7119 43.1644 69.9619 43.1644 50.6987C43.2421 50.7087 43.3159 50.732 43.3944 50.7387 43.9454 51.7327 44.8311 52.499 45.8939 52.9013 46.8519 53.2752 47.9029 53.3396 48.8993 53.0853 49.7202 53.6788 50.7071 53.9988 51.72 54 52.856 54.0013 53.9583 53.6145 54.8445 52.9038 55.9407 53.2232 57.1147 53.1427 58.157 52.6768 58.515 52.5133 58.8529 52.3089 59.1639 52.0676L59.1639 69.9623ZM79.0609 56.0425 61.1641 56.0425 61.1641 50.49C61.8725 50.2514 62.5164 49.8529 63.0459 49.3253 63.1353 49.2359 63.2043 49.1358 63.2859 49.0421L76.1641 49.0421 76.1641 50.0421C76.1817 52.3752 77.2448 54.5774 79.0606 56.0425ZM64.3349 47.0425C64.3945 46.8072 64.4363 46.5678 64.4598 46.3262 65.4537 45.775 66.2198 44.8891 66.6219 43.8262 66.9943 42.873 67.0598 41.8273 66.8094 40.835 67.4024 40.0087 67.7209 39.0171 67.72 38 67.7214 36.8641 67.3349 35.7617 66.6243 34.8755 67.2305 32.7299 66.319 30.4449 64.4026 29.3055 64.3231 28.8683 64.1855 28.4436 63.9935 28.0428L77.6635 28.0428C83.7559 28.0425 87 36.3252 87 42.3042 87 45.0942 86.2451 47.0425 85.1641 47.0425Z" class="MsftOfcThm_Accent6_lumMod_60_lumOff_40_Fill_v2" fill="#FB786D"/><path d="M51.5005 47.7744C56.8988 47.7744 61.2749 43.3983 61.2749 38 61.2749 32.6017 56.8988 28.2256 51.5005 28.2256 46.1022 28.2256 41.7261 32.6017 41.7261 38 41.7322 43.3957 46.1048 47.7683 51.5005 47.7744ZM51.5005 30.2256C55.7942 30.2256 59.2749 33.7063 59.2749 38 59.2749 42.2937 55.7942 45.7744 51.5005 45.7744 47.2068 45.7744 43.7261 42.2937 43.7261 38 43.7311 33.7084 47.2089 30.2306 51.5005 30.2256Z" class="MsftOfcThm_Accent6_lumMod_60_lumOff_40_Fill_v2" fill="#FB786D"/></g></svg>