<svg viewBox="0 0 96 96" xmlns="http://www.w3.org/2000/svg" xmlns:xlink="http://www.w3.org/1999/xlink" id="Icons_Cricket_M" overflow="hidden"><style>
.MsftOfcThm_Accent5_lumMod_75_Fill_v2 {
 fill:#A32A08; 
}
</style>
<g id="Icons"><path d="M81.2661 58.1836 66.7046 48.9844 62.8032 30.45C62.4141 28.6661 61.334 27.1091 59.7993 26.12 58.2943 25.1282 56.4564 24.7761 54.6914 25.1415 54.3806 25.1862 54.077 25.2717 53.7886 25.3959L43.7861 29.2222C43.0176 29.5082 42.356 30.0242 41.8916 30.7L35.0629 40.9448 32.2964 39.8081C32.5742 38.4517 31.8566 37.0876 30.5815 36.5481L9.35 27.7246C8.64581 27.4445 7.85925 27.4553 7.163 27.7546 6.45999 28.0431 5.90302 28.6028 5.6181 29.3073L4.2119 32.7749C3.64253 34.2389 4.34009 35.8904 5.7866 36.5029L27.0186 45.3262C27.3525 45.4601 27.7089 45.5289 28.0686 45.5288 28.4592 45.5279 28.8457 45.4489 29.2054 45.2964 29.7497 45.0711 30.2108 44.6827 30.5254 44.1846L33.4521 45.36 33.4521 45.6343C33.4286 47.7948 35.1609 49.5654 37.3214 49.5889 37.3497 49.5892 37.378 49.5892 37.4063 49.5889L48.2378 49.5889C49.1618 49.6223 50.0622 49.2926 50.7461 48.6704L52.3188 47.3687 53.6079 53.6641 49.8423 66.1875 31.4053 79C29.2245 80.6145 28.693 83.6556 30.1968 85.9141 31.1323 87.2253 32.6447 88.0026 34.2554 88 35.2699 88.0184 36.2639 87.7137 37.0938 87.13L56.7954 73.3354C57.6903 72.7079 58.3439 71.7932 58.6475 70.7432L62.5015 58.0142 73.7515 65.1118 74.6128 83.2065C74.7688 85.8262 76.9266 87.8777 79.5508 87.9014L79.793 87.9004C81.104 87.8422 82.3361 87.2573 83.21 86.2783 84.0905 85.3074 84.55 84.027 84.4879 82.7178L83.5044 62.082C83.466 60.4875 82.6238 59.0206 81.2661 58.1836ZM34.1822 42.7449 33.9343 43.3976 31.316 42.3467 31.5879 41.6792ZM28.4292 43.4531C28.2216 43.5441 27.987 43.5518 27.7739 43.4746L6.542 34.6514C6.11327 34.4562 5.90663 33.9642 6.0674 33.5214L7.4731 30.0536C7.56076 29.8451 7.7287 29.6808 7.939 29.5976 8.14661 29.5069 8.38109 29.4992 8.5942 29.5761L29.8262 38.3993C30.2563 38.5955 30.4622 39.0902 30.2983 39.5336L30.1121 40 29.46 41.6018 29.4546 41.6 29.0846 42.5231 29.0846 42.5238 29.0846 42.5238 28.8946 42.998C28.807 43.2061 28.6392 43.3702 28.4292 43.4531ZM81.7251 84.94C81.2201 85.5109 80.5085 85.8571 79.7476 85.9019L79.5508 85.9019C77.9899 85.889 76.7053 84.67 76.6108 83.1119L75.7 63.9761 61.3481 54.9214 56.72 70.2114C56.5325 70.813 56.1531 71.3368 55.64 71.7026L35.9385 85.4971C35.445 85.8389 34.8556 86.015 34.2554 86 33.2975 86.0086 32.3954 85.55 31.8379 84.771 30.9446 83.4172 31.2619 81.6016 32.5615 80.631L51.5562 67.431 55.6685 53.7557 54.0425 45.8157 57.543 42.7621C57.9664 42.4075 58.0223 41.7769 57.6677 41.3534 57.3132 40.93 56.6825 40.8741 56.259 41.2287 56.2487 41.2373 56.2385 41.2462 56.2285 41.2553L49.9258 46.7533 49.917 46.7648 49.4014 47.1923C49.0793 47.4697 48.6623 47.6116 48.2378 47.5883L37.4063 47.5883C36.3509 47.6122 35.476 46.7761 35.4521 45.7207 35.4514 45.6917 35.4514 45.6627 35.4521 45.6337L35.4521 45.1415 35.9684 43.6791 47.4209 43.6791 52.0166 39.8134C52.0507 39.7858 52.083 39.7561 52.1133 39.7245 52.3118 39.5159 52.4107 39.2319 52.3848 38.9452 52.3808 38.9028 52.3741 38.8607 52.3648 38.8192L51.483 34.4092C51.4605 34.293 51.4171 34.1819 51.3551 34.0811L51.3551 34.0806 51.3541 34.0791 51.3526 34.0771 51.3517 34.0752C51.2937 33.9818 51.2205 33.8986 51.1353 33.8291L51.1353 33.8291 51.1333 33.8271 51.1309 33.8252 51.1309 33.8247 51.1289 33.8232C50.9928 33.714 50.8305 33.6421 50.6582 33.6147L50.6572 33.6147 50.6533 33.6147C50.5461 33.5986 50.4369 33.5999 50.3301 33.6186L46.4601 34.2821 41.5944 41.6796 36.9764 41.6796 43.5049 31.8788C43.7336 31.5268 44.0677 31.2561 44.4595 31.1054L54.5171 27.2587C54.6396 27.2094 54.8438 27.1405 54.835 27.1332L55.0488 27.1103C56.3114 26.8361 57.6312 27.0835 58.7088 27.7963 59.7999 28.4978 60.569 29.6027 60.848 30.8695L64.7654 49.4809 64.7654 50.1254 80.1954 59.873C80.9833 60.3575 81.4754 61.2053 81.5054 62.1298L82.49 82.8105C82.527 83.5936 82.2519 84.3594 81.7251 84.94ZM43.9873 41.68 47.6528 36.1068 49.7128 35.7537 50.2928 38.6517 46.6922 41.68Z" class="MsftOfcThm_Accent5_lumMod_75_Fill_v2" fill="#A32A08"/><path d="M52.9026 22.5063C56.7697 22.5074 59.9055 19.3734 59.9066 15.5063 59.9077 11.6392 56.7737 8.5034 52.9066 8.5023 49.0395 8.5012 45.9037 11.6352 45.9026 15.5023 45.9026 15.503 45.9026 15.5036 45.9026 15.5043 45.9021 19.3708 49.0361 22.5057 52.9026 22.5063ZM52.9026 10.5024C55.6651 10.5013 57.9055 12.7399 57.9066 15.5024 57.9077 18.2649 55.6691 20.5053 52.9066 20.5064 50.1441 20.5075 47.9037 18.2689 47.9026 15.5064 47.9026 15.5057 47.9026 15.505 47.9026 15.5043 47.9053 12.7437 50.142 10.5061 52.9026 10.5024Z" class="MsftOfcThm_Accent5_lumMod_75_Fill_v2" fill="#A32A08"/><path d="M85.9042 44.5125C83.142 44.5117 80.9022 46.7503 80.9014 49.5125 80.9006 52.2747 83.1392 54.5145 85.9014 54.5153 88.6636 54.5161 90.9034 52.2775 90.9042 49.5153 90.9042 49.5148 90.9042 49.5143 90.9042 49.5138 90.9045 46.7521 88.6659 44.5129 85.9042 44.5125ZM85.9042 52.5153C84.2466 52.5161 82.9022 51.1729 82.9014 49.5153 82.9006 47.8577 84.2438 46.5133 85.9014 46.5125 87.559 46.5117 88.9034 47.8549 88.9042 49.5125 88.9042 49.5129 88.9042 49.5134 88.9042 49.5138 88.9026 51.1702 87.5606 52.5129 85.9042 52.5153Z" class="MsftOfcThm_Accent5_lumMod_75_Fill_v2" fill="#A32A08"/></g></svg>