<svg viewBox="0 0 96 96" xmlns="http://www.w3.org/2000/svg" xmlns:xlink="http://www.w3.org/1999/xlink" id="Icons_Signature_LTR_M" overflow="hidden"><style>
.MsftOfcThm_Accent3_lumMod_40_lumOff_60_Fill_v2 {
 fill:#FCDA9E; 
}
</style>
<g id="Icons"><path d="M73.8 34.012C73.922 33.882 83.932 23.291 94 12.521L94 9.592C83.467 20.871 72.477 32.5 72.365 32.618L68.6 36.381 71.142 38.925C61.8 47.756 54.4 50.077 54.4 50.077 53.0747 58.3134 49.8228 66.1204 44.909 72.862L46.626 74.58 36.326 76.163C36.3213 76.1645 36.3162 76.1618 36.3147 76.1571 36.3141 76.1551 36.3142 76.1529 36.315 76.151 36.889 74.601 37.475 72.351 36.849 70.69 36.5408 69.8438 35.8803 69.1732 35.039 68.852 32.746 67.952 29.25 70.529 26.522 73.09 26.5185 73.0935 26.5128 73.0936 26.5093 73.0901 26.5069 73.0877 26.506 73.0842 26.507 73.081 26.7974 71.9516 26.7466 70.7615 26.361 69.661 25.9353 68.6694 25.0552 67.9458 24 67.72 21.773 67.159 18.706 69.603 15.384 73.261 15.3815 73.2654 15.3759 73.267 15.3715 73.2645 15.3671 73.262 15.3655 73.2564 15.368 73.252 18.114 67.461 20.286 60.528 16.817 57.06 14.317 54.56 9.695 54.481 2.686 56.818 2.16133 56.9925 1.87748 57.5593 2.052 58.084 2.22652 58.6087 2.79333 58.8925 3.318 58.718 9.452 56.674 13.518 56.592 15.403 58.477 19.609 62.683 12.044 75.554 9.559 79.784 9.127 80.518 8.81 81.061 8.659 81.355 8.32243 81.8266 8.43186 82.4817 8.90342 82.8182 8.91834 82.8289 8.93354 82.8391 8.949 82.849 9.11372 82.9689 9.30877 83.0403 9.512 83.055 10 83.055 10.447 82.478 11.523 81.088 19.26 71.101 22.315 69.364 23.513 69.664 23.9644 69.731 24.3485 70.028 24.527 70.448 25.17 71.948 23.861 75.226 22.887 76.937 22.6146 77.4174 22.7832 78.0277 23.2636 78.3001 23.6772 78.5347 24.1987 78.4455 24.511 78.087 27.998 74.059 32.728 70.099 34.311 70.716 34.6276 70.829 34.8751 71.0806 34.983 71.399 35.496 72.753 34.521 75.539 33.783 76.977 33.5313 77.4686 33.7258 78.0712 34.2173 78.3229 34.4048 78.4189 34.6178 78.4532 34.826 78.421L48.146 76.372C48.2152 76.3557 48.2823 76.3316 48.346 76.3L50.6 78.553C57.3399 73.6381 65.1455 70.3851 73.381 69.059 73.381 69.059 75.656 61.612 84.481 52.265L87.1 54.879 87.807 54.179C87.862 54.125 90.849 51.179 94.007 48.099L94.007 45.308C91.297 47.946 88.42 50.774 87.113 52.061L85.87 50.824 85.87 50.824 72.59 37.531 72.585 37.536 71.431 36.381ZM71.9 67.285C64.3487 68.6768 57.1704 71.6272 50.823 75.948L49.868 74.993 62.831 62.03C63.8381 62.4608 65.0059 62.236 65.781 61.462L65.781 61.462C66.8294 60.4149 66.8305 58.7161 65.7833 57.6677 64.7362 56.6192 63.0374 56.6182 61.989 57.6653 61.2136 58.4398 60.9872 59.6079 61.417 60.616L48.456 73.578 47.516 72.638C51.8378 66.2864 54.7882 59.1036 56.179 51.548 58.718 50.516 65.047 47.467 72.565 40.348L83.065 50.848C75.944 58.367 72.924 64.727 71.9 67.285Z" class="MsftOfcThm_Accent3_lumMod_40_lumOff_60_Fill_v2" fill="#FCDA9E"/></g></svg>