<svg viewBox="0 0 96 96" xmlns="http://www.w3.org/2000/svg" xmlns:xlink="http://www.w3.org/1999/xlink" id="Icons_ContinuousImprovement1_LTR_M" overflow="hidden"><style>
.MsftOfcThm_Accent5_lumMod_60_lumOff_40_Fill_v2 {
 fill:#F77F5E; 
}
</style>
<g id="Icons"><path d="M77.6 46.9C77.6 43.1 76.9 39.4 75.4 35.9 75.2 35.4 74.6 35.1 74.1 35.4 73.6 35.6 73.3 36.2 73.6 36.7 79.3 50.5 72.7 66.3 58.9 72 57.4 72.6 55.9 73.1 54.3 73.4 54.3 73.4 54.3 73.4 54.3 73.4L58.3 66.3C58.6 65.8 58.4 65.2 57.9 64.9 57.4 64.6 56.8 64.8 56.5 65.3L56.5 65.3 51.4 74.3C51.1 74.8 51.3 75.4 51.8 75.7 51.8 75.7 51.8 75.7 51.8 75.7L60.7 80.8C61.2 81.1 61.8 80.9 62.1 80.4 62.4 79.9 62.2 79.3 61.7 79L55.1 75.3C55.1 75.3 55.1 75.3 55.1 75.3 68.2 72.1 77.5 60.4 77.6 46.9Z" class="MsftOfcThm_Accent5_lumMod_60_lumOff_40_Fill_v2" fill="#F77F5E" fill-opacity="0.1"/><path d="M45 73.7C30.2 71.7 19.8 58.1 21.8 43.3 22 41.7 22.4 40.2 22.9 38.6 22.9 38.6 22.9 38.6 22.9 38.6L27 45.6C27.3 46.1 27.9 46.2 28.4 46 28.9 45.7 29 45.1 28.8 44.6L28.8 44.6 23.6 35.7C23.3 35.2 22.7 35.1 22.2 35.3L13.3 40.5C12.8 40.8 12.7 41.4 12.9 41.9 13.1 42.4 13.8 42.5 14.3 42.3L20.8 38.5C20.8 38.5 20.8 38.5 20.8 38.5 17 51.4 22.4 65.3 34.1 72.1 37.4 74 41 75.2 44.7 75.7 44.7 75.7 44.8 75.7 44.8 75.7 45.4 75.7 45.8 75.3 45.8 74.7 45.9 74.2 45.5 73.8 45 73.7Z" class="MsftOfcThm_Accent5_lumMod_60_lumOff_40_Fill_v2" fill="#F77F5E" fill-opacity="0.1"/><path d="M26.4 30.8C26.7 30.8 27 30.7 27.2 30.4 36.3 18.6 53.3 16.4 65.1 25.5 66.4 26.5 67.5 27.6 68.6 28.7 68.6 28.7 68.6 28.7 68.6 28.7L60.6 28.7C60 28.7 59.6 29.2 59.6 29.7 59.6 30.3 60.1 30.7 60.6 30.7L60.6 30.7 70.9 30.6C71.5 30.6 71.9 30.2 71.9 29.6L71.8 19.3C71.8 18.7 71.4 18.3 70.8 18.3L70.8 18.3C70.2 18.3 69.8 18.7 69.8 19.3L69.8 26.9C69.8 26.9 69.8 26.9 69.8 26.9 58.9 15.2 40.5 14.5 28.8 25.5 27.7 26.6 26.6 27.7 25.6 29 25.3 29.4 25.3 30.1 25.8 30.4 25.9 30.5 26.1 30.6 26.2 30.6 26.3 30.8 26.4 30.8 26.4 30.8Z" class="MsftOfcThm_Accent5_lumMod_60_lumOff_40_Fill_v2" fill="#F77F5E" fill-opacity="0.1"/><path d="M52.3 52.6 55.4 50.9 55.4 47.8 52.3 49.6Z" class="MsftOfcThm_Accent5_lumMod_60_lumOff_40_Fill_v2" fill="#F77F5E" fill-opacity="0.1"/><path d="M63.9 38.2 48.6 28.9 33.3 38.2 33.3 55.6 48.6 65 63.9 55.7 63.9 38.2ZM61 38.8 56.4 41.6 43.9 34.1 48.6 31.2 61 38.8ZM48.6 46.3 36.2 38.8 42 35.3 54.5 42.8 48.6 46.3ZM35.3 40.6 47.6 48.1 47.6 62.1 35.3 54.6 35.3 40.6ZM49.6 62 49.6 48 61.9 40.5 61.9 54.5 49.6 62Z" class="MsftOfcThm_Accent5_lumMod_60_lumOff_40_Fill_v2" fill="#F77F5E" fill-opacity="0.1"/></g></svg>