<svg viewBox="0 0 96 96" xmlns="http://www.w3.org/2000/svg" xmlns:xlink="http://www.w3.org/1999/xlink" id="Icons_CycleWithPeople_M" overflow="hidden"><style>
.MsftOfcThm_Accent5_lumMod_60_lumOff_40_Fill_v2 {
 fill:#F77F5E; 
}
</style>
<g id="Icons"><path d="M54.1 71C54.1 70.5 54 70 54 69.5 54 69.3 54 69.2 54 69L42 69C42 69.2 42 69.3 42 69.5 42 70 42 70.5 41.9 71L54.1 71Z" class="MsftOfcThm_Accent5_lumMod_60_lumOff_40_Fill_v2" fill="#F77F5E" fill-opacity="0.09"/><path d="M32.9 55.4 38.5 45.7C37.9 45.4 37.4 45 36.8 44.6L31 54.7C31.7 54.9 32.3 55.1 32.9 55.4Z" class="MsftOfcThm_Accent5_lumMod_60_lumOff_40_Fill_v2" fill="#F77F5E" fill-opacity="0.09"/><path d="M64.2 55 58.2 44.6C57.7 45 57.1 45.3 56.5 45.7L62.3 55.8C62.9 55.5 63.6 55.2 64.2 55Z" class="MsftOfcThm_Accent5_lumMod_60_lumOff_40_Fill_v2" fill="#F77F5E" fill-opacity="0.09"/><path d="M26.5 57C19.6 57 14 62.6 14 69.5 14 76.4 19.6 82 26.5 82 33.4 82 39 76.4 39 69.5 39 62.6 33.4 57 26.5 57ZM20.5 78.1C20.8 74.8 23.8 72.3 27.1 72.6 30 72.9 32.3 75.2 32.6 78.1 28.9 80.6 24.1 80.6 20.5 78.1ZM23.7 67.8C23.7 66.3 24.9 65 26.5 65 28 65 29.3 66.2 29.3 67.8 29.3 69.3 28.1 70.6 26.5 70.6 25 70.6 23.7 69.3 23.7 67.8ZM34.3 76.5C33.7 74.2 32 72.2 29.8 71.2 31.7 69.4 31.8 66.4 30 64.4 28.2 62.5 25.2 62.4 23.2 64.2 21.3 66 21.2 69 23 71 23.1 71.1 23.2 71.2 23.2 71.2 21 72.2 19.3 74.1 18.7 76.5 14.8 72.2 15.1 65.6 19.4 61.7 23.7 57.8 30.3 58.1 34.2 62.4 37.9 66.4 37.9 72.5 34.3 76.5Z" class="MsftOfcThm_Accent5_lumMod_60_lumOff_40_Fill_v2" fill="#F77F5E" fill-opacity="0.09"/><path d="M69.5 57C62.6 57 57 62.6 57 69.5 57 76.4 62.6 82 69.5 82 76.4 82 82 76.4 82 69.5 82 62.6 76.4 57 69.5 57ZM63.5 78.1C63.8 74.8 66.8 72.3 70.1 72.6 73 72.9 75.3 75.2 75.6 78.1 71.9 80.6 67.1 80.6 63.5 78.1ZM66.7 67.8C66.7 66.3 67.9 65 69.5 65 71 65 72.3 66.2 72.3 67.8 72.3 69.3 71.1 70.6 69.5 70.6 68 70.6 66.7 69.3 66.7 67.8ZM77.3 76.5C76.7 74.2 75 72.2 72.8 71.2 74.7 69.4 74.8 66.4 73 64.4 71.2 62.5 68.2 62.4 66.2 64.2 64.2 66 64.2 69 66 71 66.1 71.1 66.2 71.2 66.2 71.2 64 72.2 62.3 74.1 61.7 76.5 57.8 72.2 58.1 65.6 62.4 61.7 66.7 57.8 73.3 58.1 77.2 62.4 80.9 66.4 80.9 72.5 77.3 76.5Z" class="MsftOfcThm_Accent5_lumMod_60_lumOff_40_Fill_v2" fill="#F77F5E" fill-opacity="0.09"/><path d="M47.5 14C38.9 14 32 20.9 32 29.5 32 38.1 38.9 45 47.5 45 56.1 45 63 38.1 63 29.5 63 20.9 56.1 14 47.5 14ZM39.6 40.4C39.9 36 43.7 32.8 48.1 33.1 52 33.4 55.1 36.5 55.4 40.4 50.7 43.9 44.3 43.9 39.6 40.4ZM43.7 27.3C43.7 25.2 45.4 23.5 47.5 23.5 49.6 23.5 51.3 25.2 51.3 27.3 51.3 29.4 49.6 31.1 47.5 31.1 45.4 31.1 43.7 29.4 43.7 27.3L43.7 27.3ZM57.2 38.7C56.5 35.5 54.2 32.9 51.2 31.8 53.7 29.8 54 26.2 52 23.7 50 21.2 46.4 20.9 43.9 22.9 41.4 24.9 41 28.5 43 31 43.2 31.3 43.5 31.6 43.8 31.8 40.7 33 38.5 35.7 37.8 38.9 32.6 33.6 32.7 25 38.1 19.8 43.5 14.6 52 14.7 57.2 20.1 62.3 25.3 62.3 33.7 57.2 38.9 57.2 38.9 57.2 38.8 57.2 38.7Z" class="MsftOfcThm_Accent5_lumMod_60_lumOff_40_Fill_v2" fill="#F77F5E" fill-opacity="0.09"/></g></svg>