<svg viewBox="0 0 96 96" xmlns="http://www.w3.org/2000/svg" xmlns:xlink="http://www.w3.org/1999/xlink" id="Icons_Ripple_M" overflow="hidden"><style>
.MsftOfcThm_Accent5_lumMod_60_lumOff_40_Fill_v2 {
 fill:#F77F5E; 
}
</style>
<g id="Icons"><path d="M48 65.809C32.018 65.809 20.881 61.602 20.881 57.826 20.881 56.1 23.234 54.266 27.337 52.794 27.8564 52.6063 28.1254 52.0331 27.9377 51.5137 27.7508 50.9965 27.1814 50.7272 26.663 50.911 21.572 52.737 18.881 55.128 18.881 57.826 18.881 64.31 33.881 67.809 48 67.809 62.119 67.809 77.119 64.309 77.119 57.824 77.119 55.124 74.428 52.732 69.337 50.908 68.8165 50.7234 68.2449 50.9958 68.0603 51.5163 67.8765 52.0346 68.1457 52.6041 68.663 52.791 72.763 54.262 75.119 56.096 75.119 57.824 75.119 61.6 63.982 65.809 48 65.809Z" class="MsftOfcThm_Accent5_lumMod_60_lumOff_40_Fill_v2" fill="#F77F5E" fill-opacity="0.12"/><path d="M72.21 47.267C68.5412 46.4953 64.8321 45.9301 61.1 45.574 60.5513 45.5262 60.0654 45.9264 60.007 46.474 59.9537 47.0237 60.3561 47.5126 60.9058 47.5659 60.9062 47.5659 60.9066 47.566 60.907 47.566 64.5628 47.9139 68.1962 48.4668 71.79 49.222 82.822 51.59 89.409 55.479 89.409 59.622 89.409 66.083 72.77 73 48 73 23.23 73 6.591 66.083 6.591 59.623 6.591 55.629 12.809 51.823 23.223 49.44 27.139 48.5674 31.1057 47.9409 35.1 47.564 35.6495 47.5088 36.0502 47.0185 35.995 46.469 35.9398 45.9195 35.4495 45.5188 34.9 45.574 30.8223 45.9591 26.7727 46.5994 22.775 47.491 11.05 50.173 4.591 54.481 4.591 59.623 4.591 68.246 23.659 75 48 75 72.341 75 91.409 68.246 91.409 59.623 91.409 54.313 84.59 49.924 72.21 47.267Z" class="MsftOfcThm_Accent5_lumMod_60_lumOff_40_Fill_v2" fill="#F77F5E" fill-opacity="0.12"/><path d="M35.271 39.853 35.271 39.853C39.214 39.853 41.195 41.104 41.98 41.784 42.0375 41.8357 42.126 41.8311 42.1777 41.7736 42.1785 41.7727 42.1792 41.7719 42.18 41.771 42.2129 41.7335 42.2233 41.6812 42.207 41.634 41.721 40.241 40.386 36.728 38.933 35.656 38.101 35.0128 37.0844 34.6538 36.033 34.632 35.1027 34.5944 34.2127 35.0142 33.65 35.756 32.534 37.269 33.347 39.853 35.271 39.853ZM35.26 36.943C35.4442 36.7088 35.739 36.5904 36.034 36.632 36.6565 36.6589 37.2549 36.8803 37.745 37.265 38.0246 37.5146 38.2611 37.8085 38.445 38.135 37.4349 37.9534 36.4103 37.8647 35.384 37.87L35.31 37.87C35.1112 37.5982 35.0916 37.2346 35.26 36.943Z" class="MsftOfcThm_Accent5_lumMod_60_lumOff_40_Fill_v2" fill="#F77F5E" fill-opacity="0.12"/><path d="M55.436 37.836C55.4466 37.837 55.4574 37.837 55.468 37.836 55.5082 37.8361 55.5466 37.8195 55.574 37.79 56.9551 36.5621 58.7168 35.847 60.563 35.765 62.07 35.592 62.474 33.496 61.463 32.412 61.0393 31.9619 60.444 31.7135 59.826 31.729 58.8845 31.7632 57.9901 32.1497 57.32 32.812 56.32 33.748 55.603 36.452 55.326 37.66 55.307 37.7378 55.3547 37.8162 55.4326 37.8352 55.4337 37.8355 55.4348 37.8358 55.436 37.836Z" class="MsftOfcThm_Accent5_lumMod_60_lumOff_40_Fill_v2" fill="#F77F5E" fill-opacity="0.12"/><path d="M58.4 50.057 57.8 49.883C57.511 49.803 57.21 49.727 56.887 49.651L56.344 49.531 56.244 49.511C55.992 49.456 55.744 49.402 55.417 49.345 53.001 49.045 49.654 46.382 48.917 44.616 48.7045 44.1062 48.119 43.8653 47.6092 44.0778 47.3659 44.1792 47.1724 44.3727 47.071 44.616 46.377 46.283 43.077 48.881 40.503 49.357L39.103 49.657C38.788 49.731 38.487 49.807 38.197 49.887L37.545 50.078C33.771 51.227 31.777 52.878 31.777 54.858 31.78 58.889 39.94 61 48 61 56.06 61 64.22 58.889 64.22 54.854 64.22 52.875 62.227 51.223 58.4 50.057ZM48 59C39.32 59 33.78 56.544 33.78 54.854 33.78 54.143 34.919 52.965 38.217 51.961L38.733 51.811C38.996 51.738 39.269 51.668 39.561 51.602L40.892 51.32C43.6685 50.6201 46.1549 49.0656 48 46.876 49.608 48.904 52.616 51.009 55.12 51.32 55.364 51.365 55.598 51.42 55.92 51.484L56.454 51.603C56.741 51.668 57.014 51.738 57.275 51.811L57.88 51.988C61.088 52.964 62.226 54.142 62.226 54.854 62.22 56.544 56.68 59 48 59Z" class="MsftOfcThm_Accent5_lumMod_60_lumOff_40_Fill_v2" fill="#F77F5E" fill-opacity="0.12"/><path d="M44.047 34.245C45.601 36.357 46.947 38.193 46.999 41.609L46.999 42.009C47.0417 42.5596 47.5228 42.9713 48.0734 42.9286 48.5646 42.8905 48.9549 42.5002 48.993 42.009L48.993 41.604C49.043 38.192 50.393 36.357 51.948 34.246 52.5993 33.3969 53.2049 32.5137 53.762 31.6 54.6435 30.3083 55.154 28.7996 55.238 27.238 55.2658 23.2429 52.0496 19.9817 48.0544 19.9539 44.0593 19.9261 40.7981 23.1423 40.7704 27.1375 40.77 27.1906 40.7702 27.2438 40.771 27.297 40.8581 28.8151 41.3547 30.2814 42.208 31.54 42.773 32.4734 43.3869 33.3763 44.047 34.245ZM48.014 22C50.8813 22.0015 53.2126 24.3118 53.24 27.179 53.1638 28.3809 52.761 29.5392 52.075 30.529 51.5435 31.4037 50.9661 32.2495 50.345 33.063 49.4265 34.2242 48.64 35.4839 48 36.819 47.3617 35.483 46.5762 34.2225 45.658 33.061 45.027 32.2287 44.4402 31.3639 43.9 30.47 43.2409 29.5131 42.8519 28.3963 42.774 27.237 42.7757 24.3442 45.1212 22 48.014 22Z" class="MsftOfcThm_Accent5_lumMod_60_lumOff_40_Fill_v2" fill="#F77F5E" fill-opacity="0.12"/></g></svg>