<svg viewBox="0 0 96 96" xmlns="http://www.w3.org/2000/svg" xmlns:xlink="http://www.w3.org/1999/xlink" id="Icons_StackedRocks_M" overflow="hidden"><style>
.MsftOfcThm_Accent2_lumMod_60_lumOff_40_Fill_v2 {
 fill:#FFD966; 
}
</style>
<g id="Icons"><path d="M82.646 66.967C81.781 61.967 75.897 58.967 65.157 58.052 64.61 58.005 63.72 57.981 62.514 57.981 61.898 57.981 61.187 57.989 60.431 58.001 61.851 57.783 62.97 57.596 63.604 57.481 67.509 56.771 72.948 53.816 75.29 50.099 76.3643 48.5471 76.7218 46.6091 76.272 44.776 74.672 38.918 65.854 38.043 60.738 38.043L59.5 38.043C62.352 37.052 65.155 35.226 65.652 31.412 65.999 28.747 65.039 24.676 58.498 20.412 53.608 17.224 44.898 16.356 40.974 16.342L40.932 16.342C35.513 16.342 30.11 20.372 28.622 23.261 26.399 27.578 28.458 32.873 31.641 35.303 33.0847 36.3566 34.7097 37.1362 36.435 37.603 27.772 37.663 23.768 40.327 21.935 42.569 20.4697 44.2905 19.8729 46.588 20.315 48.805 21.979 56.896 28.951 58.382 34.637 59.52 33.211 59.661 31.8 59.812 30.425 59.974 22.362 60.923 17.091 63.009 14.758 66.174 13.6538 67.6246 13.2176 69.476 13.558 71.267 14.639 77.089 20.677 80.04 31.507 80.04 32.486 80.04 33.353 80.019 34.044 80.001 34.473 79.99 34.83 79.981 35.098 79.981 35.193 79.981 35.27 79.981 35.327 79.981 36.527 80.081 43.276 80.336 50.318 80.336 58.352 80.336 64.087 80.024 67.363 79.409 71.542 78.634 84.252 76.249 82.646 66.967ZM30.4 24.179C31.473 22.094 36.053 18.344 40.933 18.344L40.967 18.344C45.239 18.359 53.243 19.376 57.406 22.089 61.569 24.802 64.087 27.938 63.669 31.154 63.336 33.707 61.623 35.693 56.446 36.811 54.0579 37.2691 51.6317 37.4998 49.2 37.5 46.5512 37.5003 43.9095 37.2265 41.317 36.683 37.417 35.968 34.83 35.232 32.847 33.718 30.217 31.705 28.759 27.356 30.4 24.179ZM22.273 48.405C21.448 44.389 25.296 39.605 36.719 39.605 37.1857 39.605 37.6663 39.613 38.161 39.629 50.704 40.047 57.367 40.047 60.738 40.047 64.919 40.047 73.089 40.709 74.343 45.307 75.597 49.905 67.843 54.681 63.243 55.517 59.535 56.191 47.674 57.952 39.931 57.952 38.357 57.9832 36.7836 57.8677 35.231 57.607 28.963 56.349 23.621 54.958 22.273 48.405ZM67 77.452C63.311 78.144 56.61 78.344 50.323 78.344 43.157 78.344 36.523 78.084 35.501 77.996 35.401 77.988 35.27 77.985 35.101 77.985 34.401 77.985 33.107 78.044 31.51 78.044 25.963 78.044 16.719 77.327 15.527 70.907 14.715 66.528 20.045 63.212 30.659 61.963 42.378 60.584 56.494 59.981 62.515 59.981 63.652 59.981 64.499 60.002 64.988 60.044 68.067 60.307 79.636 61.294 80.676 67.308 81.716 73.322 74.889 75.971 67 77.452Z" class="MsftOfcThm_Accent2_lumMod_60_lumOff_40_Fill_v2" fill="#FFD966"/></g></svg>