<svg viewBox="0 0 96 96" xmlns="http://www.w3.org/2000/svg" xmlns:xlink="http://www.w3.org/1999/xlink" id="Icons_Badge4_M" overflow="hidden"><style>
.MsftOfcThm_Accent5_lumMod_60_lumOff_40_Fill_v2 {
 fill:#F77F5E; 
}
</style>
<g id="Icons"><path d="M48.021 12C67.8917 12 84 28.1083 84 47.979 84 67.8497 67.8917 83.958 48.021 83.958 28.1503 83.958 12.042 67.8497 12.042 47.979 12.0646 28.1177 28.1597 12.0226 48.021 12M48.021 10C27.0458 10 10.042 27.0038 10.042 47.979 10.042 68.9542 27.0458 85.958 48.021 85.958 68.9962 85.958 86 68.9542 86 47.979 86.0099 27.0137 69.0223 10.0099 48.057 10 48.045 9.99999 48.033 9.99999 48.021 10Z" class="MsftOfcThm_Accent5_lumMod_60_lumOff_40_Fill_v2" fill="#F77F5E"/><path d="M50.306 63.65 50.306 55.307 34.392 55.307 34.392 53.032C35.83 51.432 37.33 49.632 38.828 47.753 40.346 45.846 41.821 43.876 43.211 41.9 44.601 39.924 45.899 37.946 47.068 36.021 48.1162 34.3109 49.0761 32.5483 49.944 30.74L52.583 30.74 52.583 53.287 57.833 53.287 57.833 55.307 52.583 55.307 52.583 63.65ZM49.653 35.021C48.509 36.999 47.353 38.874 46.219 40.593 45.085 42.312 43.975 43.917 42.911 45.385 41.847 46.853 40.818 48.207 39.851 49.414 38.884 50.621 37.982 51.731 37.17 52.714L36.7 53.284 36.7 53.284 50.306 53.284 50.306 33.894 50.306 33.894Z" class="MsftOfcThm_Accent5_lumMod_60_lumOff_40_Fill_v2" fill="#F77F5E"/></g></svg>