<svg viewBox="0 0 257.143 247.619" xmlns="http://www.w3.org/2000/svg" xmlns:xlink="http://www.w3.org/1999/xlink" id="uuid-8b12edc5-1b35-49b0-bbf8-5b43809bde56" overflow="hidden"><style>
.MsftOfcThm_Accent6_lumMod_60_lumOff_40_Fill_v2 {
 fill:#FB786D; 
}
</style>
<path d="M83.7396 36.6478C81.0761 36.6117 79.1087 38.4806 79.0394 41.1129 78.971 43.7089 80.9005 45.7717 83.4843 45.8649 86.1368 45.9605 88.3771 43.8429 88.3649 41.2514 88.3527 38.6587 86.368 36.6834 83.7396 36.6478Z" class="MsftOfcThm_Accent6_lumMod_60_lumOff_40_Fill_v2" fill="#FB786D"/><path d="M248.902 193.944C248.618 194.653 248.331 195.362 248.048 196.072 245.854 201.582 241.857 204.741 235.916 205.326 234.908 205.425 233.885 205.403 232.87 205.403 207.383 205.407 181.897 205.406 156.41 205.406 155.407 205.406 154.404 205.406 153.046 205.406 153.586 207.457 154.05 209.236 154.524 211.014 156.355 217.876 158.244 224.723 159.981 231.609 160.389 233.229 161.103 233.789 162.712 233.645 164.028 233.527 165.374 233.573 166.693 233.695 169.249 233.93 170.904 235.687 170.989 238.115 171.073 240.526 169.501 242.427 167.008 242.823 166.088 242.969 165.141 242.989 164.206 242.989 140.596 242.998 116.985 242.996 93.3752 242.993 92.6724 242.993 91.9649 243.004 91.2675 242.932 88.3018 242.626 86.5135 240.747 86.6205 238.088 86.7246 235.504 88.5256 233.799 91.4082 233.646 92.8117 233.571 94.2354 233.731 95.6227 233.562 96.236 233.487 97.1631 232.964 97.3013 232.465 99.7559 223.605 102.111 214.716 104.586 205.466 103.304 205.466 102.312 205.466 101.32 205.466 75.9119 205.466 50.5035 205.477 25.0952 205.444 23.1539 205.442 21.1513 205.386 19.283 204.925 12.8525 203.34 8.72717 197.809 8.71957 190.908 8.69642 169.877 8.71073 148.847 8.71065 127.817 8.71055 102.565 8.70814 77.3126 8.71193 52.0605 8.71339 42.3302 14.3748 36.5758 24.1075 36.5365 36.4596 36.4867 48.8122 36.5248 61.1646 36.5255 61.4773 36.5255 61.7907 36.5188 62.1025 36.537 65.2125 36.7188 67.2257 38.543 67.2539 41.199 67.2831 43.9446 65.1874 45.877 61.9461 45.8863 49.8284 45.9212 37.7105 45.9016 25.5926 45.9034 24.8109 45.9035 24.0273 45.8771 23.2477 45.9207 19.7874 46.1143 18.1013 47.8162 18.1002 51.2689 18.0874 92.7041 18.0919 134.139 18.0949 175.575 18.095 176.033 18.1354 176.492 18.164 177.099L32.0294 177.099C31.9772 157.286 40.048 141.611 56.7401 130.4 52.611 123.968 52.028 116.83 52.2546 109.585 52.4298 103.983 52.1811 98.2197 53.4183 92.8254 56.7612 78.2503 70.7431 68.4924 85.7739 69.5081 100.842 70.5263 113.392 82.0021 114.669 96.9471 115.342 104.825 114.773 112.854 114.183 120.772 113.937 124.069 112.174 127.254 111.031 130.702 127.222 141.518 135.253 157.145 135.308 177.098L239.521 177.098C239.521 176.253 239.521 175.418 239.521 174.584 239.521 133.774 239.521 92.9644 239.519 52.1546 239.519 47.5146 237.974 45.9425 233.371 45.9069 230.807 45.8871 228.244 45.9034 225.445 45.9034 225.445 47.0703 225.445 47.9863 225.445 48.9024 225.445 74.4672 225.446 100.032 225.444 125.597 225.443 132.802 221.855 136.486 214.689 136.494 192.174 136.52 169.658 136.518 147.142 136.496 139.95 136.489 136.32 132.817 136.313 125.676 136.313 125.52 136.313 125.363 136.313 125.207 136.308 121.845 137.18 118.146 136.051 115.218 134.937 112.331 131.795 110.228 129.549 107.775 125.984 103.88 126.043 98.5418 129.688 94.672 129.741 94.6151 129.789 94.5484 129.853 94.506 135.705 90.6019 136.797 85.0479 136.445 78.3489 135.93 68.5253 136.313 58.6546 136.313 48.804L136.313 45.903C135.344 45.903 134.513 45.903 133.682 45.903 124.614 45.9028 115.545 45.906 106.476 45.8973 105.618 45.8964 104.747 45.9044 103.905 45.7645 101.696 45.3969 100.189 43.5784 100.146 41.3424 100.104 39.0863 101.509 37.2023 103.704 36.7557 104.689 36.5553 105.723 36.535 106.735 36.5331 115.569 36.5171 124.403 36.5238 133.238 36.5237 134.165 36.5237 135.092 36.5237 136.313 36.5237 136.313 35.5044 136.313 34.6692 136.313 33.834 136.313 27.5015 136.282 21.1687 136.323 14.8364 136.36 9.15803 140.19 5.1912 145.881 5.17805 169.179 5.12423 192.476 5.12715 215.774 5.174 221.586 5.18569 225.404 9.14331 225.436 14.9734 225.472 21.2275 225.445 27.4821 225.445 33.7364 225.445 34.5776 225.445 35.4188 225.445 36.5238 227.529 36.5238 229.383 36.5237 231.237 36.5238 241.693 36.524 244.919 38.6284 248.902 48.0457L248.902 193.944ZM145.693 14.6691C145.693 15.6639 145.693 16.5088 145.693 17.3537 145.693 41.1085 145.674 64.8634 145.724 88.6181 145.729 90.8971 145.08 92.6857 143.404 94.2278 140.993 96.4469 138.681 98.7752 136.089 101.288 138.68 103.804 141.039 106.175 143.49 108.447 145.098 109.937 145.771 111.663 145.722 113.856 145.625 118.202 145.693 122.551 145.693 126.956L215.949 126.956 215.949 14.6691 145.693 14.6691ZM62.8524 137.87C48.8964 145.49 39.9071 162.929 41.8689 177.125L125.513 177.125C127.213 163.919 119.319 146.145 104.6 137.869 92.0429 148.606 73.9358 147.626 62.8524 137.87ZM61.24 107.573C61.3844 107.587 61.5287 107.601 61.6731 107.615 61.6731 110.038 61.6154 112.463 61.6829 114.885 61.9968 126.15 70.9598 135.506 82.0669 136.202 93.7184 136.932 104.132 128.851 105.302 117.351 105.985 110.639 105.911 103.733 105.179 97.023 104.09 87.0289 95.5275 79.5858 85.6167 79.0071 74.3722 78.3506 65.2568 84.336 62.7013 94.6074 61.6604 98.7915 61.6949 103.243 61.24 107.573ZM18.1034 186.752C18.1034 188.5 18.0344 189.984 18.1186 191.459 18.2677 194.072 19.9593 195.751 22.5922 195.983 23.291 196.045 23.998 196.025 24.7012 196.025 94.1166 196.027 163.532 196.027 232.947 196.023 233.806 196.023 234.674 196.034 235.52 195.917 237.731 195.611 239.094 194.23 239.398 192.113 239.647 190.386 239.449 188.595 239.449 186.752L18.1034 186.752ZM106.82 233.434 150.798 233.434C148.26 223.972 145.784 214.738 143.283 205.413 133.898 205.413 124.688 205.396 115.479 205.461 114.988 205.465 114.19 206.085 114.059 206.562 111.622 215.419 109.264 224.299 106.82 233.434Z" class="MsftOfcThm_Accent6_lumMod_60_lumOff_40_Fill_v2" fill="#FB786D"/><path d="M83.7396 36.6478C86.368 36.6834 88.3527 38.6587 88.3649 41.2514 88.3771 43.8429 86.1368 45.9605 83.4843 45.8649 80.9005 45.7717 78.971 43.7089 79.0394 41.1129 79.1087 38.4806 81.0761 36.6117 83.7396 36.6478Z" class="MsftOfcThm_Accent6_lumMod_60_lumOff_40_Fill_v2" fill="#FB786D"/><path d="M181.141 25.4928C187.774 25.4928 194.407 25.483 201.039 25.4968 204.572 25.5041 206.594 27.1683 206.645 30.0538 206.694 32.9157 204.597 34.8505 201.212 34.8584 187.634 34.8901 174.057 34.8846 160.48 34.8606 157.642 34.8555 155.681 33.4634 155.208 31.1539 154.771 29.0171 155.514 27.2266 157.41 26.1803 158.307 25.685 159.487 25.5301 160.542 25.5216 167.408 25.466 174.275 25.493 181.141 25.4928Z" class="MsftOfcThm_Accent6_lumMod_60_lumOff_40_Fill_v2" fill="#FB786D"/><path d="M180.885 55.1395C174.175 55.1395 167.464 55.1541 160.753 55.1336 157.161 55.1226 155.026 53.2912 155.096 50.3596 155.162 47.5529 157.315 45.7685 160.736 45.7653 174.235 45.7529 187.734 45.7459 201.233 45.771 204.615 45.7773 206.714 47.7025 206.645 50.5736 206.577 53.3833 204.588 55.0683 201.251 55.137 200.705 55.1482 200.158 55.1399 199.612 55.14 193.37 55.1401 187.128 55.14 180.885 55.1395Z" class="MsftOfcThm_Accent6_lumMod_60_lumOff_40_Fill_v2" fill="#FB786D"/><path d="M180.847 86.4822C187.792 86.4822 194.737 86.4398 201.681 86.4989 205.535 86.5318 207.957 90.0978 206.038 93.18 205.262 94.4261 203.372 95.7045 201.972 95.7233 187.929 95.9117 173.883 95.8787 159.838 95.8112 157.007 95.7976 155.046 93.6244 155.094 91.0402 155.142 88.4029 157.11 86.5129 160.014 86.4957 166.958 86.4543 173.903 86.4823 180.847 86.4822Z" class="MsftOfcThm_Accent6_lumMod_60_lumOff_40_Fill_v2" fill="#FB786D"/><path d="M180.847 116.126C174.136 116.126 167.425 116.141 160.715 116.12 157.232 116.109 155.149 114.381 155.094 111.541 155.037 108.65 157.251 106.754 160.774 106.751 174.196 106.739 187.617 106.739 201.038 106.753 204.097 106.756 205.809 107.885 206.464 110.214 207.333 113.306 205.18 116.062 201.68 116.098 194.736 116.168 187.791 116.118 180.847 116.118L180.847 116.126Z" class="MsftOfcThm_Accent6_lumMod_60_lumOff_40_Fill_v2" fill="#FB786D"/><path d="M180.834 66.1411C187.635 66.1411 194.436 66.1173 201.237 66.152 204.221 66.1672 205.813 67.2596 206.462 69.5468 207.192 72.1198 205.681 74.713 203.061 75.2772 202.228 75.4564 201.355 75.5068 200.5 75.5077 187.367 75.5214 174.234 75.5188 161.101 75.5119 160.478 75.5116 159.848 75.482 159.233 75.3881 156.653 74.9942 154.964 72.9997 155.099 70.548 155.23 68.1792 156.981 66.298 159.495 66.2102 163.321 66.0765 167.154 66.1476 170.984 66.1401 174.268 66.1336 177.551 66.1387 180.834 66.1411Z" class="MsftOfcThm_Accent6_lumMod_60_lumOff_40_Fill_v2" fill="#FB786D"/></svg>