<svg viewBox="0 0 960 960" xmlns="http://www.w3.org/2000/svg" xmlns:xlink="http://www.w3.org/1999/xlink" id="03356d39-3900-4640-a442-bed52bcb415d" overflow="hidden"><style>
.MsftOfcThm_Accent4_Fill_v2 {
 fill:#D9740B; 
}
</style>
<rect x="107.791" y="447.931" width="221" height="298" class="MsftOfcThm_Accent4_Fill_v2" fill="#D9740B" transform="matrix(0.9815 -0.1913 0.1913 0.9815 -110.16 52.7828)"/><g><rect x="212.329" y="485.317" width="221" height="298" class="st1" fill="#F2F2F2"/><path d="M401.829 737.192 243.829 737.192 243.829 736.192 401.829 736.192 401.829 737.192ZM401.829 726.992 243.829 726.992 243.829 727.992 401.829 727.992 401.829 726.992ZM401.829 717.792 243.829 717.792 243.829 718.792 401.829 718.792 401.829 717.792ZM401.829 708.592 243.829 708.592 243.829 709.592 401.829 709.592 401.829 708.592ZM401.829 699.392 243.829 699.392 243.829 700.392 401.829 700.392 401.829 699.392ZM401.829 690.192 243.829 690.192 243.829 691.192 401.829 691.192 401.829 690.192ZM401.829 680.992 243.829 680.992 243.829 681.992 401.829 681.992 401.829 680.992ZM401.829 671.792 243.829 671.792 243.829 672.792 401.829 672.792 401.829 671.792ZM401.829 662.592 243.829 662.592 243.829 663.592 401.829 663.592 401.829 662.592ZM401.829 653.392 243.829 653.392 243.829 654.392 401.829 654.392 401.829 653.392ZM401.829 644.192 243.829 644.192 243.829 645.192 401.829 645.192 401.829 644.192ZM401.829 634.992 243.829 634.992 243.829 635.992 401.829 635.992 401.829 634.992ZM401.829 625.792 243.829 625.792 243.829 626.792 401.829 626.792 401.829 625.792ZM401.829 616.592 243.829 616.592 243.829 617.592 401.829 617.592 401.829 616.592ZM401.829 607.392 243.829 607.392 243.829 608.392 401.829 608.392 401.829 607.392ZM401.829 598.192 243.829 598.192 243.829 599.192 401.829 599.192 401.829 598.192ZM401.829 588.992 243.829 588.992 243.829 589.992 401.829 589.992 401.829 588.992ZM401.829 579.792 243.829 579.792 243.829 580.792 401.829 580.792 401.829 579.792ZM401.829 570.592 243.829 570.592 243.829 571.592 401.829 571.592 401.829 570.592ZM401.829 561.392 243.829 561.392 243.829 562.392 401.829 562.392 401.829 561.392ZM401.829 552.192 243.829 552.192 243.829 553.192 401.829 553.192 401.829 552.192ZM401.829 542.992 243.829 542.992 243.829 543.992 401.829 543.992 401.829 542.992ZM401.829 533.792 243.829 533.792 243.829 534.792 401.829 534.792 401.829 533.792Z" class="st2" fill="#CFCFCF"/></g><path d="M884.542 512.444C880.75 504.152 854.742 507.536 815.497 513.643 788.76 517.804 758.456 522.521 755.597 516.574 754.97 515.269 755.542 512.503 761.831 506.738 765.783 503.115 767.049 499.381 765.593 495.639 760.217 481.817 717.851 473 697.491 473L692 473 692 467 659 467 659 481.493 692 481.493 692 475 697.491 475C720.367 475 759.143 484.571 763.73 496.364 764.872 499.301 763.809 502.211 760.48 505.263 754.542 510.707 752.417 514.576 753.795 517.44 757.061 524.234 779.401 521.284 815.805 515.619 845.556 510.988 879.278 505.74 882.723 513.275 883.715 515.443 882.401 520.147 870.509 530.237 819.455 573.556 830.12 612.425 843.621 661.636 847.809 676.899 852.139 692.681 855.17 710.171 861.528 746.852 844.896 767.873 829.824 779.048 803.827 798.324 764.885 801.431 753.679 795.79 752.528 795.21 751.156 794.256 751.156 792.999L751.156 783.999 755.156 783.999 755.156 759.999 745.156 759.999 745.156 783.999 749.156 783.999 749.156 792.999C749.156 794.255 749.785 796.068 752.78 797.576 756.205 799.3 762.184 800.307 769.623 800.307 786.795 800.307 811.747 794.942 831.016 780.654 846.54 769.144 863.674 747.513 857.142 709.828 854.094 692.245 849.751 676.414 845.551 661.106 838.732 636.253 832.843 614.789 834.836 593.899 837.016 571.056 848.763 551.312 871.804 531.762 882.407 522.765 886.455 516.626 884.542 512.444Z" class="st2" fill="#CFCFCF"/><g><path d="M655.661 746.103 457.988 776.524 455.865 762.731 653.538 732.31 675.352 735.99Z" class="MsftOfcThm_Accent4_Fill_v2" fill="#D9740B"/><rect x="487.356" y="751.81" width="122" height="1" class="st3" fill="#FFFFFF" transform="matrix(0.9884 -0.1521 0.1521 0.9884 -108.051 92.1625)"/></g><g><path d="M182.075 684 86.947 684C82.484 684 78.866 680.382 78.866 675.919L78.866 476.979C78.866 472.516 82.484 468.898 86.947 468.898L182.075 468.898C186.538 468.898 190.156 472.516 190.156 476.979L190.156 675.919C190.156 680.382 186.538 684 182.075 684Z" class="st4" fill="#505050"/><g><g><circle cx="97.464" cy="582.153" r="5.806" class="st5" fill="#737373"/><circle cx="116.335" cy="582.153" r="5.806" class="st5" fill="#737373"/><circle cx="96.353" cy="550.081" r="3.871" class="st2" fill="#CFCFCF"/><circle cx="115.224" cy="550.081" r="3.871" class="st5" fill="#737373"/><circle cx="135.206" cy="582.153" r="5.806" class="st5" fill="#737373"/><circle cx="154.077" cy="582.153" r="5.806" class="st5" fill="#737373"/><circle cx="172.948" cy="582.153" r="5.806" class="st5" fill="#737373"/></g><g><circle cx="97.464" cy="600.54" r="5.806" class="st2" fill="#CFCFCF"/><circle cx="116.335" cy="600.54" r="5.806" class="st5" fill="#737373"/><circle cx="135.206" cy="600.54" r="5.806" class="st5" fill="#737373"/><circle cx="154.077" cy="600.54" r="5.806" class="st5" fill="#737373"/><circle cx="172.948" cy="600.54" r="5.806" class="st2" fill="#CFCFCF"/></g><g><circle cx="97.464" cy="618.927" r="5.806" class="st2" fill="#CFCFCF"/><circle cx="116.335" cy="618.927" r="5.806" class="st5" fill="#737373"/><circle cx="135.206" cy="618.927" r="5.806" class="st5" fill="#737373"/><circle cx="154.077" cy="618.927" r="5.806" class="st5" fill="#737373"/><circle cx="172.948" cy="618.927" r="5.806" class="st2" fill="#CFCFCF"/></g><g><circle cx="97.464" cy="637.314" r="5.806" class="st2" fill="#CFCFCF"/><circle cx="116.335" cy="637.314" r="5.806" class="st5" fill="#737373"/><circle cx="135.206" cy="637.314" r="5.806" class="st5" fill="#737373"/><circle cx="154.077" cy="637.314" r="5.806" class="st5" fill="#737373"/><circle cx="172.948" cy="637.314" r="5.806" class="st2" fill="#CFCFCF"/></g><g><circle cx="97.464" cy="655.701" r="5.806" class="st2" fill="#CFCFCF"/><circle cx="116.335" cy="655.701" r="5.806" class="st5" fill="#737373"/><circle cx="135.206" cy="655.701" r="5.806" class="st2" fill="#CFCFCF"/><circle cx="154.077" cy="655.701" r="5.806" class="MsftOfcThm_Accent4_Fill_v2" fill="#D9740B"/><circle cx="172.948" cy="655.701" r="5.806" class="st2" fill="#CFCFCF"/></g></g><rect x="88.911" y="499.104" width="92.903" height="33.441" class="st2" fill="#CFCFCF"/><rect x="88.254" y="485.074" width="23.609" height="4.809" class="st2" fill="#CFCFCF"/></g><g><path d="M806.446 558.99C806.446 553.473 801.973 549 796.456 549L705.145 549C699.628 549 695.155 553.473 695.155 558.99L695.155 755.112C695.155 760.629 699.628 765.102 705.145 765.102L796.456 765.102C801.973 765.102 806.446 760.629 806.446 755.112L806.446 558.99Z" class="st4" fill="#505050"/><rect x="700.72" y="560" width="100.162" height="192.309" class="st6" fill="#E6E6E6"/><path d="M700.72 689.28 700.72 724.188 700.72 752.31 800.882 752.31 800.882 589.118Z" class="st7" fill="#D2D2D2"/><path d="M776.156 680 724.156 680C722.499 680 721.156 678.657 721.156 677 721.156 675.343 722.499 674 724.156 674L776.156 674C777.813 674 779.156 675.343 779.156 677 779.156 678.657 777.813 680 776.156 680Z" class="st3" fill="#FFFFFF"/><path d="M776.156 694 724.156 694C722.499 694 721.156 692.657 721.156 691 721.156 689.343 722.499 688 724.156 688L776.156 688C777.813 688 779.156 689.343 779.156 691 779.156 692.657 777.813 694 776.156 694Z" class="st3" fill="#FFFFFF"/></g><g><rect x="659" y="433" width="12.156" height="28" class="st5" fill="#737373"/><path d="M651.865 684 249.865 684C243.238 684 237.865 678.627 237.865 672L237.865 396C237.865 389.373 243.238 384 249.865 384L651.865 384C658.492 384 663.865 389.373 663.865 396L663.865 672C663.865 678.628 658.493 684 651.865 684Z" class="st5" fill="#737373"/><rect x="300.865" y="380" width="301" height="29" class="st8" fill="#2F2F2F"/><path d="M515.811 670 385.648 670C382.234 670 379.467 667.233 379.467 663.819L379.467 592.181C379.467 588.767 382.234 586 385.648 586L515.811 586C519.225 586 521.992 588.767 521.992 592.181L521.992 663.819C521.992 667.233 519.224 670 515.811 670Z" class="st4" fill="#505050"/><path d="M636.095 573 266.543 572.847C262.372 572.845 258.991 569.463 258.991 565.292L258.991 414.09C258.991 409.916 262.375 406.534 266.549 406.535L636.101 406.688C640.272 406.69 643.653 410.072 643.653 414.243L643.653 565.446C643.653 569.619 640.269 573.002 636.095 573Z" class="st4" fill="#505050"/><g><g><path d="M300.997 431.283 270.134 431.283C268.786 431.283 267.693 432.376 267.693 433.724L267.693 450.809C267.693 452.157 268.786 453.25 270.134 453.25L300.997 453.25C302.345 453.25 303.438 452.157 303.438 450.809L303.438 433.724C303.437 432.376 302.345 431.283 300.997 431.283Z" class="st8" fill="#2F2F2F"/><path d="M308.037 450.809 308.037 433.724C308.037 432.376 309.13 431.283 310.478 431.283L327.563 431.283C328.911 431.283 330.004 432.376 330.004 433.724L330.004 450.809C330.004 452.157 328.911 453.25 327.563 453.25L310.478 453.25C309.13 453.25 308.037 452.157 308.037 450.809Z" class="st8" fill="#2F2F2F"/><path d="M334.603 450.809 334.603 433.724C334.603 432.376 335.696 431.283 337.044 431.283L354.129 431.283C355.477 431.283 356.57 432.376 356.57 433.724L356.57 450.809C356.57 452.157 355.477 453.25 354.129 453.25L337.044 453.25C335.696 453.25 334.603 452.157 334.603 450.809Z" class="st8" fill="#2F2F2F"/><path d="M361.17 450.809 361.17 433.724C361.17 432.376 362.263 431.283 363.611 431.283L380.696 431.283C382.044 431.283 383.137 432.376 383.137 433.724L383.137 450.809C383.137 452.157 382.044 453.25 380.696 453.25L363.61 453.25C362.262 453.25 361.17 452.157 361.17 450.809Z" class="st8" fill="#2F2F2F"/><path d="M387.736 450.809 387.736 433.724C387.736 432.376 388.829 431.283 390.177 431.283L407.262 431.283C408.61 431.283 409.703 432.376 409.703 433.724L409.703 450.809C409.703 452.157 408.61 453.25 407.262 453.25L390.177 453.25C388.829 453.25 387.736 452.157 387.736 450.809Z" class="st8" fill="#2F2F2F"/><path d="M414.302 450.809 414.302 433.724C414.302 432.376 415.395 431.283 416.743 431.283L433.828 431.283C435.176 431.283 436.269 432.376 436.269 433.724L436.269 450.809C436.269 452.157 435.176 453.25 433.828 453.25L416.743 453.25C415.395 453.25 414.302 452.157 414.302 450.809Z" class="st8" fill="#2F2F2F"/><path d="M440.868 450.809 440.868 433.724C440.868 432.376 441.961 431.283 443.309 431.283L460.394 431.283C461.742 431.283 462.835 432.376 462.835 433.724L462.835 450.809C462.835 452.157 461.742 453.25 460.394 453.25L443.309 453.25C441.961 453.25 440.868 452.157 440.868 450.809Z" class="st8" fill="#2F2F2F"/><path d="M467.434 450.809 467.434 433.724C467.434 432.376 468.527 431.283 469.875 431.283L486.96 431.283C488.308 431.283 489.401 432.376 489.401 433.724L489.401 450.809C489.401 452.157 488.308 453.25 486.96 453.25L469.875 453.25C468.527 453.25 467.434 452.157 467.434 450.809Z" class="st8" fill="#2F2F2F"/><path d="M494.001 450.809 494.001 433.724C494.001 432.376 495.094 431.283 496.442 431.283L513.527 431.283C514.875 431.283 515.968 432.376 515.968 433.724L515.968 450.809C515.968 452.157 514.875 453.25 513.527 453.25L496.442 453.25C495.093 453.25 494.001 452.157 494.001 450.809Z" class="st8" fill="#2F2F2F"/><path d="M520.567 450.809 520.567 433.724C520.567 432.376 521.66 431.283 523.008 431.283L540.093 431.283C541.441 431.283 542.534 432.376 542.534 433.724L542.534 450.809C542.534 452.157 541.441 453.25 540.093 453.25L523.008 453.25C521.659 453.25 520.567 452.157 520.567 450.809Z" class="st8" fill="#2F2F2F"/><path d="M547.133 450.809 547.133 433.724C547.133 432.376 548.226 431.283 549.574 431.283L566.659 431.283C568.007 431.283 569.1 432.376 569.1 433.724L569.1 450.809C569.1 452.157 568.007 453.25 566.659 453.25L549.574 453.25C548.226 453.25 547.133 452.157 547.133 450.809Z" class="st8" fill="#2F2F2F"/><path d="M573.699 450.809 573.699 433.724C573.699 432.376 574.792 431.283 576.14 431.283L593.225 431.283C594.573 431.283 595.666 432.376 595.666 433.724L595.666 450.809C595.666 452.157 594.573 453.25 593.225 453.25L576.14 453.25C574.792 453.25 573.699 452.157 573.699 450.809Z" class="st8" fill="#2F2F2F"/></g><g><path d="M287.219 481.318 270.134 481.318C268.786 481.318 267.693 480.225 267.693 478.877L267.693 461.792C267.693 460.444 268.786 459.351 270.134 459.351L287.219 459.351C288.567 459.351 289.66 460.444 289.66 461.792L289.66 478.877C289.659 480.225 288.566 481.318 287.219 481.318Z" class="st8" fill="#2F2F2F"/><path d="M294.259 478.877 294.259 461.792C294.259 460.444 295.352 459.351 296.7 459.351L313.785 459.351C315.133 459.351 316.226 460.444 316.226 461.792L316.226 478.877C316.226 480.225 315.133 481.318 313.785 481.318L296.7 481.318C295.352 481.318 294.259 480.225 294.259 478.877Z" class="st8" fill="#2F2F2F"/><path d="M320.825 478.877 320.825 461.792C320.825 460.444 321.918 459.351 323.266 459.351L340.351 459.351C341.699 459.351 342.792 460.444 342.792 461.792L342.792 478.877C342.792 480.225 341.699 481.318 340.351 481.318L323.266 481.318C321.918 481.318 320.825 480.225 320.825 478.877Z" class="st8" fill="#2F2F2F"/><path d="M347.391 478.877 347.391 461.792C347.391 460.444 348.484 459.351 349.832 459.351L366.917 459.351C368.265 459.351 369.358 460.444 369.358 461.792L369.358 478.877C369.358 480.225 368.265 481.318 366.917 481.318L349.832 481.318C348.484 481.318 347.391 480.225 347.391 478.877Z" class="st8" fill="#2F2F2F"/><path d="M373.958 478.877 373.958 461.792C373.958 460.444 375.051 459.351 376.399 459.351L393.484 459.351C394.832 459.351 395.925 460.444 395.925 461.792L395.925 478.877C395.925 480.225 394.832 481.318 393.484 481.318L376.399 481.318C375.05 481.318 373.958 480.225 373.958 478.877Z" class="st8" fill="#2F2F2F"/><path d="M400.524 478.877 400.524 461.792C400.524 460.444 401.617 459.351 402.965 459.351L420.05 459.351C421.398 459.351 422.491 460.444 422.491 461.792L422.491 478.877C422.491 480.225 421.398 481.318 420.05 481.318L402.965 481.318C401.617 481.318 400.524 480.225 400.524 478.877Z" class="st8" fill="#2F2F2F"/><path d="M427.09 478.877 427.09 461.792C427.09 460.444 428.183 459.351 429.531 459.351L446.616 459.351C447.964 459.351 449.057 460.444 449.057 461.792L449.057 478.877C449.057 480.225 447.964 481.318 446.616 481.318L429.531 481.318C428.183 481.318 427.09 480.225 427.09 478.877Z" class="st8" fill="#2F2F2F"/><path d="M453.656 478.877 453.656 461.792C453.656 460.444 454.749 459.351 456.097 459.351L473.182 459.351C474.53 459.351 475.623 460.444 475.623 461.792L475.623 478.877C475.623 480.225 474.53 481.318 473.182 481.318L456.097 481.318C454.749 481.318 453.656 480.225 453.656 478.877Z" class="st8" fill="#2F2F2F"/><path d="M480.222 478.877 480.222 461.792C480.222 460.444 481.315 459.351 482.663 459.351L499.748 459.351C501.096 459.351 502.189 460.444 502.189 461.792L502.189 478.877C502.189 480.225 501.096 481.318 499.748 481.318L482.663 481.318C481.315 481.318 480.222 480.225 480.222 478.877Z" class="st8" fill="#2F2F2F"/><path d="M506.789 478.877 506.789 461.792C506.789 460.444 507.882 459.351 509.23 459.351L526.315 459.351C527.663 459.351 528.756 460.444 528.756 461.792L528.756 478.877C528.756 480.225 527.663 481.318 526.315 481.318L509.23 481.318C507.881 481.318 506.789 480.225 506.789 478.877Z" class="st8" fill="#2F2F2F"/><path d="M533.355 478.877 533.355 461.792C533.355 460.444 534.448 459.351 535.796 459.351L552.881 459.351C554.229 459.351 555.322 460.444 555.322 461.792L555.322 478.877C555.322 480.225 554.229 481.318 552.881 481.318L535.796 481.318C534.447 481.318 533.355 480.225 533.355 478.877Z" class="st8" fill="#2F2F2F"/><path d="M559.921 478.877 559.921 461.792C559.921 460.444 561.014 459.351 562.362 459.351L579.447 459.351C580.795 459.351 581.888 460.444 581.888 461.792L581.888 478.877C581.888 480.225 580.795 481.318 579.447 481.318L562.362 481.318C561.014 481.318 559.921 480.225 559.921 478.877Z" class="st8" fill="#2F2F2F"/><path d="M586.487 478.877 586.487 461.792C586.487 460.444 587.58 459.351 588.928 459.351L606.013 459.351C607.361 459.351 608.454 460.444 608.454 461.792L608.454 478.877C608.454 480.225 607.361 481.318 606.013 481.318L588.928 481.318C587.58 481.318 586.487 480.225 586.487 478.877Z" class="st8" fill="#2F2F2F"/><path d="M632.579 481.318 615.494 481.318C614.146 481.318 613.053 480.225 613.053 478.877L613.053 461.792C613.053 460.444 614.146 459.351 615.494 459.351L632.579 459.351C633.927 459.351 635.02 460.444 635.02 461.792L635.02 478.877C635.02 480.225 633.927 481.318 632.579 481.318Z" class="st8" fill="#2F2F2F"/></g><g><path d="M287.219 425.182 270.134 425.182C268.786 425.182 267.693 424.089 267.693 422.741L267.693 416.639C267.693 415.291 268.786 414.198 270.134 414.198L287.219 414.198C288.567 414.198 289.66 415.291 289.66 416.639L289.66 422.741C289.659 424.089 288.566 425.182 287.219 425.182Z" class="st8" fill="#2F2F2F"/><path d="M294.259 422.741 294.259 416.639C294.259 415.291 295.352 414.198 296.7 414.198L313.785 414.198C315.133 414.198 316.226 415.291 316.226 416.639L316.226 422.741C316.226 424.089 315.133 425.182 313.785 425.182L296.7 425.182C295.352 425.182 294.259 424.089 294.259 422.741Z" class="st8" fill="#2F2F2F"/><path d="M320.825 422.741 320.825 416.639C320.825 415.291 321.918 414.198 323.266 414.198L340.351 414.198C341.699 414.198 342.792 415.291 342.792 416.639L342.792 422.741C342.792 424.089 341.699 425.182 340.351 425.182L323.266 425.182C321.918 425.182 320.825 424.089 320.825 422.741Z" class="st8" fill="#2F2F2F"/><path d="M347.391 422.741 347.391 416.639C347.391 415.291 348.484 414.198 349.832 414.198L366.917 414.198C368.265 414.198 369.358 415.291 369.358 416.639L369.358 422.741C369.358 424.089 368.265 425.182 366.917 425.182L349.832 425.182C348.484 425.182 347.391 424.089 347.391 422.741Z" class="st8" fill="#2F2F2F"/><path d="M373.958 422.741 373.958 416.639C373.958 415.291 375.051 414.198 376.399 414.198L393.484 414.198C394.832 414.198 395.925 415.291 395.925 416.639L395.925 422.741C395.925 424.089 394.832 425.182 393.484 425.182L376.399 425.182C375.05 425.182 373.958 424.089 373.958 422.741Z" class="st8" fill="#2F2F2F"/><path d="M400.524 422.741 400.524 416.639C400.524 415.291 401.617 414.198 402.965 414.198L420.05 414.198C421.398 414.198 422.491 415.291 422.491 416.639L422.491 422.741C422.491 424.089 421.398 425.182 420.05 425.182L402.965 425.182C401.617 425.182 400.524 424.089 400.524 422.741Z" class="st8" fill="#2F2F2F"/><path d="M427.09 422.741 427.09 416.639C427.09 415.291 428.183 414.198 429.531 414.198L446.616 414.198C447.964 414.198 449.057 415.291 449.057 416.639L449.057 422.741C449.057 424.089 447.964 425.182 446.616 425.182L429.531 425.182C428.183 425.182 427.09 424.089 427.09 422.741Z" class="st8" fill="#2F2F2F"/><path d="M453.656 422.741 453.656 416.639C453.656 415.291 454.749 414.198 456.097 414.198L473.182 414.198C474.53 414.198 475.623 415.291 475.623 416.639L475.623 422.741C475.623 424.089 474.53 425.182 473.182 425.182L456.097 425.182C454.749 425.182 453.656 424.089 453.656 422.741Z" class="st8" fill="#2F2F2F"/><path d="M480.222 422.741 480.222 416.639C480.222 415.291 481.315 414.198 482.663 414.198L499.748 414.198C501.096 414.198 502.189 415.291 502.189 416.639L502.189 422.741C502.189 424.089 501.096 425.182 499.748 425.182L482.663 425.182C481.315 425.182 480.222 424.089 480.222 422.741Z" class="st8" fill="#2F2F2F"/><path d="M506.789 422.741 506.789 416.639C506.789 415.291 507.882 414.198 509.23 414.198L526.315 414.198C527.663 414.198 528.756 415.291 528.756 416.639L528.756 422.741C528.756 424.089 527.663 425.182 526.315 425.182L509.23 425.182C507.881 425.182 506.789 424.089 506.789 422.741Z" class="st8" fill="#2F2F2F"/><path d="M533.355 422.741 533.355 416.639C533.355 415.291 534.448 414.198 535.796 414.198L552.881 414.198C554.229 414.198 555.322 415.291 555.322 416.639L555.322 422.741C555.322 424.089 554.229 425.182 552.881 425.182L535.796 425.182C534.447 425.182 533.355 424.089 533.355 422.741Z" class="st8" fill="#2F2F2F"/><path d="M559.921 422.741 559.921 416.639C559.921 415.291 561.014 414.198 562.362 414.198L579.447 414.198C580.795 414.198 581.888 415.291 581.888 416.639L581.888 422.741C581.888 424.089 580.795 425.182 579.447 425.182L562.362 425.182C561.014 425.182 559.921 424.089 559.921 422.741Z" class="st8" fill="#2F2F2F"/><path d="M586.487 422.741 586.487 416.639C586.487 415.291 587.58 414.198 588.928 414.198L606.013 414.198C607.361 414.198 608.454 415.291 608.454 416.639L608.454 422.741C608.454 424.089 607.361 425.182 606.013 425.182L588.928 425.182C587.58 425.182 586.487 424.089 586.487 422.741Z" class="st8" fill="#2F2F2F"/><path d="M632.579 425.182 615.494 425.182C614.146 425.182 613.053 424.089 613.053 422.741L613.053 416.639C613.053 415.291 614.146 414.198 615.494 414.198L632.579 414.198C633.927 414.198 635.02 415.291 635.02 416.639L635.02 422.741C635.02 424.089 633.927 425.182 632.579 425.182Z" class="st8" fill="#2F2F2F"/></g><g><path d="M300.997 487.42 270.134 487.42C268.786 487.42 267.693 488.513 267.693 489.861L267.693 506.946C267.693 508.294 268.786 509.387 270.134 509.387L300.997 509.387C302.345 509.387 303.438 508.294 303.438 506.946L303.438 489.86C303.437 488.512 302.345 487.42 300.997 487.42Z" class="st8" fill="#2F2F2F"/><path d="M632.933 487.42 602.07 487.42C600.722 487.42 599.629 488.513 599.629 489.861L599.629 506.946C599.629 508.294 600.722 509.387 602.07 509.387L632.933 509.387C634.281 509.387 635.374 508.294 635.374 506.946L635.374 489.86C635.374 488.512 634.281 487.42 632.933 487.42Z" class="st8" fill="#2F2F2F"/><path d="M632.933 431.283 602.07 431.283C600.722 431.283 599.629 432.376 599.629 433.724L599.629 450.809C599.629 452.157 600.722 453.25 602.07 453.25L632.933 453.25C634.281 453.25 635.374 452.157 635.374 450.809L635.374 433.724C635.374 432.376 634.281 431.283 632.933 431.283Z" class="st8" fill="#2F2F2F"/><path d="M308.037 506.945 308.037 489.86C308.037 488.512 309.13 487.419 310.478 487.419L327.563 487.419C328.911 487.419 330.004 488.512 330.004 489.86L330.004 506.945C330.004 508.293 328.911 509.386 327.563 509.386L310.478 509.386C309.13 509.386 308.037 508.293 308.037 506.945Z" class="st8" fill="#2F2F2F"/><path d="M334.603 506.945 334.603 489.86C334.603 488.512 335.696 487.419 337.044 487.419L354.129 487.419C355.477 487.419 356.57 488.512 356.57 489.86L356.57 506.945C356.57 508.293 355.477 509.386 354.129 509.386L337.044 509.386C335.696 509.386 334.603 508.293 334.603 506.945Z" class="st8" fill="#2F2F2F"/><path d="M361.17 506.945 361.17 489.86C361.17 488.512 362.263 487.419 363.611 487.419L380.696 487.419C382.044 487.419 383.137 488.512 383.137 489.86L383.137 506.945C383.137 508.293 382.044 509.386 380.696 509.386L363.61 509.386C362.262 509.386 361.17 508.293 361.17 506.945Z" class="st8" fill="#2F2F2F"/><path d="M387.736 506.945 387.736 489.86C387.736 488.512 388.829 487.419 390.177 487.419L407.262 487.419C408.61 487.419 409.703 488.512 409.703 489.86L409.703 506.945C409.703 508.293 408.61 509.386 407.262 509.386L390.177 509.386C388.829 509.386 387.736 508.293 387.736 506.945Z" class="st8" fill="#2F2F2F"/><path d="M414.302 506.945 414.302 489.86C414.302 488.512 415.395 487.419 416.743 487.419L433.828 487.419C435.176 487.419 436.269 488.512 436.269 489.86L436.269 506.945C436.269 508.293 435.176 509.386 433.828 509.386L416.743 509.386C415.395 509.386 414.302 508.293 414.302 506.945Z" class="st8" fill="#2F2F2F"/><path d="M440.868 506.945 440.868 489.86C440.868 488.512 441.961 487.419 443.309 487.419L460.394 487.419C461.742 487.419 462.835 488.512 462.835 489.86L462.835 506.945C462.835 508.293 461.742 509.386 460.394 509.386L443.309 509.386C441.961 509.386 440.868 508.293 440.868 506.945Z" class="st8" fill="#2F2F2F"/><path d="M467.434 506.945 467.434 489.86C467.434 488.512 468.527 487.419 469.875 487.419L486.96 487.419C488.308 487.419 489.401 488.512 489.401 489.86L489.401 506.945C489.401 508.293 488.308 509.386 486.96 509.386L469.875 509.386C468.527 509.386 467.434 508.293 467.434 506.945Z" class="st8" fill="#2F2F2F"/><path d="M494.001 506.945 494.001 489.86C494.001 488.512 495.094 487.419 496.442 487.419L513.527 487.419C514.875 487.419 515.968 488.512 515.968 489.86L515.968 506.945C515.968 508.293 514.875 509.386 513.527 509.386L496.442 509.386C495.093 509.386 494.001 508.293 494.001 506.945Z" class="st8" fill="#2F2F2F"/><path d="M520.567 506.945 520.567 489.86C520.567 488.512 521.66 487.419 523.008 487.419L540.093 487.419C541.441 487.419 542.534 488.512 542.534 489.86L542.534 506.945C542.534 508.293 541.441 509.386 540.093 509.386L523.008 509.386C521.659 509.386 520.567 508.293 520.567 506.945Z" class="st8" fill="#2F2F2F"/><path d="M547.133 506.945 547.133 489.86C547.133 488.512 548.226 487.419 549.574 487.419L566.659 487.419C568.007 487.419 569.1 488.512 569.1 489.86L569.1 506.945C569.1 508.293 568.007 509.386 566.659 509.386L549.574 509.386C548.226 509.386 547.133 508.293 547.133 506.945Z" class="st8" fill="#2F2F2F"/><path d="M573.699 506.945 573.699 489.86C573.699 488.512 574.792 487.419 576.14 487.419L593.225 487.419C594.573 487.419 595.666 488.512 595.666 489.86L595.666 506.945C595.666 508.293 594.573 509.386 593.225 509.386L576.14 509.386C574.792 509.386 573.699 508.293 573.699 506.945Z" class="st8" fill="#2F2F2F"/></g><g><path d="M313.996 537.454 270.133 537.454C268.785 537.454 267.692 536.361 267.692 535.013L267.692 517.928C267.692 516.58 268.785 515.487 270.133 515.487L313.996 515.487C315.344 515.487 316.437 516.58 316.437 517.928L316.437 535.013C316.437 536.361 315.344 537.454 313.996 537.454Z" class="st8" fill="#2F2F2F"/><path d="M320.825 535.013 320.825 517.928C320.825 516.58 321.918 515.487 323.266 515.487L340.351 515.487C341.699 515.487 342.792 516.58 342.792 517.928L342.792 535.013C342.792 536.361 341.699 537.454 340.351 537.454L323.266 537.454C321.918 537.454 320.825 536.361 320.825 535.013Z" class="st8" fill="#2F2F2F"/><path d="M347.391 535.013 347.391 517.928C347.391 516.58 348.484 515.487 349.832 515.487L366.917 515.487C368.265 515.487 369.358 516.58 369.358 517.928L369.358 535.013C369.358 536.361 368.265 537.454 366.917 537.454L349.832 537.454C348.484 537.454 347.391 536.361 347.391 535.013Z" class="st8" fill="#2F2F2F"/><path d="M373.958 535.013 373.958 517.928C373.958 516.58 375.051 515.487 376.399 515.487L393.484 515.487C394.832 515.487 395.925 516.58 395.925 517.928L395.925 535.013C395.925 536.361 394.832 537.454 393.484 537.454L376.399 537.454C375.05 537.454 373.958 536.361 373.958 535.013Z" class="st8" fill="#2F2F2F"/><path d="M400.524 535.013 400.524 517.928C400.524 516.58 401.617 515.487 402.965 515.487L420.05 515.487C421.398 515.487 422.491 516.58 422.491 517.928L422.491 535.013C422.491 536.361 421.398 537.454 420.05 537.454L402.965 537.454C401.617 537.454 400.524 536.361 400.524 535.013Z" class="st8" fill="#2F2F2F"/><path d="M427.09 535.013 427.09 517.928C427.09 516.58 428.183 515.487 429.531 515.487L446.616 515.487C447.964 515.487 449.057 516.58 449.057 517.928L449.057 535.013C449.057 536.361 447.964 537.454 446.616 537.454L429.531 537.454C428.183 537.454 427.09 536.361 427.09 535.013Z" class="st8" fill="#2F2F2F"/><path d="M453.656 535.013 453.656 517.928C453.656 516.58 454.749 515.487 456.097 515.487L473.182 515.487C474.53 515.487 475.623 516.58 475.623 517.928L475.623 535.013C475.623 536.361 474.53 537.454 473.182 537.454L456.097 537.454C454.749 537.454 453.656 536.361 453.656 535.013Z" class="st8" fill="#2F2F2F"/><path d="M480.222 535.013 480.222 517.928C480.222 516.58 481.315 515.487 482.663 515.487L499.748 515.487C501.096 515.487 502.189 516.58 502.189 517.928L502.189 535.013C502.189 536.361 501.096 537.454 499.748 537.454L482.663 537.454C481.315 537.454 480.222 536.361 480.222 535.013Z" class="st8" fill="#2F2F2F"/><path d="M506.789 535.013 506.789 517.928C506.789 516.58 507.882 515.487 509.23 515.487L526.315 515.487C527.663 515.487 528.756 516.58 528.756 517.928L528.756 535.013C528.756 536.361 527.663 537.454 526.315 537.454L509.23 537.454C507.881 537.454 506.789 536.361 506.789 535.013Z" class="st8" fill="#2F2F2F"/><path d="M533.355 535.013 533.355 517.928C533.355 516.58 534.448 515.487 535.796 515.487L552.881 515.487C554.229 515.487 555.322 516.58 555.322 517.928L555.322 535.013C555.322 536.361 554.229 537.454 552.881 537.454L535.796 537.454C534.447 537.454 533.355 536.361 533.355 535.013Z" class="st8" fill="#2F2F2F"/><path d="M559.921 535.013 559.921 517.928C559.921 516.58 561.014 515.487 562.362 515.487L579.447 515.487C580.795 515.487 581.888 516.58 581.888 517.928L581.888 535.013C581.888 536.361 580.795 537.454 579.447 537.454L562.362 537.454C561.014 537.454 559.921 536.361 559.921 535.013Z" class="st8" fill="#2F2F2F"/><path d="M586.487 535.013 586.487 517.928C587.44 516.975 587.975 516.44 588.928 515.487L632.507 515.487C633.46 516.44 633.995 516.975 634.948 517.928L634.948 535.013C633.995 535.966 633.46 536.501 632.507 537.454L588.928 537.454C587.975 536.501 587.44 535.967 586.487 535.013Z" class="st8" fill="#2F2F2F"/></g><g><path d="M287.219 564.967 270.134 564.967C268.786 564.967 267.693 563.874 267.693 562.526L267.693 545.441C267.693 544.093 268.786 543 270.134 543L287.219 543C288.567 543 289.66 544.093 289.66 545.441L289.66 562.526C289.659 563.874 288.566 564.967 287.219 564.967Z" class="st8" fill="#2F2F2F"/><path d="M294.259 562.526 294.259 545.441C294.259 544.093 295.352 543 296.7 543L313.785 543C315.133 543 316.226 544.093 316.226 545.441L316.226 562.526C316.226 563.874 315.133 564.967 313.785 564.967L296.7 564.967C295.352 564.967 294.259 563.874 294.259 562.526Z" class="st8" fill="#2F2F2F"/><path d="M320.825 562.526 320.825 545.441C320.825 544.093 321.918 543 323.266 543L340.351 543C341.699 543 342.792 544.093 342.792 545.441L342.792 562.526C342.792 563.874 341.699 564.967 340.351 564.967L323.266 564.967C321.918 564.967 320.825 563.874 320.825 562.526Z" class="st8" fill="#2F2F2F"/><path d="M347.391 562.526 347.391 545.441C348.739 545.441 349.832 544.348 349.832 543L366.917 543C366.917 544.348 368.01 545.441 369.358 545.441L369.358 562.526C368.01 562.526 366.917 563.619 366.917 564.967L349.832 564.967C349.832 563.619 348.739 562.526 347.391 562.526Z" class="st8" fill="#2F2F2F"/><path d="M373.444 562.526 373.444 545.441C373.444 544.093 374.537 543 375.885 543L526.409 543C527.757 543 528.85 544.093 528.85 545.441L528.85 562.526C528.85 563.874 527.757 564.967 526.409 564.967L375.884 564.967C374.536 564.967 373.444 563.874 373.444 562.526Z" class="st8" fill="#2F2F2F"/><path d="M533.355 562.526 533.355 545.441C533.355 544.093 534.448 543 535.796 543L552.881 543C554.229 543 555.322 544.093 555.322 545.441L555.322 562.526C555.322 563.874 554.229 564.967 552.881 564.967L535.796 564.967C534.447 564.967 533.355 563.874 533.355 562.526Z" class="st8" fill="#2F2F2F"/><path d="M560.025 562.526 560.025 545.441C560.025 544.093 561.118 543 562.466 543L579.551 543C580.899 543 581.992 544.093 581.992 545.441L581.992 562.526C581.992 563.874 580.899 564.967 579.551 564.967L562.466 564.967C561.118 564.967 560.025 563.874 560.025 562.526Z" class="st8" fill="#2F2F2F"/><path d="M612.921 562.63 612.921 545.545C612.921 544.197 614.014 543.104 615.362 543.104L632.447 543.104C633.795 543.104 634.888 544.197 634.888 545.545L634.888 562.63C634.888 563.978 633.795 565.071 632.447 565.071L615.362 565.071C614.014 565.071 612.921 563.978 612.921 562.63Z" class="st8" fill="#2F2F2F"/><path d="M606.551 553 589.466 553C588.118 553 587.025 551.907 587.025 550.559L587.025 545.44C587.025 544.092 588.118 542.999 589.466 542.999L606.551 542.999C607.899 542.999 608.992 544.092 608.992 545.44L608.992 550.559C608.992 551.907 607.899 553 606.551 553Z" class="st8" fill="#2F2F2F"/><path d="M606.551 565 589.466 565C588.118 565 587.025 563.907 587.025 562.559L587.025 557.44C587.025 556.092 588.118 554.999 589.466 554.999L606.551 554.999C607.899 554.999 608.992 556.092 608.992 557.44L608.992 562.559C608.992 563.907 607.899 565 606.551 565Z" class="st8" fill="#2F2F2F"/></g></g><path d="M198.565 196.333 198.565 190.814C198.565 183.333 202.68 176.333 210.306 176.333L691.903 176.333C699.529 176.333 703.644 182.333 703.644 190.814L703.644 197.333 198.565 196.333Z" class="st2" fill="#CFCFCF"/><path d="M248.907 370.496 400.106 370.496 560.106 210.496 216.122 210.496Z" class="st1" fill="#F2F2F2"/><path d="M654.086 369.996 685.26 210.996 556.496 210.996 397.495 369.996Z" class="st6" fill="#E6E6E6"/><path d="M251.104 368.658 219.072 212.333 557.156 212.333 584.64 184.849 583.117 184.376 210.33 184.376C202.696 184.376 197.003 191.41 198.593 198.876L236.08 374.834C237.26 380.373 242.153 384.334 247.817 384.334L385.156 384.334 400.831 368.659 251.104 368.659Z" class="st8" fill="#2F2F2F"/><path d="M691.878 184.376 583.113 184.376 555.155 212.334 681.753 212.334 651.103 368.659 398.831 368.659 383.156 384.334 654.391 384.334C660.055 384.334 664.948 380.374 666.128 374.834L703.615 198.876C705.206 191.41 699.512 184.376 691.878 184.376Z" class="st4" fill="#505050"/><path d="M504.903 305.197 400.903 305.197C399.246 305.197 397.903 303.854 397.903 302.197 397.903 300.54 399.246 299.197 400.903 299.197L504.903 299.197C506.56 299.197 507.903 300.54 507.903 302.197 507.903 303.854 506.56 305.197 504.903 305.197Z" class="st3" fill="#FFFFFF"/></g></svg>