<svg viewBox="0 0 960 960" xmlns="http://www.w3.org/2000/svg" xmlns:xlink="http://www.w3.org/1999/xlink" id="5e206334-a6c9-498b-9c04-704b60c931c9" overflow="hidden"><style>
.MsftOfcThm_Accent4_Fill_v2 {
 fill:#D9740B; 
}
</style>
<rect x="217.09" y="235.209" width="300" height="450" class="MsftOfcThm_Accent4_Fill_v2" fill="#D9740B"/><g><rect x="369.785" y="221.875" width="297.5" height="450" class="st1" fill="#D2D2D2"/><rect x="367.285" y="213.125" width="300" height="450" class="st2" fill="#E6E6E6"/><g><g><rect x="392.468" y="287.5" width="249.818" height="1.25" class="st1" fill="#D2D2D2"/><rect x="392.285" y="302.5" width="249.818" height="1.25" class="st1" fill="#D2D2D2"/><rect x="392.468" y="317.5" width="249.818" height="1.25" class="st1" fill="#D2D2D2"/><rect x="392.285" y="332.5" width="249.818" height="1.25" class="st1" fill="#D2D2D2"/><rect x="392.468" y="347.5" width="249.818" height="1.25" class="st1" fill="#D2D2D2"/><rect x="392.285" y="362.5" width="249.818" height="1.25" class="st1" fill="#D2D2D2"/><rect x="392.468" y="377.5" width="249.818" height="1.25" class="st1" fill="#D2D2D2"/><rect x="392.285" y="392.5" width="249.818" height="1.25" class="st1" fill="#D2D2D2"/></g><g><rect x="392.468" y="407.5" width="249.818" height="1.25" class="st1" fill="#D2D2D2"/><rect x="392.285" y="422.5" width="249.818" height="1.25" class="st1" fill="#D2D2D2"/><rect x="392.468" y="437.5" width="249.818" height="1.25" class="st1" fill="#D2D2D2"/><rect x="392.285" y="452.5" width="249.818" height="1.25" class="st1" fill="#D2D2D2"/><rect x="392.468" y="467.5" width="249.818" height="1.25" class="st1" fill="#D2D2D2"/><rect x="392.285" y="482.5" width="249.818" height="1.25" class="st1" fill="#D2D2D2"/><rect x="392.468" y="497.5" width="249.818" height="1.25" class="st1" fill="#D2D2D2"/><rect x="392.285" y="512.5" width="249.818" height="1.25" class="st1" fill="#D2D2D2"/></g><g><rect x="392.468" y="527.5" width="249.818" height="1.25" class="st1" fill="#D2D2D2"/><rect x="392.285" y="542.5" width="249.818" height="1.25" class="st1" fill="#D2D2D2"/><rect x="392.468" y="557.5" width="249.818" height="1.25" class="st1" fill="#D2D2D2"/><rect x="392.285" y="572.5" width="249.818" height="1.25" class="st1" fill="#D2D2D2"/><rect x="392.468" y="587.5" width="249.818" height="1.25" class="st1" fill="#D2D2D2"/><rect x="392.285" y="602.5" width="249.818" height="1.25" class="st1" fill="#D2D2D2"/><rect x="392.468" y="617.5" width="249.818" height="1.25" class="st1" fill="#D2D2D2"/></g></g><rect x="367.285" y="213.125" width="300" height="30" class="st3" fill="#737373"/><circle cx="412.285" cy="228.144" r="7.5" class="st4" fill="#505050"/><circle cx="622.285" cy="228.144" r="7.5" class="st4" fill="#505050"/></g><g><rect x="444.785" y="296.875" width="297.5" height="450" class="st1" fill="#D2D2D2"/><rect x="442.285" y="288.125" width="300" height="450" class="st5" fill="#FFFFFF"/><path d="M742.91 738.75 441.66 738.75 441.66 287.5 742.91 287.5 742.91 738.75ZM442.91 737.5 741.66 737.5 741.66 288.75 442.91 288.75 442.91 737.5Z" class="st6" fill="#F2F2F2"/><path d="M466.66 362.5 466.66 693.75 722.91 693.75 722.91 362.5 466.66 362.5ZM588.093 572.5 588.093 558.75 601.843 558.75 601.843 572.5 588.093 572.5ZM601.843 573.75 601.843 587.5 588.093 587.5 588.093 573.75 601.843 573.75ZM601.843 483.75 601.843 497.5 588.093 497.5 588.093 483.75 601.843 483.75ZM588.093 482.5 588.093 468.75 601.843 468.75 601.843 482.5 588.093 482.5ZM588.093 542.5 588.093 528.75 601.843 528.75 601.843 542.5 588.093 542.5ZM601.843 543.75 601.843 557.5 588.093 557.5 588.093 543.75 601.843 543.75ZM588.093 527.5 588.093 513.75 601.843 513.75 601.843 527.5 588.093 527.5ZM588.093 512.5 588.093 498.75 601.843 498.75 601.843 512.5 588.093 512.5ZM586.843 497.5 573.093 497.5 573.093 483.75 586.843 483.75 586.843 497.5ZM586.843 498.75 586.843 512.5 573.093 512.5 573.093 498.75 586.843 498.75ZM586.843 513.75 586.843 527.5 573.093 527.5 573.093 513.75 586.843 513.75ZM586.843 528.75 586.843 542.5 573.093 542.5 573.093 528.75 586.843 528.75ZM586.843 543.75 586.843 557.5 573.093 557.5 573.093 543.75 586.843 543.75ZM586.843 558.75 586.843 572.5 573.093 572.5 573.093 558.75 586.843 558.75ZM603.093 558.75 616.843 558.75 616.843 572.5 603.093 572.5 603.093 558.75ZM603.093 557.5 603.093 543.75 616.843 543.75 616.843 557.5 603.093 557.5ZM603.093 542.5 603.093 528.75 616.843 528.75 616.843 542.5 603.093 542.5ZM603.093 527.5 603.093 513.75 616.843 513.75 616.843 527.5 603.093 527.5ZM603.093 512.5 603.093 498.75 616.843 498.75 616.843 512.5 603.093 512.5ZM603.093 497.5 603.093 483.75 616.843 483.75 616.843 497.5 603.093 497.5ZM603.093 482.5 603.093 468.75 616.843 468.75 616.843 482.5 603.093 482.5ZM603.093 467.5 603.093 453.75 616.843 453.75 616.843 467.5 603.093 467.5ZM601.843 467.5 588.093 467.5 588.093 453.75 601.843 453.75 601.843 467.5ZM586.843 467.5 573.093 467.5 573.093 453.75 586.843 453.75 586.843 467.5ZM586.843 468.75 586.843 482.5 573.093 482.5 573.093 468.75 586.843 468.75ZM571.843 482.5 558.093 482.5 558.093 468.75 571.843 468.75 571.843 482.5ZM571.843 483.75 571.843 497.5 558.093 497.5 558.093 483.75 571.843 483.75ZM571.843 498.75 571.843 512.5 558.093 512.5 558.093 498.75 571.843 498.75ZM571.843 513.75 571.843 527.5 558.093 527.5 558.093 513.75 571.843 513.75ZM571.843 528.75 571.843 542.5 558.093 542.5 558.093 528.75 571.843 528.75ZM571.843 543.75 571.843 557.5 558.093 557.5 558.093 543.75 571.843 543.75ZM571.843 558.75 571.843 572.5 558.093 572.5 558.093 558.75 571.843 558.75ZM571.843 573.75 571.843 587.5 558.093 587.5 558.093 573.75 571.843 573.75ZM573.093 573.75 586.843 573.75 586.843 587.5 573.093 587.5 573.093 573.75ZM586.843 588.75 586.843 602.5 573.093 602.5 573.093 588.75 586.843 588.75ZM588.093 588.75 601.843 588.75 601.843 602.5 588.093 602.5 588.093 588.75ZM603.093 588.75 616.843 588.75 616.843 602.5 603.093 602.5 603.093 588.75ZM603.093 587.5 603.093 573.75 616.843 573.75 616.843 587.5 603.093 587.5ZM618.093 573.75 631.843 573.75 631.843 587.5 618.093 587.5 618.093 573.75ZM618.093 572.5 618.093 558.75 631.843 558.75 631.843 572.5 618.093 572.5ZM618.093 557.5 618.093 543.75 631.843 543.75 631.843 557.5 618.093 557.5ZM618.093 542.5 618.093 528.75 631.843 528.75 631.843 542.5 618.093 542.5ZM618.093 527.5 618.093 513.75 631.843 513.75 631.843 527.5 618.093 527.5ZM618.093 512.5 618.093 498.75 631.843 498.75 631.843 512.5 618.093 512.5ZM618.093 497.5 618.093 483.75 631.843 483.75 631.843 497.5 618.093 497.5ZM618.093 482.5 618.093 468.75 631.843 468.75 631.843 482.5 618.093 482.5ZM618.093 467.5 618.093 453.75 631.843 453.75 631.843 467.5 618.093 467.5ZM618.093 452.5 618.093 438.75 631.843 438.75 631.843 452.5 618.093 452.5ZM616.843 452.5 603.093 452.5 603.093 438.75 616.843 438.75 616.843 452.5ZM601.843 452.5 588.093 452.5 588.093 438.75 601.843 438.75 601.843 452.5ZM586.843 452.5 573.093 452.5 573.093 438.75 586.843 438.75 586.843 452.5ZM571.843 452.5 558.093 452.5 558.093 438.75 571.843 438.75 571.843 452.5ZM571.843 453.75 571.843 467.5 558.093 467.5 558.093 453.75 571.843 453.75ZM556.843 467.5 543.093 467.5 543.093 453.75 556.843 453.75 556.843 467.5ZM556.843 468.75 556.843 482.5 543.093 482.5 543.093 468.75 556.843 468.75ZM556.843 483.75 556.843 497.5 543.093 497.5 543.093 483.75 556.843 483.75ZM556.843 498.75 556.843 512.5 543.093 512.5 543.093 498.75 556.843 498.75ZM556.843 513.75 556.843 527.5 543.093 527.5 543.093 513.75 556.843 513.75ZM556.843 528.75 556.843 542.5 543.093 542.5 543.093 528.75 556.843 528.75ZM556.843 543.75 556.843 557.5 543.093 557.5 543.093 543.75 556.843 543.75ZM556.843 558.75 556.843 572.5 543.093 572.5 543.093 558.75 556.843 558.75ZM556.843 573.75 556.843 587.5 543.093 587.5 543.093 573.75 556.843 573.75ZM556.843 588.75 556.843 602.5 543.093 602.5 543.093 588.75 556.843 588.75ZM558.093 588.75 571.843 588.75 571.843 602.5 558.093 602.5 558.093 588.75ZM571.843 603.75 571.843 617.5 558.093 617.5 558.093 603.75 571.843 603.75ZM573.093 603.75 586.843 603.75 586.843 617.5 573.093 617.5 573.093 603.75ZM588.093 603.75 601.843 603.75 601.843 617.5 588.093 617.5 588.093 603.75ZM603.093 603.75 616.843 603.75 616.843 617.5 603.093 617.5 603.093 603.75ZM618.093 603.75 631.843 603.75 631.843 617.5 618.093 617.5 618.093 603.75ZM618.093 602.5 618.093 588.75 631.843 588.75 631.843 602.5 618.093 602.5ZM633.093 588.75 646.843 588.75 646.843 602.5 633.093 602.5 633.093 588.75ZM633.093 587.5 633.093 573.75 646.843 573.75 646.843 587.5 633.093 587.5ZM633.093 572.5 633.093 558.75 646.843 558.75 646.843 572.5 633.093 572.5ZM633.093 557.5 633.093 543.75 646.843 543.75 646.843 557.5 633.093 557.5ZM633.093 542.5 633.093 528.75 646.843 528.75 646.843 542.5 633.093 542.5ZM633.093 527.5 633.093 513.75 646.843 513.75 646.843 527.5 633.093 527.5ZM633.093 512.5 633.093 498.75 646.843 498.75 646.843 512.5 633.093 512.5ZM633.093 497.5 633.093 483.75 646.843 483.75 646.843 497.5 633.093 497.5ZM633.093 482.5 633.093 468.75 646.843 468.75 646.843 482.5 633.093 482.5ZM633.093 467.5 633.093 453.75 646.843 453.75 646.843 467.5 633.093 467.5ZM633.093 452.5 633.093 438.75 646.843 438.75 646.843 452.5 633.093 452.5ZM633.093 437.5 633.093 423.75 646.843 423.75 646.843 437.5 633.093 437.5ZM631.843 437.5 618.093 437.5 618.093 423.75 631.843 423.75 631.843 437.5ZM616.843 437.5 603.093 437.5 603.093 423.75 616.843 423.75 616.843 437.5ZM601.843 437.5 588.093 437.5 588.093 423.75 601.843 423.75 601.843 437.5ZM586.843 437.5 573.093 437.5 573.093 423.75 586.843 423.75 586.843 437.5ZM571.843 437.5 558.093 437.5 558.093 423.75 571.843 423.75 571.843 437.5ZM556.843 437.5 543.093 437.5 543.093 423.75 556.843 423.75 556.843 437.5ZM556.843 438.75 556.843 452.5 543.093 452.5 543.093 438.75 556.843 438.75ZM541.843 452.5 528.093 452.5 528.093 438.75 541.843 438.75 541.843 452.5ZM541.843 453.75 541.843 467.5 528.093 467.5 528.093 453.75 541.843 453.75ZM541.843 468.75 541.843 482.5 528.093 482.5 528.093 468.75 541.843 468.75ZM541.843 483.75 541.843 497.5 528.093 497.5 528.093 483.75 541.843 483.75ZM541.843 498.75 541.843 512.5 528.093 512.5 528.093 498.75 541.843 498.75ZM541.843 513.75 541.843 527.5 528.093 527.5 528.093 513.75 541.843 513.75ZM541.843 528.75 541.843 542.5 528.093 542.5 528.093 528.75 541.843 528.75ZM541.843 543.75 541.843 557.5 528.093 557.5 528.093 543.75 541.843 543.75ZM541.843 558.75 541.843 572.5 528.093 572.5 528.093 558.75 541.843 558.75ZM541.843 573.75 541.843 587.5 528.093 587.5 528.093 573.75 541.843 573.75ZM541.843 588.75 541.843 602.5 528.093 602.5 528.093 588.75 541.843 588.75ZM541.843 603.75 541.843 617.5 528.093 617.5 528.093 603.75 541.843 603.75ZM543.093 603.75 556.843 603.75 556.843 617.5 543.093 617.5 543.093 603.75ZM556.843 618.75 556.843 632.5 543.093 632.5 543.093 618.75 556.843 618.75ZM558.093 618.75 571.843 618.75 571.843 632.5 558.093 632.5 558.093 618.75ZM573.093 618.75 586.843 618.75 586.843 632.5 573.093 632.5 573.093 618.75ZM588.093 618.75 601.843 618.75 601.843 632.5 588.093 632.5 588.093 618.75ZM603.093 618.75 616.843 618.75 616.843 632.5 603.093 632.5 603.093 618.75ZM618.093 618.75 631.843 618.75 631.843 632.5 618.093 632.5 618.093 618.75ZM633.093 618.75 646.843 618.75 646.843 632.5 633.093 632.5 633.093 618.75ZM633.093 617.5 633.093 603.75 646.843 603.75 646.843 617.5 633.093 617.5ZM648.093 603.75 661.843 603.75 661.843 617.5 648.093 617.5 648.093 603.75ZM648.093 602.5 648.093 588.75 661.843 588.75 661.843 602.5 648.093 602.5ZM648.093 587.5 648.093 573.75 661.843 573.75 661.843 587.5 648.093 587.5ZM648.093 572.5 648.093 558.75 661.843 558.75 661.843 572.5 648.093 572.5ZM648.093 557.5 648.093 543.75 661.843 543.75 661.843 557.5 648.093 557.5ZM648.093 542.5 648.093 528.75 661.843 528.75 661.843 542.5 648.093 542.5ZM648.093 527.5 648.093 513.75 661.843 513.75 661.843 527.5 648.093 527.5ZM648.093 512.5 648.093 498.75 661.843 498.75 661.843 512.5 648.093 512.5ZM648.093 497.5 648.093 483.75 661.843 483.75 661.843 497.5 648.093 497.5ZM648.093 482.5 648.093 468.75 661.843 468.75 661.843 482.5 648.093 482.5ZM648.093 467.5 648.093 453.75 661.843 453.75 661.843 467.5 648.093 467.5ZM648.093 452.5 648.093 438.75 661.843 438.75 661.843 452.5 648.093 452.5ZM648.093 437.5 648.093 423.75 661.843 423.75 661.843 437.5 648.093 437.5ZM648.093 422.5 648.093 408.75 661.843 408.75 661.843 422.5 648.093 422.5ZM646.843 422.5 633.093 422.5 633.093 408.75 646.843 408.75 646.843 422.5ZM631.843 422.5 618.093 422.5 618.093 408.75 631.843 408.75 631.843 422.5ZM616.843 422.5 603.093 422.5 603.093 408.75 616.843 408.75 616.843 422.5ZM601.843 422.5 588.093 422.5 588.093 408.75 601.843 408.75 601.843 422.5ZM586.843 422.5 573.093 422.5 573.093 408.75 586.843 408.75 586.843 422.5ZM571.843 422.5 558.093 422.5 558.093 408.75 571.843 408.75 571.843 422.5ZM556.843 422.5 543.093 422.5 543.093 408.75 556.843 408.75 556.843 422.5ZM541.843 422.5 528.093 422.5 528.093 408.75 541.843 408.75 541.843 422.5ZM541.843 423.75 541.843 437.5 528.093 437.5 528.093 423.75 541.843 423.75ZM526.843 437.5 513.093 437.5 513.093 423.75 526.843 423.75 526.843 437.5ZM526.843 438.75 526.843 452.5 513.093 452.5 513.093 438.75 526.843 438.75ZM526.843 453.75 526.843 467.5 513.093 467.5 513.093 453.75 526.843 453.75ZM526.843 468.75 526.843 482.5 513.093 482.5 513.093 468.75 526.843 468.75ZM526.843 483.75 526.843 497.5 513.093 497.5 513.093 483.75 526.843 483.75ZM526.843 498.75 526.843 512.5 513.093 512.5 513.093 498.75 526.843 498.75ZM526.843 513.75 526.843 527.5 513.093 527.5 513.093 513.75 526.843 513.75ZM526.843 528.75 526.843 542.5 513.093 542.5 513.093 528.75 526.843 528.75ZM526.843 543.75 526.843 557.5 513.093 557.5 513.093 543.75 526.843 543.75ZM526.843 558.75 526.843 572.5 513.093 572.5 513.093 558.75 526.843 558.75ZM526.843 573.75 526.843 587.5 513.093 587.5 513.093 573.75 526.843 573.75ZM526.843 588.75 526.843 602.5 513.093 602.5 513.093 588.75 526.843 588.75ZM526.843 603.75 526.843 617.5 513.093 617.5 513.093 603.75 526.843 603.75ZM526.843 618.75 526.843 632.5 513.093 632.5 513.093 618.75 526.843 618.75ZM528.093 618.75 541.843 618.75 541.843 632.5 528.093 632.5 528.093 618.75ZM541.843 633.75 541.843 647.5 528.093 647.5 528.093 633.75 541.843 633.75ZM543.093 633.75 556.843 633.75 556.843 647.5 543.093 647.5 543.093 633.75ZM558.093 633.75 571.843 633.75 571.843 647.5 558.093 647.5 558.093 633.75ZM573.093 633.75 586.843 633.75 586.843 647.5 573.093 647.5 573.093 633.75ZM588.093 633.75 601.843 633.75 601.843 647.5 588.093 647.5 588.093 633.75ZM603.093 633.75 616.843 633.75 616.843 647.5 603.093 647.5 603.093 633.75ZM618.093 633.75 631.843 633.75 631.843 647.5 618.093 647.5 618.093 633.75ZM633.093 633.75 646.843 633.75 646.843 647.5 633.093 647.5 633.093 633.75ZM648.093 633.75 661.843 633.75 661.843 647.5 648.093 647.5 648.093 633.75ZM648.093 632.5 648.093 618.75 661.843 618.75 661.843 632.5 648.093 632.5ZM663.093 618.75 676.843 618.75 676.843 632.5 663.093 632.5 663.093 618.75ZM663.093 617.5 663.093 603.75 676.843 603.75 676.843 617.5 663.093 617.5ZM663.093 602.5 663.093 588.75 676.843 588.75 676.843 602.5 663.093 602.5ZM663.093 587.5 663.093 573.75 676.843 573.75 676.843 587.5 663.093 587.5ZM663.093 572.5 663.093 558.75 676.843 558.75 676.843 572.5 663.093 572.5ZM663.093 557.5 663.093 543.75 676.843 543.75 676.843 557.5 663.093 557.5ZM663.093 542.5 663.093 528.75 676.843 528.75 676.843 542.5 663.093 542.5ZM663.093 527.5 663.093 513.75 676.843 513.75 676.843 527.5 663.093 527.5ZM663.093 512.5 663.093 498.75 676.843 498.75 676.843 512.5 663.093 512.5ZM663.093 497.5 663.093 483.75 676.843 483.75 676.843 497.5 663.093 497.5ZM663.093 482.5 663.093 468.75 676.843 468.75 676.843 482.5 663.093 482.5ZM663.093 467.5 663.093 453.75 676.843 453.75 676.843 467.5 663.093 467.5ZM663.093 452.5 663.093 438.75 676.843 438.75 676.843 452.5 663.093 452.5ZM663.093 437.5 663.093 423.75 676.843 423.75 676.843 437.5 663.093 437.5ZM663.093 422.5 663.093 408.75 676.843 408.75 676.843 422.5 663.093 422.5ZM663.093 407.5 663.093 393.75 676.843 393.75 676.843 407.5 663.093 407.5ZM661.843 407.5 648.093 407.5 648.093 393.75 661.843 393.75 661.843 407.5ZM646.843 407.5 633.093 407.5 633.093 393.75 646.843 393.75 646.843 407.5ZM631.843 407.5 618.093 407.5 618.093 393.75 631.843 393.75 631.843 407.5ZM616.843 407.5 603.093 407.5 603.093 393.75 616.843 393.75 616.843 407.5ZM601.843 407.5 588.093 407.5 588.093 393.75 601.843 393.75 601.843 407.5ZM586.843 407.5 573.093 407.5 573.093 393.75 586.843 393.75 586.843 407.5ZM571.843 407.5 558.093 407.5 558.093 393.75 571.843 393.75 571.843 407.5ZM556.843 407.5 543.093 407.5 543.093 393.75 556.843 393.75 556.843 407.5ZM541.843 407.5 528.093 407.5 528.093 393.75 541.843 393.75 541.843 407.5ZM526.843 407.5 513.093 407.5 513.093 393.75 526.843 393.75 526.843 407.5ZM526.843 408.75 526.843 422.5 513.093 422.5 513.093 408.75 526.843 408.75ZM511.843 422.5 498.093 422.5 498.093 408.75 511.843 408.75 511.843 422.5ZM511.843 423.75 511.843 437.5 498.093 437.5 498.093 423.75 511.843 423.75ZM511.843 438.75 511.843 452.5 498.093 452.5 498.093 438.75 511.843 438.75ZM511.843 453.75 511.843 467.5 498.093 467.5 498.093 453.75 511.843 453.75ZM511.843 468.75 511.843 482.5 498.093 482.5 498.093 468.75 511.843 468.75ZM511.843 483.75 511.843 497.5 498.093 497.5 498.093 483.75 511.843 483.75ZM511.843 498.75 511.843 512.5 498.093 512.5 498.093 498.75 511.843 498.75ZM511.843 513.75 511.843 527.5 498.093 527.5 498.093 513.75 511.843 513.75ZM511.843 528.75 511.843 542.5 498.093 542.5 498.093 528.75 511.843 528.75ZM511.843 543.75 511.843 557.5 498.093 557.5 498.093 543.75 511.843 543.75ZM511.843 558.75 511.843 572.5 498.093 572.5 498.093 558.75 511.843 558.75ZM511.843 573.75 511.843 587.5 498.093 587.5 498.093 573.75 511.843 573.75ZM511.843 588.75 511.843 602.5 498.093 602.5 498.093 588.75 511.843 588.75ZM511.843 603.75 511.843 617.5 498.093 617.5 498.093 603.75 511.843 603.75ZM511.843 618.75 511.843 632.5 498.093 632.5 498.093 618.75 511.843 618.75ZM511.843 633.75 511.843 647.5 498.093 647.5 498.093 633.75 511.843 633.75ZM513.093 633.75 526.843 633.75 526.843 647.5 513.093 647.5 513.093 633.75ZM526.843 648.75 526.843 662.5 513.093 662.5 513.093 648.75 526.843 648.75ZM528.093 648.75 541.843 648.75 541.843 662.5 528.093 662.5 528.093 648.75ZM543.093 648.75 556.843 648.75 556.843 662.5 543.093 662.5 543.093 648.75ZM558.093 648.75 571.843 648.75 571.843 662.5 558.093 662.5 558.093 648.75ZM573.093 648.75 586.843 648.75 586.843 662.5 573.093 662.5 573.093 648.75ZM588.093 648.75 601.843 648.75 601.843 662.5 588.093 662.5 588.093 648.75ZM603.093 648.75 616.843 648.75 616.843 662.5 603.093 662.5 603.093 648.75ZM618.093 648.75 631.843 648.75 631.843 662.5 618.093 662.5 618.093 648.75ZM633.093 648.75 646.843 648.75 646.843 662.5 633.093 662.5 633.093 648.75ZM648.093 648.75 661.843 648.75 661.843 662.5 648.093 662.5 648.093 648.75ZM663.093 648.75 676.843 648.75 676.843 662.5 663.093 662.5 663.093 648.75ZM663.093 647.5 663.093 633.75 676.843 633.75 676.843 647.5 663.093 647.5ZM678.093 633.75 691.843 633.75 691.843 647.5 678.093 647.5 678.093 633.75ZM678.093 632.5 678.093 618.75 691.843 618.75 691.843 632.5 678.093 632.5ZM678.093 617.5 678.093 603.75 691.843 603.75 691.843 617.5 678.093 617.5ZM678.093 602.5 678.093 588.75 691.843 588.75 691.843 602.5 678.093 602.5ZM678.093 587.5 678.093 573.75 691.843 573.75 691.843 587.5 678.093 587.5ZM678.093 572.5 678.093 558.75 691.843 558.75 691.843 572.5 678.093 572.5ZM678.093 557.5 678.093 543.75 691.843 543.75 691.843 557.5 678.093 557.5ZM678.093 542.5 678.093 528.75 691.843 528.75 691.843 542.5 678.093 542.5ZM678.093 527.5 678.093 513.75 691.843 513.75 691.843 527.5 678.093 527.5ZM678.093 512.5 678.093 498.75 691.843 498.75 691.843 512.5 678.093 512.5ZM678.093 497.5 678.093 483.75 691.843 483.75 691.843 497.5 678.093 497.5ZM678.093 482.5 678.093 468.75 691.843 468.75 691.843 482.5 678.093 482.5ZM678.093 467.5 678.093 453.75 691.843 453.75 691.843 467.5 678.093 467.5ZM678.093 452.5 678.093 438.75 691.843 438.75 691.843 452.5 678.093 452.5ZM678.093 437.5 678.093 423.75 691.843 423.75 691.843 437.5 678.093 437.5ZM678.093 422.5 678.093 408.75 691.843 408.75 691.843 422.5 678.093 422.5ZM678.093 407.5 678.093 393.75 691.843 393.75 691.843 407.5 678.093 407.5ZM678.093 392.5 678.093 378.75 691.843 378.75 691.843 392.5 678.093 392.5ZM676.843 392.5 663.093 392.5 663.093 378.75 676.843 378.75 676.843 392.5ZM661.843 392.5 648.093 392.5 648.093 378.75 661.843 378.75 661.843 392.5ZM646.843 392.5 633.093 392.5 633.093 378.75 646.843 378.75 646.843 392.5ZM631.843 392.5 618.093 392.5 618.093 378.75 631.843 378.75 631.843 392.5ZM616.843 392.5 603.093 392.5 603.093 378.75 616.843 378.75 616.843 392.5ZM601.843 392.5 588.093 392.5 588.093 378.75 601.843 378.75 601.843 392.5ZM586.843 392.5 573.093 392.5 573.093 378.75 586.843 378.75 586.843 392.5ZM571.843 392.5 558.093 392.5 558.093 378.75 571.843 378.75 571.843 392.5ZM556.843 392.5 543.093 392.5 543.093 378.75 556.843 378.75 556.843 392.5ZM541.843 392.5 528.093 392.5 528.093 378.75 541.843 378.75 541.843 392.5ZM526.843 392.5 513.093 392.5 513.093 378.75 526.843 378.75 526.843 392.5ZM511.843 392.5 498.093 392.5 498.093 378.75 511.843 378.75 511.843 392.5ZM511.843 393.75 511.843 407.5 498.093 407.5 498.093 393.75 511.843 393.75ZM496.843 407.5 483.093 407.5 483.093 393.75 496.843 393.75 496.843 407.5ZM496.843 408.75 496.843 422.5 483.093 422.5 483.093 408.75 496.843 408.75ZM496.843 423.75 496.843 437.5 483.093 437.5 483.093 423.75 496.843 423.75ZM496.843 438.75 496.843 452.5 483.093 452.5 483.093 438.75 496.843 438.75ZM496.843 453.75 496.843 467.5 483.093 467.5 483.093 453.75 496.843 453.75ZM496.843 468.75 496.843 482.5 483.093 482.5 483.093 468.75 496.843 468.75ZM496.843 483.75 496.843 497.5 483.093 497.5 483.093 483.75 496.843 483.75ZM496.843 498.75 496.843 512.5 483.093 512.5 483.093 498.75 496.843 498.75ZM496.843 513.75 496.843 527.5 483.093 527.5 483.093 513.75 496.843 513.75ZM496.843 528.75 496.843 542.5 483.093 542.5 483.093 528.75 496.843 528.75ZM496.843 543.75 496.843 557.5 483.093 557.5 483.093 543.75 496.843 543.75ZM496.843 558.75 496.843 572.5 483.093 572.5 483.093 558.75 496.843 558.75ZM496.843 573.75 496.843 587.5 483.093 587.5 483.093 573.75 496.843 573.75ZM496.843 588.75 496.843 602.5 483.093 602.5 483.093 588.75 496.843 588.75ZM496.843 603.75 496.843 617.5 483.093 617.5 483.093 603.75 496.843 603.75ZM496.843 618.75 496.843 632.5 483.093 632.5 483.093 618.75 496.843 618.75ZM496.843 633.75 496.843 647.5 483.093 647.5 483.093 633.75 496.843 633.75ZM496.843 648.75 496.843 662.5 483.093 662.5 483.093 648.75 496.843 648.75ZM498.093 648.75 511.843 648.75 511.843 662.5 498.093 662.5 498.093 648.75ZM511.843 663.75 511.843 677.5 498.093 677.5 498.093 663.75 511.843 663.75ZM513.093 663.75 526.843 663.75 526.843 677.5 513.093 677.5 513.093 663.75ZM528.093 663.75 541.843 663.75 541.843 677.5 528.093 677.5 528.093 663.75ZM543.093 663.75 556.843 663.75 556.843 677.5 543.093 677.5 543.093 663.75ZM558.093 663.75 571.843 663.75 571.843 677.5 558.093 677.5 558.093 663.75ZM573.093 663.75 586.843 663.75 586.843 677.5 573.093 677.5 573.093 663.75ZM588.093 663.75 601.843 663.75 601.843 677.5 588.093 677.5 588.093 663.75ZM603.093 663.75 616.843 663.75 616.843 677.5 603.093 677.5 603.093 663.75ZM618.093 663.75 631.843 663.75 631.843 677.5 618.093 677.5 618.093 663.75ZM633.093 663.75 646.843 663.75 646.843 677.5 633.093 677.5 633.093 663.75ZM648.093 663.75 661.843 663.75 661.843 677.5 648.093 677.5 648.093 663.75ZM663.093 663.75 676.843 663.75 676.843 677.5 663.093 677.5 663.093 663.75ZM678.093 663.75 691.843 663.75 691.843 677.5 678.093 677.5 678.093 663.75ZM678.093 662.5 678.093 648.75 691.843 648.75 691.843 662.5 678.093 662.5ZM693.093 648.75 706.843 648.75 706.843 662.5 693.093 662.5 693.093 648.75ZM693.093 647.5 693.093 633.75 706.843 633.75 706.843 647.5 693.093 647.5ZM693.093 632.5 693.093 618.75 706.843 618.75 706.843 632.5 693.093 632.5ZM693.093 617.5 693.093 603.75 706.843 603.75 706.843 617.5 693.093 617.5ZM693.093 602.5 693.093 588.75 706.843 588.75 706.843 602.5 693.093 602.5ZM693.093 587.5 693.093 573.75 706.843 573.75 706.843 587.5 693.093 587.5ZM693.093 572.5 693.093 558.75 706.843 558.75 706.843 572.5 693.093 572.5ZM693.093 557.5 693.093 543.75 706.843 543.75 706.843 557.5 693.093 557.5ZM693.093 542.5 693.093 528.75 706.843 528.75 706.843 542.5 693.093 542.5ZM693.093 527.5 693.093 513.75 706.843 513.75 706.843 527.5 693.093 527.5ZM693.093 512.5 693.093 498.75 706.843 498.75 706.843 512.5 693.093 512.5ZM693.093 497.5 693.093 483.75 706.843 483.75 706.843 497.5 693.093 497.5ZM693.093 482.5 693.093 468.75 706.843 468.75 706.843 482.5 693.093 482.5ZM693.093 467.5 693.093 453.75 706.843 453.75 706.843 467.5 693.093 467.5ZM693.093 452.5 693.093 438.75 706.843 438.75 706.843 452.5 693.093 452.5ZM693.093 437.5 693.093 423.75 706.843 423.75 706.843 437.5 693.093 437.5ZM693.093 422.5 693.093 408.75 706.843 408.75 706.843 422.5 693.093 422.5ZM693.093 407.5 693.093 393.75 706.843 393.75 706.843 407.5 693.093 407.5ZM693.093 392.5 693.093 378.75 706.843 378.75 706.843 392.5 693.093 392.5ZM693.093 377.5 693.093 363.75 706.843 363.75 706.843 377.5 693.093 377.5ZM691.843 377.5 678.093 377.5 678.093 363.75 691.843 363.75 691.843 377.5ZM676.843 377.5 663.093 377.5 663.093 363.75 676.843 363.75 676.843 377.5ZM661.843 377.5 648.093 377.5 648.093 363.75 661.843 363.75 661.843 377.5ZM646.843 377.5 633.093 377.5 633.093 363.75 646.843 363.75 646.843 377.5ZM631.843 377.5 618.093 377.5 618.093 363.75 631.843 363.75 631.843 377.5ZM616.843 377.5 603.093 377.5 603.093 363.75 616.843 363.75 616.843 377.5ZM601.843 377.5 588.093 377.5 588.093 363.75 601.843 363.75 601.843 377.5ZM586.843 377.5 573.093 377.5 573.093 363.75 586.843 363.75 586.843 377.5ZM571.843 377.5 558.093 377.5 558.093 363.75 571.843 363.75 571.843 377.5ZM556.843 377.5 543.093 377.5 543.093 363.75 556.843 363.75 556.843 377.5ZM541.843 377.5 528.093 377.5 528.093 363.75 541.843 363.75 541.843 377.5ZM526.843 377.5 513.093 377.5 513.093 363.75 526.843 363.75 526.843 377.5ZM511.843 377.5 498.093 377.5 498.093 363.75 511.843 363.75 511.843 377.5ZM496.843 377.5 483.093 377.5 483.093 363.75 496.843 363.75 496.843 377.5ZM496.843 378.75 496.843 392.5 483.093 392.5 483.093 378.75 496.843 378.75ZM481.843 392.5 467.91 392.5 467.91 378.75 481.842 378.75 481.842 392.5ZM467.91 393.75 481.842 393.75 481.842 407.5 467.91 407.5 467.91 393.75ZM481.843 408.75 481.843 422.5 467.91 422.5 467.91 408.75 481.843 408.75ZM467.91 423.75 481.842 423.75 481.842 437.5 467.91 437.5 467.91 423.75ZM481.843 438.75 481.843 452.5 467.91 452.5 467.91 438.75 481.843 438.75ZM467.91 453.75 481.842 453.75 481.842 467.5 467.91 467.5 467.91 453.75ZM481.843 468.75 481.843 482.5 467.91 482.5 467.91 468.75 481.843 468.75ZM467.91 483.75 481.842 483.75 481.842 497.5 467.91 497.5 467.91 483.75ZM481.843 498.75 481.843 512.5 467.91 512.5 467.91 498.75 481.843 498.75ZM467.91 513.75 481.842 513.75 481.842 527.5 467.91 527.5 467.91 513.75ZM481.843 528.75 481.843 542.5 467.91 542.5 467.91 528.75 481.843 528.75ZM467.91 543.75 481.842 543.75 481.842 557.5 467.91 557.5 467.91 543.75ZM481.843 558.75 481.843 572.5 467.91 572.5 467.91 558.75 481.843 558.75ZM467.91 573.75 481.842 573.75 481.842 587.5 467.91 587.5 467.91 573.75ZM481.843 588.75 481.843 602.5 467.91 602.5 467.91 588.75 481.843 588.75ZM467.91 603.75 481.842 603.75 481.842 617.5 467.91 617.5 467.91 603.75ZM481.843 618.75 481.843 632.5 467.91 632.5 467.91 618.75 481.843 618.75ZM467.91 633.75 481.842 633.75 481.842 647.5 467.91 647.5 467.91 633.75ZM481.843 648.75 481.843 662.5 467.91 662.5 467.91 648.75 481.843 648.75ZM467.91 663.75 481.842 663.75 481.842 677.5 467.91 677.5 467.91 663.75ZM483.093 663.75 496.843 663.75 496.843 677.5 483.093 677.5 483.093 663.75ZM496.843 678.75 496.843 692.5 483.093 692.5 483.093 678.75 496.843 678.75ZM498.093 678.75 511.843 678.75 511.843 692.5 498.093 692.5 498.093 678.75ZM513.093 678.75 526.843 678.75 526.843 692.5 513.093 692.5 513.093 678.75ZM528.093 678.75 541.843 678.75 541.843 692.5 528.093 692.5 528.093 678.75ZM543.093 678.75 556.843 678.75 556.843 692.5 543.093 692.5 543.093 678.75ZM558.093 678.75 571.843 678.75 571.843 692.5 558.093 692.5 558.093 678.75ZM573.093 678.75 586.843 678.75 586.843 692.5 573.093 692.5 573.093 678.75ZM588.093 678.75 601.843 678.75 601.843 692.5 588.093 692.5 588.093 678.75ZM603.093 678.75 616.843 678.75 616.843 692.5 603.093 692.5 603.093 678.75ZM618.093 678.75 631.843 678.75 631.843 692.5 618.093 692.5 618.093 678.75ZM633.093 678.75 646.843 678.75 646.843 692.5 633.093 692.5 633.093 678.75ZM648.093 678.75 661.843 678.75 661.843 692.5 648.093 692.5 648.093 678.75ZM663.093 678.75 676.843 678.75 676.843 692.5 663.093 692.5 663.093 678.75ZM678.093 678.75 691.843 678.75 691.843 692.5 678.093 692.5 678.093 678.75ZM693.093 678.75 706.843 678.75 706.843 692.5 693.093 692.5 693.093 678.75ZM693.093 677.5 693.093 663.75 706.843 663.75 706.843 677.5 693.093 677.5ZM708.093 663.75 721.661 663.75 721.661 677.5 708.093 677.5 708.093 663.75ZM708.093 662.5 708.093 648.75 721.661 648.75 721.661 662.5 708.093 662.5ZM721.66 647.5 708.092 647.5 708.092 633.75 721.66 633.75 721.66 647.5ZM708.093 632.5 708.093 618.75 721.661 618.75 721.661 632.5 708.093 632.5ZM721.66 617.5 708.092 617.5 708.092 603.75 721.66 603.75 721.66 617.5ZM708.093 602.5 708.093 588.75 721.661 588.75 721.661 602.5 708.093 602.5ZM721.66 587.5 708.092 587.5 708.092 573.75 721.66 573.75 721.66 587.5ZM708.093 572.5 708.093 558.75 721.661 558.75 721.661 572.5 708.093 572.5ZM721.66 557.5 708.092 557.5 708.092 543.75 721.66 543.75 721.66 557.5ZM708.093 542.5 708.093 528.75 721.661 528.75 721.661 542.5 708.093 542.5ZM721.66 527.5 708.092 527.5 708.092 513.75 721.66 513.75 721.66 527.5ZM708.093 512.5 708.093 498.75 721.661 498.75 721.661 512.5 708.093 512.5ZM721.66 497.5 708.092 497.5 708.092 483.75 721.66 483.75 721.66 497.5ZM708.093 482.5 708.093 468.75 721.661 468.75 721.661 482.5 708.093 482.5ZM721.66 467.5 708.092 467.5 708.092 453.75 721.66 453.75 721.66 467.5ZM708.093 452.5 708.093 438.75 721.661 438.75 721.661 452.5 708.093 452.5ZM721.66 437.5 708.092 437.5 708.092 423.75 721.66 423.75 721.66 437.5ZM708.093 422.5 708.093 408.75 721.661 408.75 721.661 422.5 708.093 422.5ZM721.66 407.5 708.092 407.5 708.092 393.75 721.66 393.75 721.66 407.5ZM708.093 392.5 708.093 378.75 721.661 378.75 721.661 392.5 708.093 392.5ZM721.66 377.5 708.092 377.5 708.092 363.75 721.66 363.75 721.66 377.5ZM481.843 363.75 481.843 377.5 467.91 377.5 467.91 363.75 481.843 363.75ZM467.91 678.75 481.842 678.75 481.842 692.5 467.91 692.5 467.91 678.75ZM708.093 692.5 708.093 678.75 721.661 678.75 721.661 692.5 708.093 692.5Z" class="st6" fill="#F2F2F2"/><rect x="442.285" y="288.125" width="300" height="30" class="MsftOfcThm_Accent4_Fill_v2" fill="#D9740B"/><circle cx="489.785" cy="303.769" r="7.5" class="st5" fill="#FFFFFF"/><circle cx="699.785" cy="303.769" r="7.5" class="st5" fill="#FFFFFF"/></g><g><path d="M609.95 706.999 592.038 689.086 594.027 687.097 580.151 673.221 586.117 667.255 530.404 611.541C528.207 613.738 528.207 617.299 530.404 619.496L578.163 667.255 576.174 669.244 433.62 526.689 406.393 508.742 405.737 509.398 400.482 504.143 399.149 505.476 404.404 510.731 403.741 511.394 421.687 538.621 582.093 699.03 584.082 697.041 601.994 714.954 609.95 706.999Z" class="st1" fill="#D2D2D2"/><g><rect x="589.155" y="673.883" width="11.25" height="31.656" class="st3" fill="#737373" transform="matrix(0.7071 -0.7071 0.7071 0.7071 -313.491 622.565)"/><path d="M594.026 677.024 582.093 688.956 421.687 528.549C421.687 528.549 422.014 523.75 425.364 520.4 428.714 517.05 433.619 516.616 433.619 516.616L594.026 677.024Z" class="MsftOfcThm_Accent4_Fill_v2" fill="#D9740B"/><rect x="402.725" y="493.141" width="1.885" height="10.896" class="st4" fill="#505050" transform="matrix(0.7071 -0.7071 0.7071 0.7071 -234.323 431.456)"/><path d="M586.116 657.182 530.403 601.468C528.206 603.665 528.206 607.226 530.403 609.423L578.162 657.182 576.192 659.152 572.184 655.144 560.206 667.121 568.161 675.076 586.116 657.182Z" class="st3" fill="#737373"/><path d="M403.741 501.321 421.687 528.549 433.62 516.616 406.393 498.67Z" class="st3" fill="#737373"/></g></g><g><path d="M295.342 368.3 292.963 359.86 290.592 368.3 284.523 389.86 284.523 643.94 286.403 643.94 286.403 661.64 299.523 661.64 299.523 643.94 301.403 643.94 301.403 389.86Z" class="st3" fill="#737373"/><g><rect x="280.178" y="633.027" width="13.125" height="22.718" class="MsftOfcThm_Accent4_Fill_v2" fill="#D9740B"/><path d="M295.178 638.047 278.303 638.047 278.303 610.794C278.303 610.794 281.459 607.342 286.74 607.342 292.022 607.342 295.178 610.804 295.178 610.804L295.178 638.047Z" class="st6" fill="#F2F2F2"/><path d="M295.178 610.819 278.303 610.819 278.303 383.974C278.303 383.968 278.307 383.964 278.313 383.964L295.168 383.964C295.174 383.964 295.178 383.968 295.178 383.974L295.178 610.819Z" class="st4" fill="#505050"/><path d="M286.852 384.563C286.852 386.893 288.63 388.184 290.96 388.184 293.29 388.184 295.179 386.295 295.179 383.965L289.115 362.402 286.731 359.783C286.727 359.779 286.72 359.779 286.716 359.783L284.369 362.402 278.304 383.964C278.304 386.294 280.193 388.183 282.523 388.183 284.853 388.183 286.852 386.892 286.852 384.563L286.852 384.563Z" class="st5" fill="#FFFFFF"/><path d="M286.741 353.965 284.368 362.402 289.115 362.402Z" class="st4" fill="#505050"/></g></g><g><path d="M324.342 368.3 321.963 359.86 319.592 368.3 313.523 389.86 313.523 643.94 315.403 643.94 315.403 661.64 328.523 661.64 328.523 643.94 330.403 643.94 330.403 389.86Z" class="st3" fill="#737373"/><g><rect x="309.241" y="633.027" width="13.125" height="22.718" class="st6" fill="#F2F2F2"/><path d="M324.241 638.047 307.366 638.047 307.366 610.804C307.366 610.804 310.94 607.875 316.04 607.875 321.14 607.875 324.242 610.813 324.242 610.813L324.241 638.047Z" class="st4" fill="#505050"/><path d="M324.241 610.819 307.366 610.819 307.367 383.974C307.367 383.968 307.371 383.964 307.377 383.964L324.232 383.964C324.238 383.964 324.242 383.968 324.242 383.974L324.241 610.819Z" class="st1" fill="#D2D2D2"/><path d="M318.177 362.402 315.797 360.082C315.793 360.078 315.787 360.078 315.783 360.082L313.431 362.402 307.366 383.965C307.366 386.295 309.255 388.184 311.585 388.184 313.856 388.184 315.709 386.389 315.8 384.14 315.804 384.045 315.803 384.045 315.807 384.14 315.899 386.389 317.751 388.184 320.022 388.184 322.352 388.184 324.241 386.295 324.241 383.965L318.177 362.402Z" class="st5" fill="#FFFFFF"/><path d="M315.804 353.965 313.431 362.402 318.177 362.402Z" class="st4" fill="#505050"/></g></g><g><path d="M260.512 377.441 272.003 365.951C268.586 362.534 268.586 356.994 272.003 353.577L260.513 342.086C254.891 342.076 251.363 353.174 251.291 359.476 251.215 365.969 255.156 378.142 260.512 377.441Z" class="st5" fill="#FFFFFF"/><path d="M260.512 342.085 257.86 339.433C246.633 350.66 246.633 368.864 257.86 380.092L260.512 377.44C250.749 367.678 250.75 351.848 260.512 342.085Z" class="st4" fill="#505050"/></g><g><path d="M326.429 297.375 310.179 297.375C310.179 302.207 306.261 306.125 301.429 306.125L301.429 322.375C305.556 326.875 316.8 320.75 321.356 315.942 325.602 311.461 330.223 301.008 326.429 297.375Z" class="st5" fill="#FFFFFF"/><path d="M301.429 322.375 301.429 326.125C317.307 326.125 330.179 313.253 330.179 297.375L326.429 297.375C326.429 311.182 315.235 322.375 301.429 322.375Z" class="st4" fill="#505050"/></g><g><path d="M251.354 432.655 235.104 432.655C235.104 437.487 231.186 441.405 226.354 441.405L226.354 457.655C230.09 461.875 241.413 455.952 245.957 451.275 250.329 446.773 255.356 437.275 251.354 432.655Z" class="st5" fill="#FFFFFF"/><path d="M226.354 457.655 226.354 461.405C242.232 461.405 255.104 448.533 255.104 432.655L251.354 432.655C251.354 446.462 240.161 457.655 226.354 457.655Z" class="st4" fill="#505050"/></g></svg>