<svg viewBox="0 0 257.143 247.619" xmlns="http://www.w3.org/2000/svg" xmlns:xlink="http://www.w3.org/1999/xlink" id="uuid-d8f32167-18dc-4b01-b893-297c5c0d9a7e" overflow="hidden"><style>
.MsftOfcThm_Accent2_lumMod_20_lumOff_80_Fill_v2 {
 fill:#FFF2CC; 
}
</style>
<path d="M124.275 12.7619C128.212 13.3218 132.192 13.6738 136.079 14.4739 171.169 21.6968 196.546 41.5313 210.347 74.5495 223.935 107.059 220.448 138.679 201.592 168.517 201.359 168.885 201.121 169.249 200.899 169.623 200.827 169.743 200.797 169.887 200.686 170.188 201.167 170.699 201.687 171.282 202.238 171.833 213.222 182.828 224.265 193.764 235.179 204.828 243.38 213.141 242.148 226.172 232.701 232.711 225.472 237.715 215.937 236.792 209.41 230.314 198.689 219.672 188.035 208.964 177.365 198.272 176.598 197.503 175.932 196.634 175.229 195.823 171.455 198.009 168.017 200.144 164.453 202.043 128.613 221.138 83.2968 216.019 52.6735 189.42 33.6646 172.909 22.3156 152.158 18.5066 127.278 18.1128 124.706 17.8483 122.114 17.5238 119.531 17.5238 115.318 17.5238 111.105 17.5238 106.893 17.6492 106.262 17.7926 105.635 17.8973 105.001 18.8174 99.4296 19.3499 93.7629 20.7069 88.3008 30.3208 49.6072 62.9872 19.9893 102.408 14.0149 105.478 13.5497 108.562 13.1774 111.639 12.7619 115.851 12.7619 120.063 12.7619 124.275 12.7619ZM118.046 206.144C169.177 206.169 210.874 164.463 210.878 113.29 210.883 62.0713 169.297 20.5039 118.051 20.5034 66.7503 20.5029 25.3051 61.9376 25.2683 113.263 25.2316 164.424 66.8807 206.119 118.046 206.144ZM181.71 192.147C187.485 197.92 193.9 204.331 200.314 210.743 205.141 215.567 209.912 220.449 214.814 225.196 218.014 228.295 221.901 229.072 226.097 227.603 230.176 226.175 232.463 223.129 233.021 218.899 233.498 215.272 232.146 212.238 229.575 209.673 218.783 198.904 208.013 188.113 197.227 177.337 196.847 176.958 196.395 176.651 195.977 176.31 196.195 176.609 196.414 176.908 196.632 177.207 191.716 182.129 186.799 187.052 181.71 192.147Z" class="MsftOfcThm_Accent2_lumMod_20_lumOff_80_Fill_v2" fill="#FFF2CC"/><path d="M117.876 198.719C70.4616 198.388 32.4021 160.075 32.6979 112.974 32.9955 65.5965 71.4269 27.511 118.505 27.9395 165.657 28.3687 203.779 66.7756 203.447 113.517 203.111 160.798 164.697 199.047 117.876 198.719ZM106.884 143.031C106.884 140.301 106.818 137.906 106.899 135.516 107.042 131.302 110.049 128.29 114.266 128.202 118.402 128.115 122.541 128.173 126.679 128.169 128.688 128.167 130.697 128.168 132.925 128.168 132.925 125.728 132.912 123.568 132.927 121.407 132.964 116.225 135.817 113.382 141.043 113.327 143.202 113.304 145.361 113.323 147.611 113.323L147.611 98.4662C146.593 98.4662 145.729 98.4662 144.866 98.4662 134.92 98.4656 124.974 98.4894 115.028 98.4521 111.247 98.4379 108.546 96.7255 107.427 93.708 106.198 90.3939 107.155 87.596 109.621 85.2125 111.383 83.5086 113.148 81.8071 115.209 79.8169 112.933 77.636 110.773 75.8029 108.895 73.7169 105.285 69.7095 106.838 63.4696 111.829 61.8004 113.102 61.3743 114.54 61.3081 115.903 61.3025 125.631 61.2625 135.359 61.2811 145.087 61.2811 145.924 61.281 146.762 61.2811 147.782 61.2811 147.782 59.7929 147.725 58.6406 147.794 57.4961 147.922 55.4046 149.468 53.907 151.423 53.8914 153.286 53.8765 154.853 55.2522 155.127 57.2198 155.226 57.9336 155.181 58.6691 155.181 59.3947 155.183 76.4577 155.183 93.5208 155.183 110.584 155.183 111.428 155.183 112.272 155.183 113.157L195.818 113.157C196.484 85.0973 178.865 51.6894 143.123 39.5003 108.129 27.5664 70.0345 41.634 51.1208 73.1995 32.7872 103.797 39.1943 139.77 56.554 160.665 58.5815 158.139 61.3604 157.783 64.3761 157.838 69.8006 157.936 75.2281 157.865 80.9044 157.865 80.9044 155.694 80.8983 153.753 80.9055 151.813 80.9282 145.762 83.6508 143.034 89.6702 143.031 95.3166 143.028 100.963 143.031 106.884 143.031ZM88.3172 150.437C88.3172 153.165 88.4163 155.562 88.2957 157.947 88.0739 162.333 85.0819 165.174 80.6989 165.276 78.8127 165.32 76.9246 165.287 75.0373 165.287 70.8468 165.288 66.6563 165.288 61.8095 165.288 62.5031 166.773 62.736 168.058 63.4992 168.79 81.9544 186.496 104.041 194.23 129.242 190.299 159.728 185.543 180.475 167.935 191.533 139.088 193.761 133.275 195.039 127.202 195.528 120.873L140.342 120.873C140.342 123.139 140.362 125.297 140.339 127.455 140.284 132.516 137.237 135.564 132.163 135.592 127.009 135.622 121.856 135.595 116.702 135.604 115.939 135.605 115.175 135.671 114.296 135.712 114.296 137.835 114.298 139.714 114.295 141.593 114.288 147.733 111.558 150.435 105.36 150.437 99.7854 150.438 94.2113 150.437 88.3172 150.437ZM114.928 68.884C114.798 69.0633 114.668 69.2426 114.538 69.4219 116.293 71.0234 118.113 72.5604 119.791 74.2396 123.311 77.7639 123.293 82.0087 119.745 85.552 118.08 87.2158 116.277 88.7424 114.536 90.3311 114.681 90.4924 114.826 90.6538 114.971 90.8151L147.615 90.8151 147.615 68.884 114.928 68.884Z" class="MsftOfcThm_Accent2_lumMod_20_lumOff_80_Fill_v2" fill="#FFF2CC"/></svg>