<svg viewBox="0 0 96 96" xmlns="http://www.w3.org/2000/svg" xmlns:xlink="http://www.w3.org/1999/xlink" id="Icons_Priorities_M" overflow="hidden"><style>
.MsftOfcThm_Accent4_Fill_v2 {
 fill:#D9740B; 
}
</style>
<g id="Icons"><path d="M45 57 83 57 83 41 45 41ZM47 43 81 43 81 55 47 55Z" class="MsftOfcThm_Accent4_Fill_v2" fill="#D9740B"/><path d="M45 81 83 81 83 65 45 65ZM47 67 81 67 81 79 47 79Z" class="MsftOfcThm_Accent4_Fill_v2" fill="#D9740B"/><path d="M44 33 84 33 84 15 44 15ZM48 19 80 19 80 29 48 29Z" class="MsftOfcThm_Accent4_Fill_v2" fill="#D9740B"/><path d="M14 18 32.3 18C32.3055 18.0006 32.3095 18.0055 32.3089 18.011 32.3086 18.0133 32.3076 18.0154 32.306 18.017 18.1061 28.8445 15.3722 49.1333 26.1998 63.3332 27.663 65.2522 29.3365 67.0014 31.189 68.548L31.956 69.19 33.238 67.656 32.472 67.014C19.6116 56.2783 17.8893 37.1499 28.625 24.2895 30.2014 22.4012 32.0016 20.7116 33.986 19.258 33.9904 19.2547 33.9967 19.2556 34 19.26 34.0013 19.2617 34.002 19.2638 34.002 19.266L34.002 38 36.002 38 36.002 16 14 16Z" class="MsftOfcThm_Accent4_Fill_v2" fill="#D9740B"/></g></svg>