<svg viewBox="0 0 96 96" xmlns="http://www.w3.org/2000/svg" xmlns:xlink="http://www.w3.org/1999/xlink" id="Icons_MonthlyCalendar_M" overflow="hidden"><style>
.MsftOfcThm_Accent3_lumMod_60_lumOff_40_Fill_v2 {
 fill:#FBC76D; 
}
</style>
<g id="Icons"><path d="M14 82 82 82 82 14 14 14ZM16 16 80 16 80 24 16 24ZM16 26 80 26 80 80 16 80Z" class="MsftOfcThm_Accent3_lumMod_60_lumOff_40_Fill_v2" fill="#D9740B"/><path d="M32 42 22 42 22 74 54 74 54 64 74 64 74 32 32 32ZM32 72 24 72 24 64 32 64ZM32 62 24 62 24 54 32 54ZM32 52 24 52 24 44 32 44ZM64 34 72 34 72 42 64 42ZM64 44 72 44 72 52 64 52ZM64 54 72 54 72 62 64 62ZM54 34 62 34 62 42 54 42ZM54 44 62 44 62 52 54 52ZM54 54 62 54 62 62 54 62ZM44 34 52 34 52 42 44 42ZM44 44 52 44 52 52 44 52ZM44 54 52 54 52 62 44 62ZM44 64 52 64 52 72 44 72ZM34 34 42 34 42 42 34 42ZM34 44 42 44 42 52 34 52ZM34 54 42 54 42 62 34 62ZM34 64 42 64 42 72 34 72Z" class="MsftOfcThm_Accent3_lumMod_60_lumOff_40_Fill_v2" fill="#D9740B"/></g></svg>