<svg viewBox="0 0 96 96" xmlns="http://www.w3.org/2000/svg" xmlns:xlink="http://www.w3.org/1999/xlink" id="Icons_Soap_M" overflow="hidden"><style>
.MsftOfcThm_Accent1_Fill_v2 {
 fill:#F05900; 
}
</style>
<g id="Icons"><path d="M45.4148 22C48.1762 22 50.4148 19.7614 50.4148 17 50.4148 14.2386 48.1762 12 45.4148 12 42.6534 12 40.4148 14.2386 40.4148 17 40.4148 19.7614 42.6534 22 45.4148 22ZM45.4148 14C47.0717 14 48.4148 15.3431 48.4148 17 48.4148 18.6569 47.0717 20 45.4148 20 43.7579 20 42.4148 18.6569 42.4148 17 42.4167 15.3439 43.7587 14.0019 45.4148 14Z" class="MsftOfcThm_Accent1_Fill_v2" fill="#F05900"/><circle cx="62.4148" cy="30" r="2" class="MsftOfcThm_Accent1_Fill_v2" fill="#F05900"/><circle cx="26.4148" cy="20" r="2" class="MsftOfcThm_Accent1_Fill_v2" fill="#F05900"/><path d="M84.4148 30C86.6239 30 88.4148 28.2091 88.4148 26 88.4148 23.7909 86.6239 22 84.4148 22 82.2057 22 80.4148 23.7909 80.4148 26 80.4148 28.2091 82.2057 30 84.4148 30ZM84.4148 24C85.5194 24 86.4148 24.8954 86.4148 26 86.4148 27.1046 85.5194 28 84.4148 28 83.3102 28 82.4148 27.1046 82.4148 26 82.4161 24.896 83.3108 24.0013 84.4148 24Z" class="MsftOfcThm_Accent1_Fill_v2" fill="#F05900"/><path d="M73.9148 17C75.2955 17 76.4148 15.8807 76.4148 14.5 76.4148 13.1193 75.2955 12 73.9148 12 72.5341 12 71.4148 13.1193 71.4148 14.5 71.4148 15.8807 72.5341 17 73.9148 17Z" class="MsftOfcThm_Accent1_Fill_v2" fill="#F05900"/><path d="M9.4148 60C7.75795 60 6.4148 61.3431 6.4148 63 6.4148 64.6569 7.75795 66 9.4148 66 11.0717 66 12.4148 64.6569 12.4148 63 12.4148 61.3431 11.0717 60 9.4148 60ZM9.4148 64C8.86251 64 8.4148 63.5523 8.4148 63 8.4148 62.4477 8.86251 62 9.4148 62 9.96708 62 10.4148 62.4477 10.4148 63 10.4142 63.552 9.96683 63.9994 9.4148 64Z" class="MsftOfcThm_Accent1_Fill_v2" fill="#F05900"/><path d="M90.8184 72.2666 90.8184 72.2661C90.2774 70.1536 88.6359 68.4991 86.5278 67.9414 86.3554 65.6447 85.1296 63.5571 83.2078 62.2876L83.2078 41C83.1997 38.2419 80.9659 36.0081 78.2078 36L46.7918 36C47.1972 35.2288 47.4108 34.3713 47.4146 33.5 47.4112 30.4639 44.9507 28.0034 41.9146 28 40.5234 27.9993 39.1851 28.5324 38.1753 29.4893 37.397 29.1314 36.5442 28.9654 35.6885 29.0054 34.8736 26.0906 31.8501 24.3884 28.9354 25.2032 28.2746 25.388 27.6543 25.6952 27.1069 26.1089 23.031 23.7921 17.8487 25.2182 15.5319 29.2941 15.2126 29.8559 14.9584 30.4523 14.7744 31.0718 14.4902 31.0241 14.2026 31.0001 13.9144 31 10.8768 30.9983 8.41305 33.4594 8.41138 36.497 8.40981 39.3431 10.5799 41.7203 13.4144 41.9775L13.4144 41.9775C13.4058 43.3856 13.774 44.7703 14.4808 45.9882 11.4341 47.8817 10.4992 51.8866 12.3927 54.9333 13.5789 56.8419 15.6674 58.0018 17.9146 58 18.3494 57.9949 18.7826 57.9456 19.2075 57.8528L19.2075 69C19.2156 71.7581 21.4494 73.9919 24.2075 74L51.7687 74C50.9715 77.2192 52.9349 80.4751 56.1541 81.2723 57.1071 81.5083 58.1033 81.507 59.0557 81.2686 59.2974 81.207 59.5344 81.1285 59.7651 81.0337 63.519 84.561 69.2188 85.0084 73.4771 82.11 76.8773 83.6922 80.9236 82.516 82.9458 79.3575 86.0528 80.4967 89.495 78.9015 90.6342 75.7945 91.0488 74.6637 91.113 73.4341 90.8184 72.2662ZM13.4146 51.5C13.4237 49.6387 14.5716 47.9728 16.3076 47.3013L17.5727 46.8164C17.5777 46.815 17.5806 46.8098 17.5792 46.8048 17.5788 46.8033 17.578 46.8019 17.5769 46.8008L16.7305 45.7427C15.6705 44.441 15.2196 42.7472 15.4922 41.0908L15.6904 39.7871C15.6912 39.7816 15.6875 39.7765 15.682 39.7757 15.6811 39.7756 15.6801 39.7756 15.6792 39.7757L14.2539 39.9657C14.1417 39.9851 14.0284 39.9966 13.9146 40 11.9844 40.0027 10.4174 38.4401 10.4148 36.5099 10.4121 34.5796 11.9747 33.0127 13.9049 33.01 14.3343 33.0094 14.7602 33.088 15.1611 33.2417L16.2995 33.6772C16.3046 33.6792 16.3104 33.6767 16.3124 33.6715 16.3127 33.6709 16.3129 33.6702 16.313 33.6695L16.5059 32.4658C17.0697 28.928 20.3946 26.517 23.9324 27.0808 24.9032 27.2355 25.826 27.6087 26.6313 28.1724L27.3183 28.6524 27.3311 28.6512 27.918 28.0527C29.2594 26.6763 31.4626 26.6478 32.8391 27.9892 33.445 28.5797 33.8151 29.3708 33.88 30.2144L33.9747 31.361C33.9752 31.3665 33.98 31.3706 33.9855 31.3701 33.986 31.3701 33.9865 31.37 33.987 31.3699L35.107 31.105C36.0415 30.8664 37.0334 31.0383 37.8331 31.5776L38.5949 32.0789C38.5993 32.0818 38.6051 32.0808 38.6083 32.0767L39.17 31.3584C40.3474 29.8348 42.5369 29.5542 44.0605 30.7315 45.5841 31.9089 45.8647 34.0984 44.6874 35.622 44.2703 36.1618 43.704 36.5673 43.0587 36.7884L42.3437 37.0373C42.3397 37.039 42.3371 37.0429 42.3371 37.0473L42.3902 37.8028C42.3946 37.8619 42.4015 37.92 42.4147 37.9996 42.4194 39.6526 41.0833 40.9965 39.4302 41.0013 38.0486 41.0053 36.8439 40.0631 36.5147 38.7213L36.3431 38.032C36.3421 38.0278 36.3385 38.0248 36.3342 38.0244L35.6266 37.9659C35.1734 37.9302 34.7318 37.8051 34.3272 37.5977L33.4049 37.123C33.4 37.1205 33.394 37.1224 33.3914 37.1273 33.3914 37.1275 33.3913 37.1276 33.3912 37.1278L32.96 38.0714C32.1464 39.8511 30.3715 40.9947 28.4146 41L27.4246 41C27.4191 41 27.4146 41.0045 27.4146 41.01L27.4146 42C27.4169 43.8311 26.5791 45.5621 25.1416 46.6963L24.4078 47.2802C24.4036 47.2835 24.4028 47.2896 24.4059 47.2939L24.9487 48.0581C25.7473 49.1686 25.4943 50.7163 24.3838 51.5148 24.0145 51.7804 23.5791 51.9391 23.1255 51.9736L22.4391 52.0321C22.4349 52.0325 22.4314 52.0354 22.4303 52.0394L22.2461 52.7031C21.5833 55.0968 19.1054 56.5 16.7117 55.8371 14.7624 55.2974 13.4133 53.5227 13.4146 51.5ZM21.2075 69 21.2075 57.0771C22.4609 56.3431 23.4323 55.2105 23.9668 53.86 26.3727 53.2922 27.8627 50.8816 27.2949 48.4757 27.2315 48.2067 27.1432 47.9442 27.0313 47.6915 28.3286 46.419 29.1505 44.7402 29.36 42.9351 31.4021 42.6513 33.2166 41.485 34.3228 39.7451 34.4747 39.791 34.6288 39.8301 34.7852 39.8623 35.809 42.4228 38.7146 43.6685 41.2751 42.6447 43.0436 41.9376 44.2558 40.2859 44.4 38.3867 44.6244 38.2727 44.8407 38.1435 45.0474 38L78.2074 38C79.8622 38.0048 81.2026 39.3451 81.2074 41L81.2074 61.344C78.3054 60.4619 75.1581 61.4216 73.2421 63.7729 71.9525 62.9383 70.5018 62.3845 68.9841 62.1475 69.1309 61.7916 69.2068 61.4104 69.2074 61.0254L69.2074 48.9746C69.2026 47.3338 67.8737 46.0049 66.2329 46L36.1821 46C34.5413 46.0048 33.2123 47.3338 33.2075 48.9746L33.2075 61.0254C33.2123 62.6662 34.5413 63.9952 36.1821 64L61.0068 64C59.0763 65.3447 57.6271 67.2724 56.8716 69.5005 56.6228 69.5256 56.3763 69.5688 56.1338 69.6299 54.7465 69.9822 53.5333 70.8239 52.7175 72L24.2075 72C22.5527 71.9952 21.2123 70.6548 21.2075 69ZM67.2075 61.0254C67.2059 61.563 66.7705 61.9984 66.2329 62L36.1821 62C35.6445 61.9984 35.2091 61.563 35.2075 61.0254L35.2075 48.9746C35.2091 48.437 35.6445 48.0016 36.1821 48L66.2321 48C66.77 48.0016 67.2056 48.4372 67.2072 48.9751ZM85.9722 77.6064C84.9709 77.8571 83.9113 77.7084 83.0176 77.1919L82.0846 76.6577C82.0798 76.655 82.0737 76.6567 82.071 76.6615 82.0708 76.6617 82.0707 76.662 82.0706 76.6622L81.6152 77.6362C80.3361 80.3852 77.0706 81.5768 74.3216 80.2976 74.174 80.229 74.0296 80.1538 73.8887 80.0723L73.3149 79.7416 73.3038 79.7424 72.7793 80.147C69.0999 82.9818 63.8669 82.5476 60.7051 79.145L60.182 78.5843 60.17 78.5823 59.4966 78.9482C59.2044 79.114 58.8924 79.242 58.5679 79.3291 56.425 79.8665 54.2522 78.5651 53.7148 76.4222 53.1773 74.2794 54.4787 72.1065 56.6216 71.5691 56.9485 71.4939 57.2834 71.4594 57.6187 71.4661L58.3853 71.4705C58.3899 71.4705 58.394 71.4674 58.3953 71.463L58.5916 70.722C59.852 65.921 64.7657 63.0508 69.5666 64.3112 70.7667 64.6262 71.8886 65.1864 72.8616 65.9563L73.7443 66.6515C73.7486 66.6549 73.7549 66.6542 73.7584 66.6499 73.7586 66.6495 73.7589 66.6492 73.7591 66.6488L74.3377 65.6858C75.8957 63.081 79.2703 62.2323 81.8751 63.7903 83.6035 64.8241 84.628 66.7205 84.5452 68.7327L84.5085 69.6546C84.5085 69.6597 84.5123 69.664 84.5174 69.6646L85.4344 69.7661C87.6256 69.9998 89.2125 71.9655 88.9788 74.1567 88.801 75.824 87.5998 77.2022 85.9725 77.6061Z" class="MsftOfcThm_Accent1_Fill_v2" fill="#F05900"/></g></svg>