<svg viewBox="0 0 184.35 206.15" xmlns="http://www.w3.org/2000/svg" xmlns:xlink="http://www.w3.org/1999/xlink" id="Capa_2" overflow="hidden"><g id="Capa_1-2"><g id="anYQov.tif"><g><path d="M0 18.25C1.2 12.95 3.49 8.28 7.83 4.8 11.74 1.68 16.14 0 21.17 0 51.87 0.01 82.57 0.02 113.27 0 117.45 0 121.02 1.47 123.95 4.38 135.78 16.16 147.57 27.97 159.36 39.79 162.29 42.73 163.74 46.38 163.77 50.49 163.85 58.8 163.79 67.12 163.8 75.43 163.8 77.08 163.38 78.5 161.72 79.22 159.54 80.17 157.39 78.64 157.26 75.92 157.14 73.31 157.21 70.69 157.21 68.08 157.21 62.65 157.21 57.22 157.21 51.79 157.21 49.8433 156.257 48.8667 154.35 48.86 145.9 48.86 137.46 48.89 129.01 48.85 121.75 48.81 116.56 44.76 115.18 38.1 114.96 37.06 114.94 35.97 114.94 34.9 114.92 26.45 114.94 18 114.93 9.56 114.93 6.39 114.91 6.34 111.65 6.34 96.84 6.33 82.02 6.34 67.21 6.33 52.4 6.33 37.58 6.33 22.77 6.33 18.34 6.33 14.28 7.41 11.02 10.65 8.14 13.52 6.48 16.91 6.48 21.04 6.48 28.55 6.46 36.06 6.46 43.57 6.46 90.23 6.49 136.9 6.42 183.56 6.42 188.55 7.78 192.76 11.53 196.14 14.82 199.11 18.79 199.99 23.06 199.99 57.51 199.99 91.97 200.01 126.42 199.97 132.44 199.97 138.49 200.4 144.49 199.65 151.52 198.76 157.13 192.59 157.17 185.47 157.25 170.05 157.2 154.63 157.22 139.21 157.22 138.34 157.19 137.45 157.39 136.61 157.76 134.99 158.85 134.07 160.55 134.06 162.29 134.05 163.28 135.06 163.66 136.66 163.84 137.43 163.8 138.26 163.8 139.06 163.8 153.81 163.65 168.56 163.85 183.31 164.02 195.63 155.78 204.16 146.57 205.95 146.38 205.99 146.2 206.1 146.02 206.18L17.7 206.18C14.17 205.29 10.86 203.95 7.97 201.63 3.59 198.11 1.19 193.45 -8.88178e-16 188.07L-8.88178e-16 18.25ZM121.62 11.84C121.59 12.15 121.51 12.66 121.5 13.17 121.5 20.54 121.47 27.91 121.5 35.28 121.52 39.68 124.11 42.25 128.52 42.27 135.96 42.3 143.39 42.29 150.83 42.27 151.29 42.27 151.89 42.56 152.03 42.29 141.81 32.06 131.7 21.95 121.61 11.85Z" stroke="none" stroke-width="1" fill="#F05900" fill-opacity="1"/><path d="M81.34 166.05C75.36 166.05 69.8 166.05 64.24 166.05 63.57 166.05 62.9 166.08 62.23 166.03 60.37 165.89 59.02 164.48 59.08 162.78 59.14 161.14 60.44 159.83 62.24 159.76 64.18 159.69 66.13 159.73 68.07 159.73 73.97 159.73 79.87 159.7 85.77 159.75 87.08 159.76 88.04 159.35 88.97 158.44 90.58 156.85 92.32 155.4 94.09 153.81 92.94 152.91 92.18 153.17 91.48 153.16 82.3 153.14 73.11 153.15 63.93 153.14 63.19 153.14 62.44 153.18 61.73 153.03 60.1 152.67 59.12 151.59 59.1 149.92 59.08 148.34 59.96 147.23 61.52 146.88 62.55 146.65 63.64 146.6 64.71 146.6 75.9 146.58 87.1 146.56 98.29 146.62 100.04 146.62 101.31 146.11 102.53 144.86 107.26 140.02 112.08 135.26 116.87 130.47 117.34 130 117.76 129.5 118.25 128.98 117.45 128.32 116.61 128.6 115.86 128.6 98.57 128.58 81.27 128.59 63.98 128.58 60.73 128.58 59.14 127.53 59.08 125.38 59.01 123.18 60.72 122 64.04 122 83.48 122 102.92 121.97 122.35 122.04 124.46 122.04 126.09 121.59 127.46 119.93 128.58 118.57 129.93 117.39 131.24 116.05 130.22 115.46 129.4 115.67 128.63 115.67 107.25 115.66 85.87 115.67 64.48 115.65 63.55 115.65 62.59 115.65 61.69 115.45 60.05 115.11 59.09 114 59.11 112.32 59.14 110.55 60.2 109.47 61.92 109.16 62.7 109.02 63.52 109.07 64.33 109.07 88.13 109.07 111.92 109.05 135.71 109.1 137.54 109.1 138.84 108.56 140.11 107.26 146.69 100.57 153.33 93.94 160 87.33 165.23 82.15 172.45 81.32 178.16 85.15 185.51 90.07 186.5 100.17 180.15 106.67 174.49 112.48 168.7 118.16 162.96 123.9 155.8 131.06 148.65 138.22 141.48 145.37 140.7 146.15 140.05 146.69 141.35 147.68 142.37 148.45 142.63 149.67 142.14 150.96 141.63 152.3 140.56 153.29 139.26 153.04 133.6 151.95 130.8 155.84 127.6 159.47 129.07 159.96 130.52 159.66 131.92 159.69 134.13 159.75 136.34 159.69 138.56 159.71 140.93 159.73 142.42 160.98 142.4 162.88 142.38 164.77 140.89 166 138.49 166.01 133.26 166.03 128.03 166.06 122.81 165.99 121.42 165.97 120.42 166.41 119.46 167.39 114 172.93 108.47 178.4 102.99 183.91 100.4 186.51 97.43 188.52 93.99 189.83 88.73 191.84 83.47 193.83 78.24 195.91 76.01 196.8 74.01 196.65 72.29 194.98 70.5 193.24 70.32 191.13 71.21 188.86 73.36 183.37 75.48 177.87 77.61 172.37 78.46 170.18 79.82 168.28 81.34 166.02ZM98.51 178.92C99.15 178.83 99.5 178.3 99.91 177.88 118.73 159.07 137.53 140.24 156.37 121.46 157.43 120.4 157.23 119.82 156.28 118.9 153.58 116.3 150.9 113.66 148.33 110.93 147.27 109.81 146.63 109.9 145.6 110.95 140.34 116.3 135.01 121.59 129.7 126.89 116.34 140.26 102.99 153.64 89.59 166.96 88.34 168.2 88.06 169.01 89.5 170.33 92.16 172.78 94.64 175.42 97.21 177.97 97.58 178.34 97.91 178.79 98.51 178.9ZM177.76 97.09C177.78 93.61 176.27 91.37 173.51 90.03 170.63 88.63 167.88 89.11 165.48 91.18 164.21 92.27 163.12 93.56 161.89 94.69 160.97 95.54 161.09 96.18 161.94 97.01 164.06 99.05 166.12 101.17 168.21 103.25 171.38 106.42 171.36 106.39 174.6 103.2 176.43 101.41 177.92 99.5 177.76 97.09ZM166.54 110.89C166.28 110.58 166.01 110.2 165.69 109.88 163.67 107.84 161.63 105.81 159.6 103.78 156.03 100.21 156.06 100.23 152.65 103.91 151.84 104.79 151.77 105.38 152.65 106.23 154.82 108.31 156.91 110.47 159.04 112.6 161.093 114.653 163.167 114.627 165.26 112.52 165.72 112.05 166.32 111.69 166.54 110.9ZM78.09 189.08C83.06 187.15 87.53 185.41 92.02 183.69 93.15 183.26 92.88 182.78 92.22 182.13 89.89 179.83 87.55 177.52 85.27 175.17 84.4 174.27 83.87 174.07 83.35 175.47 81.7 179.85 79.99 184.2 78.1 189.08Z" stroke="none" stroke-width="1" fill="#F05900" fill-opacity="1"/><path d="M62.57 25.42C73.7 25.42 84.82 25.42 95.95 25.42 101.66 25.42 103.91 27.65 103.91 33.28 103.91 36.23 103.93 39.18 103.91 42.13 103.87 45.79 101.8 48.18 98.19 48.72 97.47 48.83 96.72 48.84 95.99 48.84 81.78 48.84 67.57 48.84 53.36 48.84 52.42 48.84 51.48 48.88 50.57 48.57 49.08 48.05 48.19 46.99 48.25 45.41 48.32 43.75 49.33 42.68 50.97 42.37 51.75 42.22 52.57 42.27 53.37 42.27 67.24 42.27 81.12 42.23 94.99 42.31 96.98 42.32 97.82 41.85 97.62 39.74 97.45 38.01 97.45 36.24 97.62 34.52 97.83 32.4 96.94 31.95 94.97 31.96 79.55 32.03 64.14 32 48.72 32 42.49 32 36.25 32.04 30.02 31.97 28.4 31.95 27.68 32.42 27.77 34.13 27.88 36.14 27.86 38.15 27.77 40.16 27.7 41.7 28.22 42.35 29.84 42.28 32.18 42.18 34.53 42.22 36.88 42.28 39.02 42.33 40.38 43.5 40.5 45.28 40.63 47.12 39.31 48.64 37.1 48.74 33.82 48.88 30.52 48.96 27.26 48.72 23.46 48.43 21.27 45.82 21.22 41.98 21.18 38.83 21.19 35.68 21.22 32.53 21.26 28.01 23.82 25.44 28.38 25.43 39.77 25.4 51.17 25.43 62.56 25.42Z" stroke="none" stroke-width="1" fill="#F05900" fill-opacity="1"/><path d="M100.63 91.12C88.51 91.12 76.38 91.12 64.26 91.12 63.26 91.12 62.25 91.17 61.28 90.79 59.89 90.24 59.06 89.23 59.1 87.74 59.14 86.16 60.04 85.1 61.57 84.7 62.27 84.52 63.03 84.54 63.76 84.54 88.41 84.54 113.06 84.54 137.7 84.54 138.17 84.54 138.64 84.52 139.11 84.56 141.04 84.73 142.35 86.01 142.39 87.73 142.42 89.29 141.18 90.7 139.4 91 138.61 91.13 137.8 91.11 137 91.11 124.88 91.11 112.75 91.11 100.63 91.11Z" stroke="none" stroke-width="1" fill="#F05900" fill-opacity="1"/><path d="M100.67 78.18C88.8 78.18 76.94 78.18 65.07 78.17 63.94 78.17 62.78 78.11 61.67 77.9 60 77.59 59.15 76.41 59.09 74.77 59.03 73.22 60.33 71.88 61.97 71.68 62.57 71.61 63.18 71.64 63.78 71.64 88.38 71.64 112.98 71.64 137.59 71.64 140.75 71.64 142.3 72.63 142.39 74.69 142.49 76.81 140.81 78.14 137.67 78.15 125.34 78.19 113 78.17 100.67 78.17L100.67 78.17Z" stroke="none" stroke-width="1" fill="#F05900" fill-opacity="1"/><path d="M21.23 118.71C21.23 116.36 21.17 114.02 21.24 111.67 21.34 108.41 23.22 106.1 26.45 105.81 31.79 105.32 37.16 105.3 42.49 105.83 45.66 106.14 47.51 108.37 47.56 111.57 47.63 116.46 47.63 121.36 47.56 126.25 47.52 129.28 45.64 131.6 42.6 131.89 37.2 132.41 31.75 132.4 26.36 131.91 23.13 131.62 21.32 129.26 21.24 125.96 21.18 123.55 21.23 121.13 21.23 118.72ZM34.27 125.56C35.88 125.56 37.49 125.51 39.09 125.58 40.42 125.63 41.08 125.19 41.06 123.76 41.01 120.48 41.02 117.19 41.06 113.91 41.07 112.65 40.6 112.09 39.29 112.11 36.08 112.16 32.86 112.17 29.65 112.11 28.21 112.08 27.78 112.7 27.81 114.03 27.86 117.24 27.86 120.46 27.81 123.68 27.79 125.03 28.24 125.66 29.67 125.59 31.21 125.51 32.75 125.57 34.29 125.57Z" stroke="none" stroke-width="1" fill="#F05900" fill-opacity="1"/><path d="M34.51 143.26C36.85 143.26 39.2 143.22 41.54 143.26 45.13 143.33 47.51 145.62 47.57 149.16 47.64 153.98 47.64 158.81 47.57 163.63 47.53 167.05 45.22 169.49 41.77 169.58 36.89 169.71 31.99 169.7 27.11 169.58 23.67 169.5 21.33 167.12 21.26 163.66 21.16 158.77 21.16 153.88 21.26 148.99 21.33 145.7 23.79 143.36 27.08 143.27 29.56 143.2 32.03 143.26 34.51 143.25ZM27.81 156.45C27.81 158.06 27.83 159.67 27.81 161.28 27.79 162.4 28.15 163.06 29.41 163.05 32.76 163.02 36.11 163.03 39.46 163.05 40.55 163.05 41.05 162.55 41.04 161.46 41.04 158.18 41.02 154.89 41.04 151.61 41.05 150.33 40.48 149.8 39.22 149.81 36 149.84 32.79 149.84 29.57 149.81 28.28 149.8 27.76 150.38 27.8 151.64 27.84 153.25 27.81 154.86 27.81 156.47Z" stroke="none" stroke-width="1" fill="#F05900" fill-opacity="1"/><path d="M34.49 94.43C32.08 94.43 29.67 94.46 27.26 94.43 23.83 94.37 21.33 92.08 21.26 88.7 21.15 83.81 21.16 78.92 21.26 74.03 21.33 70.66 23.58 68.25 26.93 68.14 31.88 67.98 36.85 67.98 41.8 68.13 45.34 68.23 47.55 70.72 47.58 74.31 47.62 79 47.63 83.69 47.58 88.38 47.54 92.1 45.21 94.38 41.54 94.43 39.2 94.46 36.85 94.43 34.51 94.43ZM41.03 81.43C41.03 79.76 41.01 78.08 41.03 76.41 41.05 75.28 40.65 74.64 39.41 74.65 36.06 74.68 32.72 74.67 29.37 74.65 28.27 74.65 27.79 75.13 27.79 76.22 27.81 79.63 27.82 83.05 27.79 86.46 27.78 87.67 28.31 88.12 29.49 88.1 32.77 88.06 36.05 88.06 39.33 88.1 40.52 88.11 41.05 87.64 41.03 86.44 41 84.77 41.03 83.09 41.03 81.42Z" stroke="none" stroke-width="1" fill="#F05900" fill-opacity="1"/></g></g></g></svg>