<svg viewBox="0 0 96 96" xmlns="http://www.w3.org/2000/svg" xmlns:xlink="http://www.w3.org/1999/xlink" id="Icons_Processor_M" overflow="hidden"><style>
.MsftOfcThm_Background1_Fill_v2 {
 fill:#FFFFFF; 
}
</style>
<g id="Icons"><path d="M31 65 65 65 65 31 31 31ZM33 33 63 33 63 63 33 63Z" class="MsftOfcThm_Background1_Fill_v2" fill="#FFFFFF"/><path d="M84 29 84 27 75 27 75 26C74.9967 23.2399 72.7601 21.0033 70 21L69 21 69 12 67 12 67 21 61 21 61 12 59 12 59 21 53 21 53 12 51 12 51 21 45 21 45 12 43 12 43 21 37 21 37 12 35 12 35 21 29 21 29 12 27 12 27 21 26 21C23.2399 21.0033 21.0033 23.2399 21 26L21 27 12 27 12 29 21 29 21 35 12 35 12 37 21 37 21 43 12 43 12 45 21 45 21 51 12 51 12 53 21 53 21 59 12 59 12 61 21 61 21 67 12 67 12 69 21 69 21 70C21.0033 72.7601 23.2399 74.9967 26 75L27 75 27 84 29 84 29 75 35 75 35 84 37 84 37 75 43 75 43 84 45 84 45 75 51 75 51 84 53 84 53 75 59 75 59 84 61 84 61 75 67 75 67 84 69 84 69 75 70 75C72.7601 74.9967 74.9967 72.7601 75 70L75 69 84 69 84 67 75 67 75 61 84 61 84 59 75 59 75 53 84 53 84 51 75 51 75 45 84 45 84 43 75 43 75 37 84 37 84 35 75 35 75 29ZM73 70C73 71.6569 71.6569 73 70 73L26 73C24.3431 73 23 71.6569 23 70L23 26C23 24.3431 24.3431 23 26 23L70 23C71.6569 23 73 24.3431 73 26Z" class="MsftOfcThm_Background1_Fill_v2" fill="#FFFFFF"/></g></svg>