<svg viewBox="0 0 480 480" xmlns="http://www.w3.org/2000/svg" xmlns:xlink="http://www.w3.org/1999/xlink" id="15d54fae-e609-4157-9535-fb030fef09b8" overflow="hidden"><style>
.MsftOfcThm_Accent4_Fill_v2 {
 fill:#B58DBF; 
}
</style>
<g><path d="M419 113 61 113C57.686 113 55 115.686 55 119L55 347C55 350.314 57.686 353 61 353L419 353C422.314 353 425 350.314 425 347L425 119C425 115.686 422.314 113 419 113Z" class="st0" fill="#505050"/><path d="M66 113C62.686 113 60 115.686 60 119L60 347C60 350.314 62.686 353 66 353L223 353 223 113 66 113Z" class="st1" fill="#737373"/><path d="M414 113 255 113 255 353 414 353C417.314 353 420 350.314 420 347L420 119C420 115.686 417.314 113 414 113Z" class="st1" fill="#737373"/></g><g><rect x="84" y="113" width="93" height="23" class="st0" fill="#505050"/><rect x="95" y="103.798" width="93" height="32.202" class="st2" fill="#D2D2D2"/><rect x="151" y="334" width="180" height="25" class="st2" fill="#D2D2D2"/><rect x="153" y="113" width="24" height="14" class="st3" fill="#FFFFFF"/></g><g><path d="M78 131.4 77.6 332.2 81.762 338 396.3 338 400 333.8 400 132.6 396.25 128 81.737 128Z" class="st4" fill="#F2F2F2"/><rect x="69" y="128" width="12.79" height="210" class="st5" fill="#E6E6E6"/><rect x="396.21" y="128" width="12.79" height="210" class="st5" fill="#E6E6E6" transform="matrix(-1 -4.52985e-11 4.52985e-11 -1 805.21 466)"/><g><rect x="71.5" y="128" width="1" height="165" class="st2" fill="#D2D2D2"/><rect x="74.5" y="128" width="1" height="165" class="st2" fill="#D2D2D2"/><rect x="77.5" y="128" width="1" height="165" class="st2" fill="#D2D2D2"/></g><g><rect x="405.5" y="128" width="1" height="210" class="st2" fill="#D2D2D2"/><rect x="402.5" y="128" width="1" height="210" class="st2" fill="#D2D2D2"/><rect x="399.5" y="128" width="1" height="210" class="st2" fill="#D2D2D2"/></g><path d="M239 338 384.65 328.356 384.65 118.356 239 128Z" class="st2" fill="#D2D2D2"/><path d="M239 338 366.141 322.643 366.141 112.643 239 128Z" class="st3" fill="#FFFFFF"/></g><g><g><path d="M187 155 97 155C95.896 155 95 154.104 95 153 95 151.896 95.896 151 97 151L187 151C188.104 151 189 151.896 189 153 189 154.104 188.104 155 187 155Z" class="st5" fill="#E6E6E6"/></g><g><path d="M187 169.5 97 169.5C95.896 169.5 95 168.604 95 167.5 95 166.396 95.896 165.5 97 165.5L187 165.5C188.104 165.5 189 166.396 189 167.5 189 168.604 188.104 169.5 187 169.5Z" class="st5" fill="#E6E6E6"/></g><g><path d="M187 184 97 184C95.896 184 95 183.104 95 182 95 180.896 95.896 180 97 180L187 180C188.104 180 189 180.896 189 182 189 183.104 188.104 184 187 184Z" class="st5" fill="#E6E6E6"/></g><g><path d="M187 198.5 97 198.5C95.896 198.5 95 197.604 95 196.5 95 195.396 95.896 194.5 97 194.5L187 194.5C188.104 194.5 189 195.396 189 196.5 189 197.604 188.104 198.5 187 198.5Z" class="st5" fill="#E6E6E6"/></g><g><path d="M187 213 97 213C95.896 213 95 212.104 95 211 95 209.896 95.896 209 97 209L187 209C188.104 209 189 209.896 189 211 189 212.104 188.104 213 187 213Z" class="st5" fill="#E6E6E6"/></g><g><path d="M152 227.5 97 227.5C95.896 227.5 95 226.604 95 225.5 95 224.396 95.896 223.5 97 223.5L152 223.5C153.104 223.5 154 224.396 154 225.5 154 226.604 153.104 227.5 152 227.5Z" class="st5" fill="#E6E6E6"/></g><g><path d="M187 242 97 242C95.896 242 95 241.104 95 240 95 238.896 95.896 238 97 238L187 238C188.104 238 189 238.896 189 240 189 241.104 188.104 242 187 242Z" class="st5" fill="#E6E6E6"/></g><g><path d="M187 256.5 97 256.5C95.896 256.5 95 255.604 95 254.5 95 253.396 95.896 252.5 97 252.5L187 252.5C188.104 252.5 189 253.396 189 254.5 189 255.604 188.104 256.5 187 256.5Z" class="st5" fill="#E6E6E6"/></g><g><path d="M187 271 97 271C95.896 271 95 270.104 95 269 95 267.896 95.896 267 97 267L187 267C188.104 267 189 267.896 189 269 189 270.104 188.104 271 187 271Z" class="st5" fill="#E6E6E6"/></g><g><path d="M187 285.5 97 285.5C95.896 285.5 95 284.604 95 283.5 95 282.396 95.896 281.5 97 281.5L187 281.5C188.104 281.5 189 282.396 189 283.5 189 284.604 188.104 285.5 187 285.5Z" class="st5" fill="#E6E6E6"/></g><g><path d="M187 300 97 300C95.896 300 95 299.104 95 298 95 296.896 95.896 296 97 296L187 296C188.104 296 189 296.896 189 298 189 299.104 188.104 300 187 300Z" class="st5" fill="#E6E6E6"/></g></g><g><path d="M259.498 155C258.519 155 257.664 154.281 257.521 153.284 257.364 152.191 258.123 151.177 259.216 151.02L349.716 138.02C350.812 137.859 351.823 138.622 351.98 139.715 352.137 140.808 351.378 141.822 350.285 141.979L259.785 154.979C259.688 154.994 259.592 155 259.498 155Z" class="st5" fill="#E6E6E6"/><path d="M259.298 169.5C258.318 169.5 257.463 168.78 257.32 167.782 257.164 166.689 257.924 165.676 259.018 165.52L349.518 152.62C350.614 152.46 351.624 153.224 351.78 154.318 351.936 155.411 351.176 156.424 350.082 156.58L259.582 169.48C259.487 169.494 259.391 169.5 259.298 169.5Z" class="st5" fill="#E6E6E6"/><path d="M259.098 184C258.117 184 257.261 183.278 257.12 182.279 256.965 181.185 257.727 180.173 258.82 180.019L349.32 167.219C350.415 167.059 351.426 167.825 351.58 168.919 351.735 170.013 350.973 171.025 349.88 171.179L259.38 183.979C259.285 183.994 259.191 184 259.098 184Z" class="st5" fill="#E6E6E6"/><path d="M258.898 198.5C257.917 198.5 257.06 197.777 256.92 196.777 256.767 195.683 257.529 194.672 258.623 194.519L349.123 181.819C350.218 181.66 351.228 182.427 351.382 183.522 351.535 184.616 350.773 185.627 349.679 185.78L259.179 198.48C259.084 198.494 258.99 198.5 258.898 198.5Z" class="st5" fill="#E6E6E6"/><path d="M258.698 213C257.716 213 256.859 212.276 256.72 211.275 256.568 210.181 257.331 209.171 258.425 209.019L348.925 196.419C350.02 196.261 351.029 197.03 351.182 198.124 351.334 199.218 350.571 200.228 349.477 200.38L258.977 212.98C258.882 212.994 258.789 213 258.698 213Z" class="st5" fill="#E6E6E6"/><path d="M258.498 227.5C257.515 227.5 256.658 226.775 256.519 225.773 256.368 224.679 257.132 223.669 258.227 223.519L348.727 211.019C349.822 210.861 350.831 211.632 350.982 212.727 351.133 213.821 350.369 214.831 349.274 214.981L258.774 227.481C258.681 227.494 258.589 227.5 258.498 227.5Z" class="st5" fill="#E6E6E6"/><path d="M258.298 242C257.314 242 256.456 241.273 256.319 240.271 256.169 239.177 256.935 238.168 258.029 238.018L348.529 225.618C349.624 225.461 350.632 226.233 350.782 227.328 350.932 228.422 350.166 229.431 349.072 229.581L258.572 241.981C258.479 241.994 258.388 242 258.298 242Z" class="st5" fill="#E6E6E6"/><path d="M258.098 256.5C257.113 256.5 256.255 255.772 256.119 254.769 255.97 253.675 256.737 252.667 257.831 252.518L348.331 240.218C349.425 240.062 350.433 240.836 350.582 241.93 350.731 243.024 349.964 244.032 348.87 244.181L258.37 256.481C258.278 256.494 258.187 256.5 258.098 256.5Z" class="st5" fill="#E6E6E6"/><path d="M257.898 271C256.912 271 256.054 270.271 255.918 269.267 255.77 268.173 256.538 267.166 257.633 267.018L348.133 254.818C349.227 254.662 350.235 255.438 350.382 256.533 350.53 257.627 349.762 258.634 348.667 258.782L258.167 270.982C258.077 270.994 257.986 271 257.898 271Z" class="st5" fill="#E6E6E6"/><path d="M257.698 285.5C256.711 285.5 255.852 284.77 255.718 283.765 255.572 282.67 256.34 281.664 257.435 281.518L347.935 269.418C349.029 269.263 350.036 270.04 350.182 271.135 350.328 272.23 349.56 273.236 348.465 273.382L257.965 285.482C257.875 285.495 257.786 285.5 257.698 285.5Z" class="st5" fill="#E6E6E6"/><path d="M257.498 300C256.51 300 255.651 299.269 255.518 298.263 255.373 297.168 256.143 296.163 257.238 296.018L347.738 284.018C348.832 283.864 349.839 284.643 349.984 285.738 350.129 286.833 349.359 287.838 348.264 287.983L257.764 299.983C257.674 299.995 257.585 300 257.498 300Z" class="st5" fill="#E6E6E6"/></g><path d="M223 238.975 210 229.975 197 238.975 197 127.975 223 127.975Z" class="MsftOfcThm_Accent4_Fill_v2" fill="#B58DBF"/></svg>