<svg viewBox="0 0 96 96" xmlns="http://www.w3.org/2000/svg" xmlns:xlink="http://www.w3.org/1999/xlink" id="Icons_Aspiration_M" overflow="hidden"><style>
.MsftOfcThm_Background1_Fill_v2 {
 fill:#FFFFFF; 
}
</style>
<g id="Icons"><path d="M85 6.68 75 18 74.5 28.3855 67.5 37.7788 66.0725 38.3988 66.0503 38.1853C65.9611 37.2049 65.3628 36.3437 64.4751 35.918L59.8105 33.6721 56.5122 28.96 65.4673 28.4056C65.8865 28.3618 66.2788 28.6186 66.4063 29.0203 66.5123 29.4579 66.2434 29.8986 65.8058 30.0046 65.7577 30.0162 65.7086 30.0235 65.6592 30.0262L60.3818 30.3753C59.8305 30.408 59.4101 30.8814 59.4428 31.4327 59.4755 31.9841 59.9489 32.4045 60.5002 32.3718 60.5047 32.3715 60.5092 32.3712 60.5137 32.3709L65.7871 32.022C67.3389 31.9263 68.5194 30.5907 68.4237 29.0389 68.4141 28.8843 68.3919 28.7308 68.3571 28.5799 68.0162 27.2182 66.7425 26.3012 65.343 26.4099L54.9956 27.05 53.49 25.8472C51.222 24.281 48.1286 24.7378 46.41 26.8926L40.9877 33.7234C40.3929 34.4705 40.0006 35.3581 39.8483 36.3008L39.8466 36.3057 38.334 46.5745 33.1172 52.8652C31.911 54.3194 32.1121 56.4761 33.5662 57.6823 35.0204 58.8884 37.1771 58.6874 38.3833 57.2332L44.2144 50.2021C44.6169 49.717 44.8774 49.13 44.9673 48.5061L45.3818 45.6301C45.4605 45.0833 45.0811 44.5763 44.5344 44.4976 43.9876 44.4188 43.4805 44.7982 43.4018 45.345L42.9873 48.2212C42.95 48.4802 42.8419 48.7239 42.6748 48.9253L36.8437 55.9561C36.342 56.5589 35.4472 56.6423 34.8428 56.1426 34.2392 55.6414 34.1557 54.746 34.6562 54.1418L40.2314 47.42 41.1914 40.9C41.5124 41.2726 41.8814 41.601 42.2887 41.8766L49.2944 46.5 48.8076 54.2841C48.7472 55.2486 49.0973 56.1936 49.7715 56.8859L49.7756 56.8894 49 57 36 68 34 76 22 78 18 83 10 85 8 90 89 90 89 5ZM68.2968 39.6133 68.7853 39.4011 69.1037 38.9739 76.1037 29.5806 76.4684 29.0913 76.4977 28.4813 76.9639 18.7972 86.1961 8.3467 87 8.009 87 55.875 82.2622 57.77 76.374 53.0593 66.8188 54.2537 60.6673 48.1023 62.6238 42.0771ZM43.3906 40.2075C42.2045 39.4258 41.59 38.0189 41.8226 36.6175L41.8248 36.6031C41.9261 36.0048 42.1772 35.4418 42.5548 34.9668L47.9772 28.1358C48.596 27.3595 49.5351 26.9078 50.5279 26.909 51.1619 26.9064 51.7817 27.0973 52.3043 27.4563L53.3375 28.2845C53.7316 28.6003 54.0788 28.9707 54.3684 29.3845L58.4718 35.2469 63.6074 37.72C63.82 37.8227 63.9765 38.014 64.0352 38.2427L63.8501 38.9985C63.6109 39.2659 63.2241 39.3436 62.9001 39.1895L57.6912 36.6817 57.4494 36.5037 53.21 31.9546 47.3643 39.3184 53.63 43.5845C54.045 43.8668 54.2802 44.3472 54.2486 44.8481L53.6475 54.4481C53.6294 55.2123 53.0441 55.843 52.2833 55.9181 51.4989 55.9519 50.8356 55.3433 50.8019 54.5589 50.7997 54.5092 50.8002 54.4595 50.8033 54.4098L51.3624 45.4681ZM54.7563 41.9314 50.269 38.8765 53.3315 35.0186 55.9863 37.8667C56.2244 38.1232 56.5087 38.3325 56.8242 38.4839L61.0282 40.5129 56 56 55.1751 56.1179C55.4456 55.6449 55.6059 55.117 55.644 54.5735L56.2451 44.9768C56.3203 43.7702 55.7547 42.6131 54.7563 41.9314ZM10.9541 88 11.4772 86.6924 18.4851 84.94 19.14 84.7764 19.5618 84.2491 23.0837 79.8467 34.3288 77.9727 35.6223 77.7571 35.9403 76.4849 37.784 69.11 49.8525 58.898 56.2825 57.9796 57.5169 57.8031 57.9019 56.6173 59.9738 50.2373 66.0962 56.36 75.7842 55.1491 81.9233 60.06 87 58.0291 87 88Z" class="MsftOfcThm_Background1_Fill_v2" fill="#FFFFFF"/><path d="M55.8912 25.3679C55.9828 25.3679 56.0754 25.365 56.1682 25.3594 58.6042 25.209 60.4571 23.1123 60.3067 20.6763 60.1629 18.3472 58.2329 16.5313 55.8994 16.5294 55.8076 16.5294 55.715 16.5321 55.622 16.538 53.1859 16.6866 51.3316 18.7819 51.4802 21.218 51.6224 23.5498 53.5551 25.3681 55.8912 25.368ZM55.7458 18.5342C55.7972 18.531 55.8486 18.5295 55.8996 18.5295 57.2357 18.5317 58.317 19.6166 58.3148 20.9527 58.3127 22.2293 57.319 23.2846 56.0447 23.3633 55.9932 23.3665 55.942 23.3679 55.8912 23.3679 54.5551 23.365 53.4743 22.2796 53.4772 20.9435 53.48 19.6679 54.4727 18.6136 55.7458 18.5342Z" class="MsftOfcThm_Background1_Fill_v2" fill="#FFFFFF"/></g></svg>