<svg viewBox="0 0 93.4 173.7" xmlns="http://www.w3.org/2000/svg" xmlns:xlink="http://www.w3.org/1999/xlink" overflow="hidden"><defs><linearGradient x1="606.59" y1="393.55" x2="606.59" y2="343.68" gradientUnits="userSpaceOnUse" id="b51c4031-3f3d-4476-8c82-56e4384b8c65"><stop offset="0.15" stop-color="#FFFFFF"/><stop offset="0.39" stop-color="#F6F6F8"/><stop offset="0.77" stop-color="#DFDFE6"/><stop offset="1" stop-color="#CECED9"/></linearGradient><linearGradient x1="46.69" y1="237.87" x2="46.69" y2="11.61" xlink:href="#b51c4031-3f3d-4476-8c82-56e4384b8c65" id="fdf71eaf-2604-41c2-b6d9-13e8face5321"></linearGradient><linearGradient x1="479.99" y1="62.1" x2="602.3" y2="352.2" gradientUnits="userSpaceOnUse" id="a9c47ced-317a-4436-82c9-f01688559e5a"><stop offset="0.01" stop-color="#8AB6BE"/><stop offset="0.21" stop-color="#79B3A7"/><stop offset="0.64" stop-color="#4FAC6B"/><stop offset="0.99" stop-color="#29A536"/></linearGradient></defs><g><g id="a4907f56-a674-418d-ac54-3549efef803d"><g><path d="M653.3 384.8C653.19 369.414 640.686 357 625.3 357L559.9 357 559.9 384.8Z" fill="url(#b51c4031-3f3d-4476-8c82-56e4384b8c65)" transform="translate(-559.9 -211)"/><path d="M28 0 93.4 0 93.4 0 93.4 117.9C93.4 133.364 80.864 145.9 65.4 145.9L0 145.9 0 145.9 0 28C-3.55271e-15 12.536 12.536 0 28-3.55271e-15Z" fill="url(#fdf71eaf-2604-41c2-b6d9-13e8face5321)"/><path d="M587.2 211.1C572.026 211.426 559.896 223.823 559.9 239L559.9 357 597.3 357 597.3 270.1C597.297 267.669 596.408 265.323 594.8 263.5L589.7 257.5C588.076 255.687 587.185 253.334 587.2 250.9Z" fill="url(#a9c47ced-317a-4436-82c9-f01688559e5a)" transform="translate(-559.9 -211)"/><text stroke="#3B8F45" stroke-width="1.1" stroke-miterlimit="10" fill="none" font-family="BebasNeueBold,Bebas Neue" font-size="51.44" transform="translate(41.2 54.9)"><tspan letter-spacing="-0.02em">0</tspan><tspan x="19.3" y="0">1</tspan></text><line x1="4.6" y1="90.3" x2="30.8" y2="90.3" stroke="#FFFFFF" stroke-width="1.1" stroke-miterlimit="10" fill="none"/></g></g></g></svg>