<svg viewBox="0 0 96 96" xmlns="http://www.w3.org/2000/svg" xmlns:xlink="http://www.w3.org/1999/xlink" id="Icons_Crane_M" overflow="hidden"><style>
.MsftOfcThm_Background1_Fill_v2 {
 fill:#FFFFFF; 
}
</style>
<g id="Icons"><path d="M77.047 49 77.047 31 84.641 31C85.7456 31 86.641 30.1046 86.641 29 86.6411 28.0765 86.0087 27.273 85.111 27.056L37.465 15.556 36.9 10.5C36.7884 9.47827 35.8697 8.74046 34.848 8.85204 33.9801 8.94682 33.2948 9.63214 33.2 10.5L32.563 16.163 11.087 27.223C10.1056 27.7299 9.72088 28.9363 10.2277 29.9177 10.5703 30.5809 11.2536 30.9982 12 31L30.89 31 25.377 80 12.047 80 12.047 82 58.047 82 58.047 80 44.715 80 39.2 31 75.047 31 75.047 49 65.047 49 65.047 63 87.047 63 87.047 49ZM35.4 15.056 35.285 15.028C35.0887 14.9847 34.8839 15.0025 34.698 15.079L35.041 12.035C35.046 11.987 35.055 11.987 35.06 12.035ZM35.638 17.171 36.969 29.006 33.127 29.006 34.427 17.443 35.173 17.059ZM12.025 28.99 32.291 18.545 31.114 29.007 12.029 29.007C12.007 29.009 12 29 12.025 28.99ZM28.29 72 28.965 66 41.127 66 41.802 72ZM42.027 74 42.702 80 27.39 80 28.065 74ZM29.19 64 29.865 58 40.227 58 40.902 64ZM30.09 56 30.766 50 39.327 50 40 56ZM39.1 48 30.99 48 31.778 41 38.315 41ZM38.09 39 32 39 32.9 31 37.19 31ZM38.979 29.006 37.7 17.67 84.56 28.98C84.605 28.991 84.603 29 84.56 29ZM85.047 61 67.047 61 67.047 51 85.047 51Z" class="MsftOfcThm_Background1_Fill_v2" fill="#FFFFFF"/></g></svg>