<svg viewBox="0 0 96 96" xmlns="http://www.w3.org/2000/svg" xmlns:xlink="http://www.w3.org/1999/xlink" id="Icons_Target_M" overflow="hidden"><style>
.MsftOfcThm_Accent2_Fill_v2 {
 fill:#139439; 
}
</style>
<g id="Icons"><path d="M48 40C43.5817 40 40 43.5817 40 48 40 52.4183 43.5817 56 48 56 52.4183 56 56 52.4183 56 48 55.995 43.5838 52.4162 40.005 48 40ZM48 54C44.6863 54 42 51.3137 42 48 42 44.6863 44.6863 42 48 42 51.3137 42 54 44.6863 54 48 53.9967 51.3123 51.3123 53.9967 48 54Z" class="MsftOfcThm_Accent2_Fill_v2" fill="#139439" fill-opacity="0.2"/><path d="M89 47 81.975 47C81.4257 29.0208 66.9792 14.5743 49 14.025L49 7 47 7 47 14.025C29.0208 14.5743 14.5743 29.0208 14.025 47L7 47 7 49 14.025 49C14.5743 66.9792 29.0208 81.4257 47 81.975L47 89 49 89 49 81.975C66.9792 81.4257 81.4257 66.9792 81.975 49L89 49ZM79.975 47 71.975 47C71.4404 34.5394 61.4606 24.5596 49 24.025L49 16.025C65.8756 16.5713 79.4287 30.1244 79.975 47ZM69.975 49C69.4448 60.3573 60.3573 69.4448 49 69.975L49 60 47 60 47 69.975C35.6427 69.4448 26.5552 60.3573 26.025 49L36 49 36 47 26.025 47C26.5552 35.6427 35.6427 26.5552 47 26.025L47 36 49 36 49 26.025C60.3573 26.5552 69.4448 35.6427 69.975 47L60 47 60 49ZM47 16.025 47 24.025C34.5394 24.5596 24.5596 34.5394 24.025 47L16.025 47C16.5713 30.1244 30.1244 16.5713 47 16.025ZM16.025 49 24.025 49C24.5596 61.4606 34.5394 71.4404 47 71.975L47 79.975C30.1244 79.4287 16.5713 65.8756 16.025 49ZM49 79.975 49 71.975C61.4606 71.4404 71.4404 61.4606 71.975 49L79.975 49C79.4287 65.8756 65.8756 79.4287 49 79.975Z" class="MsftOfcThm_Accent2_Fill_v2" fill="#139439" fill-opacity="0.2"/></g></svg>