<svg viewBox="0 0 96 96" xmlns="http://www.w3.org/2000/svg" xmlns:xlink="http://www.w3.org/1999/xlink" id="Icons_Badge5" overflow="hidden"><style>
.MsftOfcThm_Accent1_lumMod_50_Fill_v2 {
 fill:#452048; 
}
</style>
<path d="M47.979 9.995C27.0038 9.995 10 26.9988 10 47.974 10 68.9492 27.0038 85.953 47.979 85.953 68.9542 85.953 85.958 68.9492 85.958 47.974 85.9679 27.0087 68.9803 10.0049 48.015 9.995 48.003 9.99499 47.991 9.99499 47.979 9.995ZM59.211 58.438C58.4392 59.7741 57.3716 60.9157 56.09 61.775 54.7287 62.6785 53.2165 63.3305 51.625 63.7 49.9072 64.1136 48.1459 64.3198 46.379 64.314 42.727 64.314 39.9937 63.8493 38.179 62.92L38.179 57.907C40.7076 59.3177 43.5496 60.0717 46.445 60.1 47.5645 60.1089 48.6806 59.9745 49.766 59.7 50.7117 59.4658 51.606 59.0589 52.404 58.5 53.9418 57.4308 54.8352 55.6571 54.779 53.785 54.8084 52.8282 54.5476 51.8849 54.031 51.079 53.5153 50.3216 52.8341 49.6914 52.039 49.236 51.1382 48.723 50.1581 48.364 49.139 48.174 47.9904 47.9489 46.8224 47.8377 45.652 47.842 44.524 47.842 42.4543 47.942 39.443 48.142L41.1 30.415 58.6 30.415 58.6 34.864 46.047 34.864 45.184 43.63C45.492 43.608 45.715 43.591 45.848 43.58 45.981 43.569 46.096 43.558 46.195 43.547 46.3003 43.5355 46.4061 43.5299 46.512 43.53L47.076 43.53C48.7735 43.5247 50.4662 43.7085 52.123 44.078 53.6327 44.3996 55.0722 44.99 56.373 45.821 57.5825 46.6075 58.5862 47.6722 59.3 48.926 60.068 50.3462 60.4475 51.9441 60.4 53.558 60.4461 55.2616 60.0356 56.9465 59.211 58.438Z" class="MsftOfcThm_Accent1_lumMod_50_Fill_v2" fill="#452048"/></svg>