<svg version="1.1" viewBox="0 0 96 96" xmlns="http://www.w3.org/2000/svg" xmlns:xlink="http://www.w3.org/1999/xlink" id="Icons_RightPointingBackhandIndex" overflow="hidden"><path d=" M 85 34 L 35.5 34 L 54 29.9 C 56.7 29.3 58.4 26.6 57.8 23.9 C 57.2 21.2 54.5 19.5 51.8 20.1 L 24.8 26.1 C 23.8 26.4 22.8 27 22 28 L 13.5 39 L 6 39 L 6 68 L 11 68 C 18.1 68 18.6 76 32 76 C 35.2 76 45.8 76 50 76 C 53.3 76 56 73.3 56 70 C 56 68.4 55.4 67 54.4 66 C 54.6 66 54.8 66 55 66 C 58.3 66 61 63.3 61 60 C 61 58.4 60.4 56.9 59.3 55.8 C 62 55.2 64 52.8 64 50 C 64 46.7 61.3 44 58 44 L 85 44 C 87.8 44 90 41.8 90 39 C 90 36.2 87.8 34 85 34 Z" stroke="none" stroke-width="1" stroke-linecap="butt" fill="#38AF4E" fill-opacity="1"/></svg>