<svg viewBox="0 0 96 96" xmlns="http://www.w3.org/2000/svg" xmlns:xlink="http://www.w3.org/1999/xlink" id="Icons_Badge2_M" overflow="hidden"><style>
.MsftOfcThm_Accent3_Fill_v2 {
 fill:#BA955E; 
}
</style>
<g id="Icons"><path d="M48.021 12C67.8917 12 84 28.1083 84 47.979 84 67.8497 67.8917 83.958 48.021 83.958 28.1503 83.958 12.042 67.8497 12.042 47.979 12.0646 28.1177 28.1597 12.0226 48.021 12M48.021 10C27.0458 10 10.042 27.0038 10.042 47.979 10.042 68.9542 27.0458 85.958 48.021 85.958 68.9962 85.958 86 68.9542 86 47.979 86.0099 27.0137 69.0223 10.0099 48.057 10 48.045 9.99999 48.033 9.99999 48.021 10Z" class="MsftOfcThm_Accent3_Fill_v2" fill="#BA955E"/><path d="M38.138 63.65 38.138 62.383C38.1133 61.0977 38.2856 59.8161 38.649 58.583 38.9989 57.5017 39.539 56.4915 40.244 55.6 41.0787 54.5592 42.0269 53.6147 43.071 52.784 44.227 51.844 45.642 50.768 47.276 49.584 48.386 48.77 49.388 47.971 50.254 47.208 51.0774 46.4928 51.8184 45.6878 52.463 44.808 53.0502 43.9956 53.5093 43.0978 53.824 42.146 54.1426 41.133 54.2988 40.0759 54.287 39.014 54.3034 38.0072 54.1322 37.0061 53.782 36.062 53.1677 34.394 51.8254 33.0977 50.137 32.542 49.2312 32.2404 48.2816 32.0917 47.327 32.102 45.7657 32.1037 44.2278 32.481 42.843 33.202 41.6172 33.8399 40.4774 34.6309 39.451 35.556L39.451 33.155C40.563 32.2619 41.7993 31.5359 43.121 31 44.5976 30.4355 46.1683 30.1575 47.749 30.181 48.0053 30.1804 48.2615 30.1954 48.516 30.226 48.7695 30.2574 49.0209 30.3035 49.269 30.364 50.3266 30.4687 51.3582 30.7556 52.318 31.212 53.1928 31.6323 53.9803 32.2142 54.639 32.927 55.295 33.654 55.8007 34.5037 56.127 35.427 56.4916 36.4688 56.671 37.5663 56.657 38.67 56.6749 39.9436 56.491 41.212 56.112 42.428 55.754 43.5213 55.2287 44.5525 54.555 45.485 53.8402 46.4616 53.0169 47.3539 52.101 48.145 51.138 48.985 50.047 49.845 48.857 50.691 47.517 51.656 46.351 52.523 45.391 53.264 44.5259 53.9195 43.7128 54.641 42.959 55.422 42.3567 56.043 41.8511 56.7509 41.459 57.522 41.1049 58.2514 40.858 59.028 40.726 59.828 40.689 60.078 40.667 60.299 40.64 60.544 40.6145 60.7979 40.6021 61.0529 40.603 61.308L40.603 61.657 57.336 61.657 57.336 63.657Z" class="MsftOfcThm_Accent3_Fill_v2" fill="#BA955E"/></g></svg>