<svg viewBox="0 0 96 96" xmlns="http://www.w3.org/2000/svg" xmlns:xlink="http://www.w3.org/1999/xlink" id="Icons_Badge3_M" overflow="hidden"><style>
.MsftOfcThm_Accent3_Fill_v2 {
 fill:#BA955E; 
}
</style>
<g id="Icons"><path d="M48.021 12C67.8917 12 84 28.1083 84 47.979 84 67.8497 67.8917 83.958 48.021 83.958 28.1503 83.958 12.042 67.8497 12.042 47.979 12.0646 28.1177 28.1597 12.0226 48.021 12M48.021 10C27.0458 10 10.042 27.0038 10.042 47.979 10.042 68.9542 27.0458 85.958 48.021 85.958 68.9962 85.958 86 68.9542 86 47.979 86.0099 27.0137 69.0223 10.0099 48.057 10 48.045 9.99999 48.033 9.99999 48.021 10Z" class="MsftOfcThm_Accent3_Fill_v2" fill="#BA955E"/><path d="M45.687 65.236C43.2319 65.292 40.803 64.721 38.63 63.577L38.63 61.129C40.7513 62.5371 43.2341 63.3028 45.78 63.334 46.8471 63.3369 47.91 63.1991 48.941 62.924 49.9275 62.6654 50.8553 62.22 51.674 61.612 52.4799 61.0015 53.1357 60.2148 53.591 59.312 54.0927 58.2731 54.3392 57.1294 54.31 55.976 54.4366 53.7942 53.4516 51.6963 51.692 50.4 49.992 49.174 47.473 48.553 44.21 48.553L41.888 48.553 41.888 46.653 44 46.653C46.972 46.653 49.252 46.053 50.778 44.853 52.3636 43.5646 53.2335 41.5927 53.116 39.553 53.231 37.7845 52.6012 36.0484 51.379 34.765 49.9502 33.5647 48.1104 32.9676 46.249 33.1 43.9976 33.1417 41.8069 33.8365 39.943 35.1L39.943 32.937C42.0776 31.7926 44.46 31.1887 46.882 31.178 48.0063 31.175 49.125 31.3357 50.203 31.655 51.2044 31.9466 52.1392 32.431 52.955 33.081 53.744 33.7254 54.3837 34.5333 54.83 35.449 55.3166 36.4882 55.5562 37.6258 55.53 38.773 55.53 43.121 53.436 45.825 49.13 47.038L48.875 47.109 48.875 47.78 49.186 47.816C50.2092 47.9289 51.2101 48.1928 52.156 48.599 53.0407 48.9768 53.8472 49.5163 54.534 50.19 55.2141 50.869 55.7537 51.6754 56.122 52.563 56.521 53.5419 56.7189 54.591 56.704 55.648 56.7303 57.0587 56.4377 58.4572 55.848 59.739 55.2973 60.8995 54.4969 61.924 53.504 62.739 52.4649 63.5764 51.2757 64.208 50 64.6 48.6034 65.0317 47.1488 65.2462 45.687 65.236Z" class="MsftOfcThm_Accent3_Fill_v2" fill="#BA955E"/></g></svg>