<svg viewBox="0 0 960 960" xmlns="http://www.w3.org/2000/svg" xmlns:xlink="http://www.w3.org/1999/xlink" id="01e830e5-6dc6-4973-bc9e-fc18c73da2d2" overflow="hidden"><path d="M840 779 781 779 781 721 808 721 808 719 781 719 781 396 779 396 779 719 721 719 721 661 766 661 766 659 721 659 721 601 744 601 744 599 721 599 721 368.4 719 368.4 719 599 661 599 661 541 712 541 712 539 661 539 661 481 680 481 680 479 661 479 661 340.8 659 340.8 659 479 601 479 601 421 648 421 648 419 601 419 601 361 616 361 616 359 601 359 601 313.2 599 313.2 599 359 541 359 541 301 584 301 584 299 541 299 541 285.6 539 285.6 539 299 481 299 481 258 479 258 479 299 421 299 421 241 552 241 552 239 421 239 421 230.4 419 230.4 419 239 361 239 361 202.8 359 202.8 359 239 301 239 301 181 520 181 520 179 301 179 301 175.2 299 175.2 299 179 241 179 241 147.6 239 147.6 239 179 181 179 181 120 179 120 179 179 120 179 120 181 179 181 179 239 154.8 239 154.8 241 179 241 179 492 181 492 181 241 239 241 239 299 189.6 299 189.6 301 239 301 239 359 224.4 359 224.4 361 239 361 239 526.8 241 526.8 241 361 299 361 299 419 259.2 419 259.2 421 299 421 299 479 294 479 294 481 299 481 299 561.6 301 561.6 301 481 359 481 359 539 328.8 539 328.8 541 359 541 359 596.4 361 596.4 361 541 419 541 419 599 363.6 599 363.6 601 419 601 419 631.2 421 631.2 421 601 479 601 479 659 398.4 659 398.4 661 479 661 479 666 481 666 481 661 539 661 539 700.8 541 700.8 541 661 599 661 599 719 433.2 719 433.2 721 599 721 599 735.6 601 735.6 601 721 659 721 659 770.4 661 770.4 661 721 719 721 719 779 468 779 468 781 719 781 719 805.2 721 805.2 721 781 779 781 779 840 781 840 781 781 840 781 840 779ZM719 601 719 659 661 659 661 601 719 601ZM659 659 601 659 601 601 659 601 659 659ZM659 599 601 599 601 541 659 541 659 599ZM361 301 419 301 419 359 361 359 361 301ZM359 359 301 359 301 301 359 301 359 359ZM419 361 419 419 361 419 361 361 419 361ZM481 419 481 361 539 361 539 419 481 419ZM539 421 539 479 481 479 481 421 539 421ZM479 419 421 419 421 361 479 361 479 419ZM419 421 419 479 361 479 361 421 419 421ZM421 421 479 421 479 479 421 479 421 421ZM479 481 479 539 421 539 421 481 479 481ZM481 481 539 481 539 539 481 539 481 481ZM541 481 599 481 599 539 541 539 541 481ZM539 541 539 599 481 599 481 541 539 541ZM541 541 599 541 599 599 541 599 541 541ZM659 481 659 539 601 539 601 481 659 481ZM599 479 541 479 541 421 599 421 599 479ZM599 361 599 419 541 419 541 361 599 361ZM539 301 539 359 481 359 481 301 539 301ZM479 301 479 359 421 359 421 301 479 301ZM419 241 419 299 361 299 361 241 419 241ZM359 241 359 299 301 299 301 241 359 241ZM299 181 299 239 241 239 241 181 299 181ZM181 239 181 181 239 181 239 239 181 239ZM241 241 299 241 299 299 241 299 241 241ZM241 359 241 301 299 301 299 359 241 359ZM301 361 359 361 359 419 301 419 301 361ZM301 479 301 421 359 421 359 479 301 479ZM361 539 361 481 419 481 419 539 361 539ZM421 599 421 541 479 541 479 599 421 599ZM481 659 481 601 539 601 539 659 481 659ZM541 659 541 601 599 601 599 659 541 659ZM601 719 601 661 659 661 659 719 601 719ZM661 719 661 661 719 661 719 719 661 719ZM721 779 721 721 779 721 779 779 721 779Z" fill="#E6E6E6" fill-opacity="0.34902"/><g><circle cx="336.687" cy="268.98" r="17.859" fill="#D2D2D2" fill-opacity="0.34902"/><circle cx="690.141" cy="745.859" r="17.859" fill="#F2F2F2" fill-opacity="0.34902"/><circle cx="690.141" cy="510.141" r="17.859" fill="#D2D2D2" fill-opacity="0.34902"/><circle cx="629.859" cy="630.141" r="17.859" fill="#737373" fill-opacity="0.34902"/><circle cx="477.859" cy="661.859" r="17.859" fill="#737373" fill-opacity="0.34902"/><circle cx="481.859" cy="329.859" r="17.859" fill="#F2F2F2" fill-opacity="0.34902"/><circle cx="450.141" cy="390.141" r="17.859" fill="#737373" fill-opacity="0.34902"/><circle cx="149.862" cy="330.138" r="17.859" fill="#F2F2F2" fill-opacity="0.34902"/><circle cx="298.138" cy="362.138" r="17.859" fill="#505050" fill-opacity="0.34902"/><circle cx="542.138" cy="361.862" r="17.859" fill="#F2F2F2" fill-opacity="0.34902"/><circle cx="636.33" cy="441.014" r="17.859" fill="#505050" fill-opacity="0.34902"/><circle cx="569.541" cy="607.601" r="17.859" fill="#F2F2F2" fill-opacity="0.34902"/><circle cx="260.463" cy="466.451" r="17.859" fill="#505050" fill-opacity="0.34902"/><circle cx="210.138" cy="269.862" r="17.859" fill="#737373" fill-opacity="0.34902"/><circle cx="452.768" cy="536.859" r="17.859" fill="#D2D2D2" fill-opacity="0.34902"/><circle cx="574.141" cy="414.141" r="17.859" fill="#505050" fill-opacity="0.34902"/><circle cx="542.061" cy="519.001" r="17.859" fill="#D2D2D2" fill-opacity="0.34902"/><circle cx="615.071" cy="496.929" r="8.929" fill="#505050" fill-opacity="0.34902"/><circle cx="499.071" cy="439.071" r="8.929" fill="#505050" fill-opacity="0.34902"/><circle cx="613.495" cy="376.132" r="8.929" fill="#F2F2F2" fill-opacity="0.34902"/><circle cx="439.071" cy="611.071" r="8.929" fill="#505050" fill-opacity="0.34902"/><circle cx="463.071" cy="568.929" r="8.929" fill="#505050" fill-opacity="0.34902"/><circle cx="520.929" cy="580.929" r="8.929" fill="#505050" fill-opacity="0.34902"/><circle cx="340.929" cy="400.929" r="8.929" fill="#505050" fill-opacity="0.34902"/><circle cx="463.071" cy="463.071" r="8.929" fill="#505050" fill-opacity="0.34902"/></g></svg>