<svg viewBox="0 0 480 480" xmlns="http://www.w3.org/2000/svg" xmlns:xlink="http://www.w3.org/1999/xlink" id="2cb7f54e-3bba-494c-b4db-57c1e3791072" overflow="hidden"><style>
.MsftOfcThm_Accent4_Fill_v2 {
 fill:#B58DBF; 
}
</style>
<circle cx="280.979" cy="282.564" r="120" class="st0" fill="#E4E4E4" fill-opacity="0.2"/><g><path d="M139.357 94.009 92.364 141.002C91.308 142.915 90.304 144.864 89.349 146.845L145.215 90.979C143.235 91.938 141.28 92.945 139.357 94.009Z" class="st1" fill="#D1D1D1" fill-opacity="0.2"/><path d="M160.588 84.796 83.225 162.159C82.796 163.493 82.397 164.843 82.012 166.2L164.64 83.572C163.282 83.958 161.929 84.362 160.588 84.796Z" class="st1" fill="#D1D1D1" fill-opacity="0.2"/><path d="M176.579 80.822 79.278 178.123C79.078 179.249 78.896 180.375 78.73 181.499L179.957 80.272C178.826 80.439 177.701 80.624 176.579 80.822Z" class="st1" fill="#D1D1D1" fill-opacity="0.2"/><path d="M190.199 79.22 77.648 191.771C77.587 192.764 77.538 193.756 77.502 194.746L193.167 79.08C192.176 79.114 191.186 79.161 190.199 79.22Z" class="st1" fill="#D1D1D1" fill-opacity="0.2"/><path d="M202.322 79.115 77.514 203.923C77.55 204.821 77.598 205.717 77.654 206.611L205.008 79.256C204.112 79.198 203.216 79.152 202.322 79.115Z" class="st1" fill="#D1D1D1" fill-opacity="0.2"/><path d="M213.371 80.083 78.477 214.977C78.588 215.803 78.707 216.626 78.835 217.447L215.837 80.445C215.015 80.317 214.193 80.194 213.371 80.083Z" class="st1" fill="#D1D1D1" fill-opacity="0.2"/><path d="M223.563 81.908 80.294 225.178C80.466 225.945 80.641 226.71 80.828 227.472L225.861 82.439C225.099 82.253 224.332 82.079 223.563 81.908Z" class="st1" fill="#D1D1D1" fill-opacity="0.2"/><path d="M233.061 84.429 82.833 234.657C83.056 235.373 83.285 236.087 83.521 236.797L235.204 85.114C234.493 84.879 233.778 84.651 233.061 84.429Z" class="st1" fill="#D1D1D1" fill-opacity="0.2"/><path d="M241.943 87.564 85.983 243.524C86.252 244.195 86.528 244.861 86.808 245.527L243.949 88.386C243.284 88.106 242.616 87.831 241.943 87.564Z" class="st1" fill="#D1D1D1" fill-opacity="0.2"/><path d="M250.272 91.252 89.681 251.844C89.991 252.474 90.31 253.099 90.63 253.723L252.155 92.198C251.53 91.878 250.904 91.561 250.272 91.252Z" class="st1" fill="#D1D1D1" fill-opacity="0.2"/><path d="M163.031 192.629C163.205 191.693 163.425 190.778 163.668 189.874L93.882 259.66C94.23 260.253 94.588 260.839 94.945 261.425L162.895 193.474C162.941 193.193 162.978 192.911 163.031 192.629Z" class="st1" fill="#D1D1D1" fill-opacity="0.2"/><path d="M191.907 164.464 259.861 96.51C259.275 96.153 258.687 95.798 258.093 95.45L188.312 165.231C189.49 164.911 190.691 164.658 191.907 164.464Z" class="st1" fill="#D1D1D1" fill-opacity="0.2"/><path d="M203.779 164.609 267.099 101.289C266.548 100.896 265.996 100.506 265.438 100.122L201.307 164.253C202.13 164.344 202.953 164.456 203.779 164.609Z" class="st1" fill="#D1D1D1" fill-opacity="0.2"/><path d="M162.654 202.906 98.553 267.007C98.936 267.564 99.329 268.115 99.722 268.666L163.022 205.366C162.871 204.554 162.746 203.734 162.654 202.906Z" class="st1" fill="#D1D1D1" fill-opacity="0.2"/><path d="M165.127 212.451 103.669 273.909C104.087 274.433 104.514 274.948 104.941 275.465L166.004 214.402C165.689 213.763 165.401 213.11 165.127 212.451Z" class="st1" fill="#D1D1D1" fill-opacity="0.2"/><path d="M212.815 167.59 273.891 106.514C273.375 106.087 272.857 105.663 272.333 105.244L210.869 166.708C211.531 166.981 212.178 167.278 212.815 167.59Z" class="st1" fill="#D1D1D1" fill-opacity="0.2"/><path d="M220.078 172.345 280.252 112.171C279.77 111.71 279.284 111.254 278.794 110.801L218.51 171.086C219.045 171.491 219.567 171.912 220.078 172.345Z" class="st1" fill="#D1D1D1" fill-opacity="0.2"/><path d="M169.501 220.094 109.217 280.378C109.668 280.868 110.129 281.351 110.589 281.834L170.759 221.664C170.325 221.152 169.905 220.629 169.501 220.094Z" class="st1" fill="#D1D1D1" fill-opacity="0.2"/><path d="M175.399 226.213 115.191 286.421C115.676 286.878 116.17 287.328 116.662 287.778L177.005 227.435C176.459 227.041 175.921 226.636 175.399 226.213Z" class="st1" fill="#D1D1D1" fill-opacity="0.2"/><path d="M225.841 178.6 286.186 118.255C285.738 117.761 285.284 117.272 284.827 116.786L224.617 176.996C225.041 177.518 225.448 178.054 225.841 178.6Z" class="st1" fill="#D1D1D1" fill-opacity="0.2"/><path d="M230.069 186.389 291.694 124.764C291.279 124.237 290.859 123.715 290.435 123.195L229.223 184.407C229.524 185.059 229.809 185.718 230.069 186.389Z" class="st1" fill="#D1D1D1" fill-opacity="0.2"/><path d="M182.812 230.818 121.592 292.038C122.111 292.462 122.637 292.879 123.164 293.294L184.806 231.652C184.131 231.392 183.464 231.117 182.812 230.818Z" class="st1" fill="#D1D1D1" fill-opacity="0.2"/><path d="M232.313 196.163 296.769 131.707C296.389 131.146 296.002 130.59 295.613 130.035L232.014 193.634C232.144 194.47 232.244 195.313 232.313 196.163Z" class="st1" fill="#D1D1D1" fill-opacity="0.2"/><path d="M192.059 233.589 128.426 297.222C128.98 297.612 129.54 297.995 130.101 298.375L194.576 233.9C193.74 233.831 192.9 233.72 192.059 233.589Z" class="st1" fill="#D1D1D1" fill-opacity="0.2"/><path d="M230.733 209.76 301.396 139.096C301.052 138.5 300.701 137.907 300.347 137.317L231.729 205.935C231.467 207.243 231.132 208.518 230.733 209.76Z" class="st1" fill="#D1D1D1" fill-opacity="0.2"/><path d="M204.338 233.327 135.707 301.958C136.297 302.312 136.893 302.659 137.49 303.003L208.155 232.338C206.908 232.741 205.633 233.066 204.338 233.327Z" class="st1" fill="#D1D1D1" fill-opacity="0.2"/><path d="M304.619 145.064 143.459 306.224C144.088 306.54 144.721 306.849 145.357 307.154L305.554 146.957C305.247 146.323 304.936 145.692 304.619 145.064Z" class="st1" fill="#D1D1D1" fill-opacity="0.2"/><path d="M308.395 153.305 151.711 309.989C152.381 310.264 153.057 310.53 153.734 310.794L309.205 155.323C308.94 154.648 308.672 153.975 308.395 153.305Z" class="st1" fill="#D1D1D1" fill-opacity="0.2"/><path d="M311.633 162.085 160.508 313.21C161.224 313.441 161.946 313.659 162.669 313.877L312.304 164.241C312.086 163.521 311.865 162.8 311.633 162.085Z" class="st1" fill="#D1D1D1" fill-opacity="0.2"/><path d="M314.255 171.481 169.915 315.821C170.681 316.001 171.45 316.175 172.223 316.341L314.779 173.785C314.613 173.014 314.436 172.247 314.255 171.481Z" class="st1" fill="#D1D1D1" fill-opacity="0.2"/><path d="M316.188 181.565 180.012 317.742C180.841 317.864 181.67 317.979 182.498 318.084L316.524 184.058C316.42 183.225 316.31 182.394 316.188 181.565Z" class="st1" fill="#D1D1D1" fill-opacity="0.2"/><path d="M317.277 192.494 190.916 318.855C191.819 318.905 192.722 318.946 193.623 318.976L317.391 195.208C317.363 194.302 317.325 193.397 317.277 192.494Z" class="st1" fill="#D1D1D1" fill-opacity="0.2"/><path d="M317.317 204.471 202.865 318.924C203.867 318.879 204.867 318.822 205.865 318.753L317.139 207.479C317.211 206.474 317.271 205.472 317.317 204.471Z" class="st1" fill="#D1D1D1" fill-opacity="0.2"/><path d="M315.417 220.942C315.608 219.913 315.785 218.885 315.949 217.857L216.244 317.562C217.388 317.38 218.528 317.185 219.663 316.971L315.348 221.286C315.37 221.171 315.395 221.058 315.417 220.942Z" class="st1" fill="#D1D1D1" fill-opacity="0.2"/><path d="M312.404 233.419 231.805 314.018C233.205 313.598 234.593 313.148 235.973 312.678L311.082 237.569C311.546 236.198 311.989 234.816 312.404 233.419Z" class="st1" fill="#D1D1D1" fill-opacity="0.2"/><path d="M304.424 253.417 251.889 305.952C254.001 304.875 256.082 303.743 258.124 302.545L301.03 259.639C302.22 257.606 303.351 255.531 304.424 253.417Z" class="st1" fill="#D1D1D1" fill-opacity="0.2"/></g><path d="M327.477 327.953 327.477 327.953C311.75 327.953 299 315.204 299 299.476L299 299.476C299 283.749 311.749 271 327.477 271L327.477 271C343.204 271 355.954 283.749 355.954 299.477L355.954 299.477C355.953 315.204 343.204 327.953 327.477 327.953Z" class="st2" fill="#737373" fill-opacity="0.2"/><rect x="327" y="93" width="60" height="60" class="MsftOfcThm_Accent4_Fill_v2" fill="#B58DBF" fill-opacity="0.2"/><rect x="109" y="341" width="30" height="30" class="MsftOfcThm_Accent4_Fill_v2" fill="#B58DBF" fill-opacity="0.2"/></svg>